<?xml version="1.0" encoding="utf-8"?>
<!-- Generator: Adobe Illustrator 27.9.0, SVG Export Plug-In . SVG Version: 6.00 Build 0)  -->
<svg version="1.1" id="Layer_1" xmlns="http://www.w3.org/2000/svg" xmlns:xlink="http://www.w3.org/1999/xlink" x="0px" y="0px"
	 viewBox="0 0 1143.7 581.8" style="enable-background:new 0 0 1143.7 581.8;" xml:space="preserve">
<style type="text/css">
	.st0{opacity:0.7;fill:#056CF0;enable-background:new    ;}
	.st1{fill:none;stroke:#232323;stroke-width:17.6;stroke-linecap:round;stroke-linejoin:round;}
	.st2{fill:#232323;}
	.st3{fill:#FFFFFF;stroke:#232323;stroke-width:17.6;stroke-linecap:round;stroke-linejoin:round;}
	.st4{fill:#FFFFFF;}
	.st5{fill:#FFFFFF;filter:url(#Adobe_OpacityMaskFilter);}
	.st6{mask:url(#a_00000119112160715767531720000009499458444579296424_);fill:#232323;}
	.st7{fill:#FFFFFF;stroke:#232323;stroke-width:17;stroke-linecap:round;stroke-linejoin:round;}
	.st8{fill:none;stroke:#000000;stroke-width:17;stroke-linecap:round;stroke-linejoin:round;stroke-opacity:0.5;}
</style>
<ellipse class="st0" cx="544.8" cy="512.4" rx="239.5" ry="69.4"/>
<path class="st1" d="M946.2,18.8l13.2,55.8c1.7,7-2.7,14-9.6,15.7c-1.1,0.3-2.2,0.4-3.4,0.3l-76-2.6c-1.1,0-2.3,0.1-3.4,0.4
	l-7.9,1.9c-7,1.6-14-2.7-15.6-9.7l-3.6-15.1c-1.6-7,2.7-13.9,9.6-15.6l8-2c1.1-0.2,2.1-0.6,3.1-1.1l66.7-36.4
	c6.3-3.5,14.2-1.1,17.6,5.1C945.5,16.6,945.9,17.7,946.2,18.8L946.2,18.8z M927.9,40.8l10.6,44.5"/>
<path class="st2" d="M964.1,12.5c-3.4,3.5-3.4,9,0.1,12.4c3,3,7.8,3.4,11.2,1l-11.3-13.5V12.5z M985.1,17.7c4-2.8,5-8.3,2.2-12.3
	c-2.8-4-8.3-5-12.3-2.2c-0.4,0.3-0.8,0.6-1.1,0.9l11.3,13.5H985.1z M975.4,25.9l9.8-8.2L973.9,4.2l-9.8,8.2L975.4,25.9z M982.3,55.1
	c-4.6-1.7-9.6,0.6-11.3,5.2s0.6,9.6,5.2,11.3c0.7,0.3,1.4,0.4,2.1,0.5L982.3,55.1z M990.7,75.1c4.8,0.8,9.3-2.5,10.1-7.2
	c0.7-4.4-1.9-8.6-6.1-9.9l-4,17V75.1z M978.3,72.1l12.4,3l4-17.1l-12.4-3l-4,17.2V72.1z M980.8,31.1c-4.8,0.9-7.9,5.6-6.9,10.3
	s5.6,7.9,10.3,6.9c0.2,0,0.5-0.1,0.7-0.2l-4-17L980.8,31.1z M990.5,46.9c4.6-1.7,6.9-6.7,5.3-11.3c-1.4-3.9-5.3-6.2-9.4-5.7
	L990.5,46.9L990.5,46.9z M984.9,48.2l5.5-1.3l-4-17l-5.6,1.2L984.9,48.2L984.9,48.2z"/>
<path class="st3" d="M946.2,18.8l13.2,55.8c1.7,7-2.7,14-9.6,15.7c-1.1,0.3-2.2,0.4-3.4,0.3l-76-2.6c-1.1,0-2.3,0.1-3.4,0.4
	l-7.9,1.9c-7,1.6-14-2.7-15.6-9.7l-3.6-15.1c-1.6-7,2.7-13.9,9.6-15.6l8-2c1.1-0.2,2.1-0.6,3.1-1.1l66.7-36.4
	c6.3-3.5,14.2-1.1,17.6,5.1C945.5,16.6,945.9,17.7,946.2,18.8L946.2,18.8z"/>
<path class="st1" d="M927.9,40.8l10.6,44.5"/>
<path class="st4" d="M606.2,223.3c14.4,3.2,48.3-60.4,89.7-135.8c41.4-75.5,149-69,151-14.6c1.5,38.6-50,74-94.2,67l-49.8,133.5
	c21.7,43.3,40,79.2,49.2,127.8c4.3,3,17.6,14.5,36.2,36.6c23.1,27.6-38.5,71-61,59.2c-18.1-9.4-44.6-34.1-55.5-45.3
	c-4.3-1-17.2-1.9-34.8,1.3c-22,4-11.4,32-28.8,73.8s-81.5,19-82,6.3l-1.8-47.4c-0.3-7-15.7,3.8-38.3-8s-20-27.7-20.5-40.3
	c-68.5-10.7-63.9,2.4-84,38c-23.6,42-87-17.3-77.2-35c8.9-16.2,13.8-54.4,16-79.7c2.6-18,8.4-35.3,17-51.3
	c-31.4-34.2-51.1-57.7-36.1-118.8c5.4-22.4,15.9-17,23.7,1.6c10.4,25,57,39.6,72.7,39c41.1-40.1,157.7-50.3,208.5-8L606.2,223.3z"/>
<defs>
	<filter id="Adobe_OpacityMaskFilter" filterUnits="userSpaceOnUse" x="278.5" y="13.9" width="586" height="554.6">
		<feColorMatrix  type="matrix" values="1 0 0 0 0  0 1 0 0 0  0 0 1 0 0  0 0 0 1 0"/>
	</filter>
</defs>
<mask maskUnits="userSpaceOnUse" x="278.5" y="13.9" width="586" height="554.6" id="a_00000119112160715767531720000009499458444579296424_">
	<path class="st5" d="M270,10.6h613.3v569.1H270V10.6z"/>
	<path d="M606.2,223.3c14.4,3.2,48.3-60.4,89.7-135.8c41.4-75.5,149-69,151-14.6c1.5,38.6-50,74-94.2,67l-49.8,133.5
		c21.7,43.3,40,79.2,49.2,127.8c4.3,3,17.6,14.5,36.2,36.6c23.1,27.6-38.5,71-61,59.2c-18.1-9.4-44.6-34.1-55.5-45.3
		c-4.3-1-17.2-1.9-34.8,1.3c-22,4-11.4,32-28.8,73.8s-81.5,19-82,6.3l-1.8-47.4c-0.3-7-15.7,3.8-38.3-8s-20-27.7-20.5-40.3
		c-68.5-10.7-63.9,2.4-84,38c-23.6,42-87-17.3-77.2-35c8.9-16.2,13.8-54.4,16-79.7c2.6-18,8.4-35.3,17-51.3
		c-31.4-34.2-51.1-57.7-36.1-118.8c5.4-22.4,15.9-17,23.7,1.6c10.4,25,57,39.6,72.7,39c41.1-40.1,157.7-50.3,208.5-8L606.2,223.3z"
		/>
</mask>
<path class="st6" d="M695.9,87.5L680.5,79L695.9,87.5z M606.1,223.3l-3.8,17.1c-2.7-0.6-5.3-1.8-7.4-3.6L606.1,223.3L606.1,223.3z
	 M397.7,231.2l12.3,12.6c-3.1,3-7.3,4.8-11.6,5L397.7,231.2z M325,192.2l-16.2,6.8L325,192.2z M301.3,190.6l-17.1-4.2L301.3,190.6
	L301.3,190.6z M337.4,309.4l13-11.9c5.3,5.8,6.1,14.3,2,21L337.4,309.4z M320.4,360.7l-17.5-1.6L320.4,360.7z M304.4,440.3l15.4,8.5
	L304.4,440.3z M381.7,475.3L397,484l-15.3-8.6V475.3z M465.7,437.3l2.6-17.3c8.3,1.3,14.6,8.3,14.9,16.7l-17.6,0.7L465.7,437.3z
	 M486.1,477.7l-8.1,15.6L486.1,477.7z M608.1,526.8l-16.1-6.7L608.1,526.8L608.1,526.8z M637.1,453l-3.2-17.3L637.1,453L637.1,453z
	 M671.8,451.7l3.6-17.2c3.4,0.7,6.5,2.4,8.9,4.9L671.8,451.7z M727.2,497l-8,15.6L727.2,497z M788.2,437.8l13.5-11.3L788.2,437.8z
	 M752.1,401.2l-10,14.4c-3.8-2.6-6.4-6.6-7.3-11.1L752.1,401.2L752.1,401.2z M702.9,273.4l-15.7,7.9c-2.2-4.4-2.4-9.4-0.7-14
	L702.9,273.4L702.9,273.4z M752.7,139.8l-16.5-6.1c3-7.9,11-12.6,19.3-11.2L752.7,139.8L752.7,139.8z M711.3,95.9
	c-20.6,37.5-39.7,72.8-55.5,98.2c-6.5,11.1-13.9,21.6-22.1,31.5c-3.4,4-7.3,7.5-11.6,10.5c-3.9,2.6-11,6.3-19.8,4.3l7.7-34.3
	c-5.1-1.1-8,1.3-7.3,0.7c0.5-0.3,2-1.5,4.5-4.3c4.9-5.6,11.1-14.6,18.8-26.9c15-24.4,33.6-58.6,54.5-96.6l30.8,17V95.9z
	 M398.3,248.8c-11.6,0.4-30-4.2-46.2-11.5c-15.7-7-35.4-19.3-43.3-38.3l32.4-13.6c2.5,6,11.3,13.5,25.3,19.9
	c9.6,4.6,19.9,7.4,30.5,8.3l1.4,35.2H398.3z M308.8,199c-1.6-3.8-3-6.1-4-7.2c-0.3-0.6-0.4-0.5,0-0.2s1.7,1.2,4,1.6
	c2.4,0.5,5,0.3,7.5-0.8c2.2-1,3.3-2.2,3.6-2.7c0.4-0.4,0.2-0.3-0.2,0.6l-1.4,4.5l-34.1-8.4c1.6-6.5,4-13.3,8.2-18.5
	c4.8-6,13-11.2,23.4-9c6.8,1.7,12.7,5.7,16.8,11.3c3.5,4.4,6.3,9.7,8.6,15.2L308.8,199L308.8,199z M352.4,318.6
	c-2,3.3-5.4,10.8-8.6,20c-3.2,9-5.4,17.9-6,23.6l-35-3c1-10,4.3-22,7.8-32.2c3.1-9.3,7-18.3,11.8-26.8L352.4,318.6z M337.9,362.2
	c-1.1,13-3,29.4-5.7,44.8c-2.6,14.8-6.4,31-12.4,41.8l-30.8-17c3-5.2,6-16.2,8.6-30.9c2.5-14,4.2-29.4,5.3-41.8l35,3L337.9,362.2z
	 M319.9,448.8c1.7-3.2,0.8-5.5,1-4.6c0.3,0.8,1,2.6,2.8,5.2c4.5,6.4,10.1,11.9,16.6,16.3c5.2,3.9,11.3,6.2,17.8,6.8
	c2.7,0,5.4-0.7,8.3-5.8L397,484c-7.4,14.5-22.3,23.6-38.6,23.7c-14,0-27.4-6-37.7-12.9c-10.3-6.9-19.2-15.6-26.3-25.8
	c-3.1-4.8-6-10.2-7.4-16c-2-7-1.3-14.6,2-21.1l30.8,16.9L319.9,448.8z M366.4,466.8l6.2-11.8c1.9-3.6,3.8-7.4,5.8-10.8
	c3.9-6.9,9-14.5,17.6-20c9.1-5.4,19.5-8.2,30-8c11-0.3,25,1.1,42.3,3.8l-5.4,34.7c-11.9-2.1-23.9-3.2-36-3.3
	c-7.6,0.2-10.6,1.6-11.9,2.4c-1.4,1-3.1,2.6-6.1,7.8l-5,9.5c-2,3.8-4.2,8.1-7,12.9l-30.4-17.3L366.4,466.8z M483.2,436.8v5.2
	l0.2,4.4c0.1,2.7,0.4,4.6,1,6.1c0.6,2.1,2.2,5.6,9.9,9.6L478,493.3c-12.8-5.9-22.6-16.8-27.2-30.1c-3.2-10-2.6-21.4-2.7-25.2
	L483.2,436.8L483.2,436.8z M543.8,532.5c-0.2-5.4-3.3-7.8-2.5-7c0.2,0.2,1.3,1,3.5,2.2c4.4,2.3,11,4.4,18,5.2
	c14.8,1.7,24.9-2.5,29.2-12.8l32.4,13.5c-13,31.5-43.8,36.7-65.5,34.3c-10.5-1.2-20.7-4.2-30.2-9c-4.3-2.1-8.2-4.8-11.7-8
	c-2.9-2.8-8-8.6-8.4-17.1L543.8,532.5L543.8,532.5z M592,520.1c7.7-18.6,9-33.5,11.6-47.4c1-7.6,3.4-14.9,7.1-21.6
	c5.2-8.3,13-13.6,23.2-15.4l6.3,34.6c-0.9,0.1-0.8,0.3-0.3,0l0.7-0.7c-0.4,0.7-1.3,2.9-2.4,9.3c-2,11.5-4.1,31.5-13.8,54.7
	L592,520.1L592,520.1z M633.9,435.7c19.3-3.5,34.5-2.7,41.5-1.2l-7.3,34.4H668c-0.8-0.2-1.6-0.3-2.4-0.3l-6-0.2
	c-5,0-11.7,0.5-19.4,1.9L633.9,435.7L633.9,435.7z M684.3,439.4c7.7,7.7,15.7,15.1,24,22.2c10,8.7,20,16.1,27,19.8l-16.2,31.2
	c-12-6.9-23.3-15-33.7-24.2c-9.1-7.8-17.8-15.9-26.2-24.4L684.3,439.4L684.3,439.4z M735.3,481.4c-0.6-0.3,1.7,0.9,8.7-1.5
	c6.3-2,13.5-6,19.6-11.2c5-3.8,9-8.8,11.6-14.5c1.1-3,0.6-4-0.4-5.1l27-22.6c9.4,11.1,11.9,26.5,6.4,40c-4.7,11.4-12.3,21.4-22,29.1
	c-9.2,7.8-19.7,13.8-31.1,17.7c-10.1,3.4-24,5.6-36-0.7L735.3,481.4L735.3,481.4z M774.8,449.1c-9.7-12.3-20.7-23.5-32.7-33.5
	l20-28.9c6.2,4.3,20.6,17.2,39.6,39.8L774.8,449.1L774.8,449.1z M686.5,267.2l49.7-133.5l33,12.3l-49.8,133.5l-33-12.3H686.5z
	 M755.5,122.5c18.2,2.1,36.5-2.6,51.3-13.4c15.5-10.8,23-24.4,22.5-35.5l35.2-1.3c1,27.4-16.5,50.9-37.4,65.6
	c-22.3,16-49.9,22.9-77.2,19.3L755.5,122.5z M829.3,73.6c-0.2-7-3.6-12.7-10.5-17.2c-9.7-5.6-20.9-8.1-32.1-7.4
	c-26.9,0.9-58,15.3-75.4,47l-30.8-17c21.1-38.7,61.1-63.4,105.1-65c18.3-1,36.5,3.4,52.2,12.8c16,9.7,26,26.8,26.7,45.5L829.3,73.6
	L829.3,73.6z M494.3,462.1c7.4,4,13.4,4.1,18.4,3.8l4.3-0.2c2-0.2,4-0.2,6,0c10.4,0.5,18.7,9,19,19.4l-35.2,1.3
	c0.1,2.6,1.2,7.4,5.6,11c3.6,3,7.2,3.2,7.5,3.3h-0.7l-4.7,0.4c-8.4,0.4-21.4,0-36.5-7.8L494.3,462.1L494.3,462.1z M542,485.1
	l1.8,47.4l-35.2,1.3l-1.8-47.4L542,485.1z M734.8,404.5c-8.7-45.9-25.8-79.7-47.6-123.2l31.5-15.8c21.5,43,41,81,50.6,132.4
	L734.8,404.5z M594.8,236.8c-20.3-17-56.8-25-95.5-23c-38.8,2.2-73.2,14.2-89.3,30l-24.6-25.3c25-24.4,69.5-37.5,112-39.8
	c42.5-2.4,89.7,5.7,120,31L594.8,236.8L594.8,236.8z M318.3,194.8c-6.9,28.2-5.3,45.4,0,58.9c5.6,14.2,16,26.4,32,43.8l-25.8,23.8
	c-15.4-16.8-30.6-33.5-39-54.8c-8.6-22.1-9.4-47.2-1.3-80.1L318.3,194.8L318.3,194.8z"/>
<path class="st1" d="M639,462.5c25.3-1,62.4-18.9,62.4-18.9 M447,443.5c31.7,2,46.4,6.4,73,10.8c-1.8,13.3-4.7,26.8-4,40.7
	 M784.7,147.5c-17.3,7.6-56.7-6.2-57-17.3"/>
<circle class="st2" cx="814.6" cy="55.2" r="8.8"/>
<path class="st7" d="M1021,144c10.8,45.7-66,82.2-93.5,103.2c133.3,86.6,174,32.5,207.7-107.7c-16.3,21.8-71.6,23.6-114.3,4.5H1021z
	"/>
<path class="st8" d="M977.5,274.5c19.2-3.7,56.7-16.4,52.5-37.7c39,5.9,68.8,18.2,78.6-11.6"/>
<path class="st7" d="M217.5,371.9c-65.9-18.7-101-80-110.3-108.4c-14.3,7.1-54,24.4-98.6,36.3C6,317,73.3,378.4,107.2,406.9
	C126,405.9,174.5,397.3,217.5,371.9L217.5,371.9z"/>
</svg>
