<svg xmlns="http://www.w3.org/2000/svg" viewBox="0 0 45.1 45.1"><defs/><g fill="#1793d1"><path fill-rule="evenodd" d="M22 .6c-2 4.8-3.2 8-5.3 12.6 1.3 1.4 3 3 5.6 5a23.3 23.3 0 01-6.3-3.7c-2.8 5.8-7.1 14.1-16 30 7-4 12.4-6.4 17.4-7.4l-.3-3V34c0-4.5 2.4-7.9 5.2-7.7 2.7.3 4.9 4 4.7 8.5 0 .9 0 1.7-.2 2.4A58 58 0 0144 44.6l-3.8-7c-1.8-1.3-3.7-3.2-7.5-5.2 2.6.7 4.5 1.5 6 2.4C27 13 26 10 22 .6z"/><g font-family="DejaVu Sans Mono" font-size="8.3" font-weight="400"><path d="M33.6 11.2V4.7h-2.4v-.9H37v1h-2.4v6.4h-1M38 11.2V3.8h1.5l1.8 5.3.3 1L42 9l1.8-5.2h1.3v7.4h-1V5l-2 6.2h-1l-2-6.3v6.3h-1"/></g></g></svg>