<svg xmlns="http://www.w3.org/2000/svg" overflow="visible" viewBox="0 0 108.4 108.4"><defs/><g fill="#a80030"><path d="M62.6 57.3c-1.8 0 .3 1 2.7 1.3L67 57c-1.4.3-3 .3-4.4.2M72.2 54.9c1-1.5 1.9-3.1 2.1-4.8-.2 1.2-.8 2.2-1.5 3.3-3.3 2.1-.3-1.2 0-2.5-3.6 4.5-.5 2.7-.6 4M75.8 45.6c.2-3.2-.7-2.2-1-1 .4.2.6 2.3 1 1M55.8 1.4c1 .2 2 .3 1.9.5 1-.2 1.3-.4-2-.5M57.7 2H57h.6"/><path d="M87.6 46.9c0 2.9-.9 4.3-1.7 6.8l-1.6.7c-1.3 2.5.1 1.6-.8 3.6-2 1.7-6 5.5-7.3 5.8-1 0 .6-1 .9-1.5-2.7 1.8-2.2 2.7-6.2 3.8l-.2-.2c-10 4.7-23.9-4.6-23.7-17.4-.1.8-.3.6-.5 1a16 16 0 019-15.9 15.2 15.2 0 0116.9 2.2A15 15 0 0060 30c-5.4 0-10.3 3.5-12 7.1-2.7 1.7-3 6.6-4.2 7.5-1.6 11.8 3 16.8 10.8 22.8 1.2.8.3 1 .5 1.6-2.6-1.2-5-3-7-5.3 1.1 1.5 2.2 3 3.7 4.1-2.5-.8-5.7-5.9-6.7-6 4.2 7.5 17 13.1 23.8 10.3-3.1.1-7 0-10.6-1.2-1.4-.8-3.4-2.3-3-2.6a26.2 26.2 0 0026.5-3.8c2-1.6 4.3-4.3 4.9-4.3-1 1.5.2.7-.6 2 2-3.3-.8-1.3 2.1-5.6l1.1 1.5c-.4-2.7 3.3-6 3-10.3.8-1.3 1 1.4 0 4.4 1.3-3.3.3-3.8.7-6.6.3 1 .8 2 1 3-.8-3.3.9-5.5 1.3-7.4-.4-.2-1.3 1.5-1.5-2.3 0-1.7.5-1 .6-1.3-.3-.2-1.1-1.5-1.7-3.9.4-.6 1 1.5 1.6 1.6-.4-2-1-3.4-1-5-1.4-3-.5.5-1.7-1.2-1.6-5 1.3-1.2 1.5-3.4 2.4 3.4 3.8 8.8 4.4 11-.5-2.7-1.2-5.3-2.2-7.9.8.4-1.2-5.6 1-1.6A35.3 35.3 0 0079.8 7.2c.8.8 1.9 1.8 1.5 2C78 7 78.5 6.8 78 6c-2.7-1.2-3 0-4.8 0-5.2-2.8-6.2-2.5-11-4.2l.2 1c-3.5-1.2-4 .4-7.8 0-.2-.2 1.2-.7 2.4-.8-3.4.4-3.2-.7-6.5.1.8-.6 1.7-1 2.5-1.4-2.7.1-6.5 1.6-5.3.3-4.5 2-12.4 4.7-16.8 9l-.2-1c-2 2.4-8.8 7.3-9.4 10.4l-.5.2c-1 1.8-1.8 3.8-2.6 5.6-1.4 2.4-2 1-1.8 1.3-2.8 5.5-4.1 10.2-5.3 14 .9 1.2 0 7.5.4 12.5a55.8 55.8 0 0037.7 54.2c3 1 7.5 1 11.3 1.1-4.5-1.2-5-.6-9.4-2.1-3.2-1.5-3.9-3.2-6-5.1l.8 1.5c-4.4-1.5-2.5-1.9-6-3l.8-1.3c-1.4 0-3.7-2.3-4.3-3.6h-1.6C33 92.7 32 91 32 89.7l-.5 1c-.5-1-6.8-8.7-3.6-7-.6-.5-1.4-.8-2.2-2.4l.6-.8c-1.5-2-2.9-4.6-2.8-5.4.9 1.1 1.5 1.3 2 1.5-4-9.8-4.1-.5-7.1-10h.6l-1.2-2.3.3-2.8c-2.9-3.3-.8-14-.4-19.9.3-2.4 2.4-4.9 4-8.9l-1-.2c1.9-3.2 10.6-13 14.6-12.4 2-2.5-.3 0-.7-.7 4.3-4.4 5.6-3.1 8.5-4 3.2-1.8-2.7.8-1.2-.6 5.4-1.4 3.9-3.2 11-3.9.7.5-1.8.7-2.4 1.2C55 9.8 64.8 10.3 71 13.3c7.4 3.4 15.6 13.6 16 23.1l.3.1c-.2 3.8.6 8.2-.7 12.3l.9-2"/><path d="M43 59.8l-.3 1.2c1.2 1.6 2.1 3.4 3.6 4.6-1-2.1-1.9-3-3.3-5.8M45.7 59.7c-.6-.7-1-1.6-1.4-2.4.4 1.5 1.2 2.7 2 4l-.6-1.6M95.2 49l-.3.6a32 32 0 01-3.1 10c1.7-3.4 2.9-7 3.4-10.7M56.1.5c1.2-.4 3-.2 4.3-.5l-5 .4.7.1M13.5 23.2c.2 2.6-2 3.6.4 2 1.4-3-.5-1-.4-2M10.6 35.2l.9-3.8c-1.6 2-.8 2.5-1 3.8"/></g></svg>