<svg xmlns="http://www.w3.org/2000/svg" xmlns:xlink="http://www.w3.org/1999/xlink" version="1.0" viewBox="0.2 0.2 512 512"><defs/><defs><linearGradient id="k"><stop offset="0" stop-color="#411f5d"/><stop offset="1" stop-color="#5b2a85"/></linearGradient><linearGradient id="j"><stop offset="0" stop-color="#8381c5"/><stop offset=".6" stop-color="#7e55b3"/><stop offset="1" stop-color="#a52ecb"/></linearGradient><linearGradient id="a"><stop offset="0" stop-color="#bab8db"/><stop offset="1" stop-color="#5955a9"/></linearGradient><linearGradient id="i"><stop offset="0" stop-color="#6376e6"/><stop offset=".5" stop-color="#222989"/><stop offset="1" stop-color="#00003d"/></linearGradient><linearGradient id="h"><stop offset="0"/><stop offset=".8" stop-opacity=".5"/><stop offset="1" stop-opacity="0"/></linearGradient><linearGradient id="g"><stop offset="0"/><stop offset="1" stop-opacity="0"/></linearGradient><linearGradient id="f"><stop offset="0"/><stop offset="1" stop-opacity="0"/></linearGradient><linearGradient id="e"><stop offset="0" stop-color="#282828"/><stop offset=".4" stop-color="gray"/><stop offset="1" stop-color="#d9d9d9"/></linearGradient><linearGradient id="d"><stop offset="0" stop-color="#2b2b2b"/><stop offset=".5" stop-color="#828383"/><stop offset="1" stop-color="#dadbdb"/></linearGradient><linearGradient id="c"><stop offset="0" stop-color="#b6b3d8"/><stop offset="1" stop-color="#b6b3d8" stop-opacity="0"/></linearGradient><linearGradient id="b"><stop offset="0"/><stop offset="1" stop-opacity="0"/></linearGradient><linearGradient id="m" x1="-122.2" x2="236.6" y1="-161.9" y2="300.7" gradientTransform="matrix(.87386 0 0 .82818 246 250.3)" gradientUnits="userSpaceOnUse" spreadMethod="pad" xlink:href="#j"/><linearGradient id="n" x1="447.8" x2="173.9" y1="396.6" y2="66" gradientTransform="matrix(.98685 0 0 .98685 3 2.5)" gradientUnits="userSpaceOnUse" xlink:href="#k"/><filter id="l" width="1.1" height="1.1" x="0" y="0" color-interpolation-filters="sRGB"><feGaussianBlur stdDeviation="8.8"/></filter></defs><path fill="#211f46" stroke="#0a0b1b" stroke-width="8.5" d="M491.7 257.8c0 131.8-105.8 238.6-236.3 238.6-130.4 0-236.2-106.8-236.2-238.6S125 19 255.4 19C386 19.1 491.7 126 491.7 257.8z" filter="url(#l)" opacity=".4" transform="matrix(.98685 0 0 .98685 3 2.5)"/><path fill="url(#m)" stroke="url(#n)" stroke-width="13.3" d="M488.2 256.9c0 130-104.3 235.5-233 235.5C126.3 492.4 22 387 22 256.9c0-130 104.4-235.5 233.1-235.5 128.8 0 233.1 105.4 233.1 235.5z"/><path fill="#fff" fill-rule="evenodd" d="M175 422.3s19.7 1.4 45.1-.8a728 728 0 0078.5-11.2s35.6-7.6 54.7-14.6c19.9-7.3 30.7-13.6 35.6-22.4-.2-1.8 1.5-8.2-7.7-12-23.5-10-50.7-8.2-104.6-9.3-59.8-2-79.7-12-90.3-20.1-10.1-8.2-5-30.8 38.5-50.7 22-10.6 107.9-30.2 107.9-30.2-29-14.3-83-39.5-94-45-9.8-4.7-25.3-11.8-28.7-20.5-3.8-8.4 9-15.5 16.2-17.6a354.1 354.1 0 0185.6-11.3c15-.2 17.4-1.2 17.4-1.2 20.6-3.4 34.2-17.5 28.5-39.9-5-22.8-31.9-36.2-57.3-31.5-24 4.3-81.8 21.1-81.8 21.1 71.5-.6 83.4.6 88.7 8 3.2 4.5-1.4 10.5-20.4 13.6-20.8 3.4-63.9 7.5-63.9 7.5-41.3 2.4-70.4 2.6-79.2 21.1-5.7 12 6.1 22.8 11.3 29.4 21.8 24.3 53.4 37.4 73.7 47 7.6 3.7 30 10.6 30 10.6-65.8-3.7-113.4 16.6-141.2 39.9-31.6 29.1-17.6 63.9 47 85.3 38.1 12.6 57 18.6 114 13.5 33.5-1.9 38.8-.8 39.1 2 .5 3.8-37.2 13.5-47.5 16.4-26.2 7.6-94.9 22.8-95.2 23z"/></svg>