<svg xmlns="http://www.w3.org/2000/svg" fill-rule="evenodd" stroke-linejoin="round" clip-rule="evenodd" viewBox="0 0 223 223"><defs/><path fill="#fff" fill-rule="nonzero" stroke="#000" stroke-width="4.8" d="M177.2 184.6a18 18 0 0018-18v-64.9a18 18 0 00-18-18h-14.8a4 4 0 01-4-4v-9.4h-117l.3 138.2a4 4 0 001.8 3.4c5.2 3 22 8.7 57 8.7 35.8 0 51.9-7.6 56.4-11.1a4 4 0 001.5-3v-18a4 4 0 014-4h14.8zm-18.8-79.8a5 5 0 015-5h12.7a5 5 0 015 5v58.1a5 5 0 01-5 5h-12.7a5 5 0 01-5-5z"/><path fill="#fbb040" d="M53 69.1v124a4 4 0 002 3.5c5 2.4 19.7 8.2 45.4 8.2 26 0 40.2-7 45-10a4 4 0 001.8-3.3V69.1z"/><path fill="none" stroke="#ffdb96" stroke-linecap="round" stroke-linejoin="miter" stroke-width="12" d="M35.5.2v112.9" transform="matrix(1 0 0 .84931 31.2 90)"/><path fill="#fff" stroke="#000" stroke-linecap="round" stroke-width="4.8" d="M65.2 27a16 16 0 0113.6-8.5c7.1-.4 11.1 4.2 11.1 3.8a20 20 0 0140 0c0 .1 4.2-5 10.9-4.8 8 .3 14.3 6.5 14.3 14.4 0 4.1-4.2 10.7-4.2 10.7a15 15 0 0117 1.5 15.1 15.1 0 01-7.3 26.9c-1.7.2-3.4.6-5 1.2a116 116 0 01-13.4 4.2 15 15 0 01-1.9 6.2A20.7 20.7 0 00138 94v1.7c0 5-4 8-9 8s-9-4-9-9a7 7 0 00-3-5.7l-1.3-.9a16.8 16.8 0 01-5.7-7.4c-25.6.8-48.9-3.6-60.7-6.8-3-.9-6-1.6-9.1-2.1a16 16 0 01-7.9-4.2 15.1 15.1 0 0110.1-26.1c-6.5-5.4.8-18.7 11.6-19.2 5.5-.2 11.3 4.7 11.3 4.7z"/></svg>