<svg xmlns="http://www.w3.org/2000/svg" viewBox="0 0 709.9 709.9"><defs/><defs><linearGradient id="b"><stop offset="0" stop-color="#fefefc"/><stop offset=".8" stop-color="#fefefc"/><stop offset="1" stop-color="#d4d4d4"/></linearGradient><linearGradient id="c"><stop offset="0" stop-color="#fefefc"/><stop offset=".8" stop-color="#fefefc"/><stop offset="1" stop-color="#d4d4d4"/></linearGradient><linearGradient id="a"><stop offset="0" stop-color="#3e2a06"/><stop offset="1" stop-color="#ad780a"/></linearGradient></defs><g fill-rule="evenodd"><path fill="#282828" d="M273.6 53.1c-6.3 12.6-10.5 28-10.9 47-1.5 80.4 3.5 68 .4 104.9a164 164 0 01-17 53.8c-11.4 22.7-26.3 40.5-35.1 53.5-18 26.7-35.4 49.9-48.5 76.4a195.5 195.5 0 00-15.1 51.6A214.6 214.6 0 00146 476c-9.2 8-14 21.5-23.4 31.8-6.1 6.6-18 8.7-31 11.3-11.2 2.1-23.1 6.5-27.3 13.2a25 25 0 00-1.2 2.3c-9.5 18.2 2 49.4-3.6 72.5-2.3 9.9-6.4 19.1-6.5 27.6 0 4.4 1 9 4 14.3 3.3 5.7 10.7 9.9 21 13.5 9.8 3.3 22.4 6.3 37 9.7l5 1.2c6.7 1.6 13.2 3.1 19.9 4.5l9 1.7c9.3 1.7 12.9 2.3 37.8 12 6 2.4 12.6 4.9 19.7 7 14 4.4 29.7 7.5 44.2 4.9a46 46 0 0020.5-9 77.4 77.4 0 0020.1-24.2 44.2 44.2 0 003.6-9.8c5.9-3 20.4-7.4 55-7.7 52-.5 86.6 18.3 86.6 18.3v-.4c.5 2.4 1 4.7 1.7 7a37.5 37.5 0 0011 17c3.1 3 6.8 5.6 11 7.8a63 63 0 0027.7 7.3c4.7.2 9.7 0 15-.8a54 54 0 0021.3-7.6c5.6-3.5 10.3-7.7 15-12l.1-.1c3.2-2.8 6.3-5.7 9.8-8.3a554 554 0 0013-10c5.1-4 10.5-8.3 15.8-12.2a308 308 0 0117.7-12.3 2128.4 2128.4 0 0031.6-20.9c9.5-6.4 22.5-14.3 27.4-24.7 1.7-3.2 2.6-6.6 2.3-10.3-.8-11.8-14.7-22.4-27-33a71.8 71.8 0 01-15.3-15.5 53.7 53.7 0 01-6.5-15.2c-2.5-12.9-2.4-22.5-8.5-31a23.2 23.2 0 00-19-11l-3.8-.5c5.6-20.6 7.2-33.7 6.2-51-2.3-39.3-27-81-59.4-128.5-11-16-23.7-32.6-32.8-46.8-10.5-16.4-21.4-35.5-25.6-52.8-3.2-13-4.6-37.5-5-78.5 1.6-62.7-17.8-91.6-41.3-109.7-23.5-18-58-17.7-70.4-16.6-10.5.9-54.3 11.4-74.8 52.6z"/><path fill="#fcc624" d="M117.4 519.4c-12.4 6-40.8 5.8-47.7 17.7-7.6 13-2.7 27.4-2.6 44 0 11.7-.2 24.8-5.1 38.7-4 11.5-5.5 15.5.4 25.6 5.8 10.1 31 15 65.1 23.1 34.2 8.2 23.3 2.1 61.6 17 23.7 9.3 57.1 20.7 78.8 3.8 8-6.3 21-20.4 21.8-34.2a59 59 0 00-2.1-21.3c-6.3-17-18.8-24.3-30.6-42-21.8-33-44.8-64.3-63.3-91.7-13-19.4-23.5-24.2-32.4-22.6-27.2 4.8-18.4 29.7-44 42zm346.1-28.1c-12 8.5-9.4 33.9-10 47.3-1.1 20.4-1.3 43.2-2 52.3-1.1 15-12.5 49-11.1 65 1.3 16 2.5 25.3 12.4 34.5a60 60 0 0049.2 12.9c21.7-3.2 29.9-16.6 44-27.2 14-10.5 28.4-23 47-34.9 18.5-11.9 48.3-31.4 52.6-36.7 4.3-5.2 7.2-9.8 4.1-16.7-3-7-13.9-17.7-25.7-27.5-30.8-25.4-17.5-49.1-30.4-61.7-3.9-4.2-6.8-6.5-11.4-7.4-24.6-5-31.3 4.6-45.8 3.2-15.5-1.5-9.7 1.9-41.7-2.4-11-1.2-23.6-5.6-31.2-.7zM280 209c.4.3.3.9.6 1.2 3.6 3.6 7.8 7.1 11.5 11.3 4.2 4.8 8 10.1 11.7 13.4a37 37 0 0022 10.4c17.7 2.2 31-2.7 46-12.6 7-4.6 16.7-13.2 22.3-17.4 9.4-7 12-6.5 14.8-10a29.8 29.8 0 003.4-18 11 11 0 00-5.7-8.2c-4.2-2.7-11.5-5.5-24.2-9.8l-19-7c-12.8-5-21.2-8.8-33-7.8-5.3.4-10.6 1.5-15.2 3.3-8.5 3.6-16.8 9.2-23.6 14-6 4.1-12.1 9.7-15.7 15.4-2.1 3.3-5.4 10.3-2.3 14.3 0 0 8 4 15.9 8.8A74.1 74.1 0 00330 221a85.3 85.3 0 0030.5-8 160 160 0 0029-18.3c1.6-1.1 4.6-4 6.4-5 1.7-.7 7-.3 6.8 1.5-.2 1.4-6.5 4-8.7 5.6a207.1 207.1 0 01-31.5 20 105 105 0 01-31.7 8.8 58 58 0 01-23.4-3 93.4 93.4 0 01-19.3-9c-2.4-1.4-4.8-2.6-8.1-4.7z"/><path fill="#f5f5f5" d="M385 100.4c-14-.2-27.7 10.8-32.2 25.6a69.5 69.5 0 00-3 27.5c4.2 1.2 8.5 2.9 13.5 4.8a27 27 0 011.2-23.3c5.8-10.6 17.2-14 25.6-7.6 8.3 6.5 10.4 20.2 4.6 30.8-2.1 3.9-5 6.8-8.2 8.6 5.6 2 10 3.5 13.6 5a85.1 85.1 0 0013.4-23.3c4.2-13 1-36.3-16.6-45.2-3.9-2-7.9-2.9-11.8-2.9zm-92.3 6.3c-2.3 0-4.7.4-7.3 1.3-11.1 3.9-15.4 22.6-11.4 39.6 2.1 9.4 6 18.3 11.7 23.8a71.8 71.8 0 016.4-4.6c-7.2-3.5-12-14.4-10.7-25 1.3-11 8.6-17.6 16.4-14.5 7.7 3 13 14.4 11.6 25.4-.2 1.5-.4 2.8-.8 4.1a65 65 0 016.3-2.9l1.4-.5a56 56 0 00-.6-17.7c-3.3-16.6-10.9-29-23-29zM409.9 210c-2.7 1.4-7.3 3.3-14.4 8.8-5.1 4-14.6 12.3-22 17.3a85.5 85.5 0 01-15 8.4 57.7 57.7 0 01-20 5.3c-19.5 1-28.7-3.8-37.6-13-3.7-3.9-6.5-8.1-11.2-13.3-2-2.3-5-5.4-7.9-7.5 0 2.6-8.2 57-19.2 81s-10.5 15.8-17.8 41c-10.3 9.2-21.5 34.2-29 55.7-7.6 25.3-13.4 44.8-13.8 73a74.8 74.8 0 01-7.7-24.6 121.4 121.4 0 0129.2-95.4c1-1.1 1-1.6.6-1.5-.4 0-1 .3-1.6.8-30.9 27.6-38.2 78.3-35 101a87 87 0 0015 41.6l.5.6c2.3 2.9 4.8 5.6 7.7 8.2 5 5.5 11.3 11.6 24.1 21.3 23.6 18 40.2 27.4 43.4 39 4.3 15.6-5.4 25.9-17.5 32.2 8.9 8.8 37.1 27 88.6 24.7 45.3-2 73.8-19.2 98-48.8.2-6.8 1-18.2 1.3-30.5.3-11.8.4-23.5 2.2-32.7a33 33 0 012-6 21.8 21.8 0 0118.5-12.6c4-.2 8.2-.5 12.2.4a263 263 0 001.8-16.9 113 113 0 0125.3-3.3c17-.5 37.4 1 47.6 7.5a36 36 0 00-8-5.2c-12-5.7-28.6-7.7-45.4-8.2 4.5-12 9.2-29 8.7-41.8a99.9 99.9 0 00-43.2-78.3c-.2 0 0 .3.7 1 27.6 26.1 36.8 55.8 34.5 84.6a92 92 0 01-11.4 34.3l-8.3.2c1.3-35.3-5.6-64.9-25.3-106.1a108 108 0 00-16.2-23c-4.2-20.5-4.8-19.5-13.2-38.3-12.7-28.6-17.4-61.5-21.2-81z"/><path fill="#282828" d="M563.5 487.8c.4-.7 1.3-4 1.3-4.6 1.7-16.1-29.8-19.8-54.2-19-11.1.4-19.8 1.7-25 3.2-9 2.7-13.4 8.8-14.4 16.4-2 15.5 2.6 48 18 55.2 15.7 7.4 39.7-3.2 53.9-19 9.6-10.8 15.7-23.3 20.4-32.2zm-240.7-325c-1-1.6-5.3-.8-7.4 0-2 .7-3.6 3-2.8 4.5a2 2 0 002.1 1c1.1-.2 2.3-1.5 3.8-2.6 1.6-1.2 4-2.3 4.3-3zm13.5 0c-.7-.6 7-2.2 10 .2 3 2.3 2.9 4.2 2 5.2-1 1-10-4.5-12-5.4z"/></g></svg>