<svg xmlns="http://www.w3.org/2000/svg" viewBox="0 0 19 19"><defs/><path fill="#050505" d="M17.5 14l-.3.8a10.3 10.3 0 01-2.4 3.4c-.5.5-1 .8-1.7.8-.4 0-1-.1-1.5-.4-.6-.2-1.2-.4-1.7-.4s-1.1.2-1.7.4c-.7.3-1.1.4-1.5.4-.6 0-1.2-.2-1.8-.8-.3-.3-.8-.8-1.3-1.6a11.4 11.4 0 01-2.1-6.3c0-1.3.3-2.4.8-3.3a4.8 4.8 0 014-2.4c.6 0 1.2 0 1.9.4l1.4.4 1.6-.5c.9-.3 1.6-.4 2.2-.4 1.6.1 2.8.8 3.6 2a4 4 0 00-2.1 3.5 4 4 0 001.3 3l1.3 1zm-4-14v.4a4 4 0 01-1 2.6c-.9 1-1.9 1.6-3 1.5V4c0-.9.4-1.9 1.1-2.7l1.3-1a4 4 0 011.6-.4z"/></svg>