<svg xmlns="http://www.w3.org/2000/svg" viewBox="0 0 84 68"><defs/><path fill="#90e59a" d="M23.2 15c2.3-2.2 5.5-2.8 8.5-3.7a21 21 0 019.7 2.2c1.3.5 1.3 2.1 1.6 3.3l-2.9.6 1.2-2c0-.6-.8-.8-1.1-1.2l-1.5 1-1-.9c-1 .1-2 .3-2.9-.2-1.4-.7-3-1.2-4.7-1-.7.3-1.3.9-2 1.4l.1-1-1 1.1c-2.3.3-3.3 2.6-2.8 4.7l-1.5 1.1c.6-1 1-2.2.4-3.3-1.7.5-1.8 2.4-2.6 3.7-.8 1.4-2.1 2.6-2.8 4.1l.2 2.5-1.9-.5c1.6-4.3 3.5-8.8 7-11.9z" class="st1"/><path fill="#5cce74" d="M28.2 14.5c.6-.5 1.2-1.1 2-1.4 1.6-.2 3.2.3 4.6 1a12 12 0 01-1 2.7 47 47 0 01-3.6-2.2l.7 1.5-.9 1-1.5-2c-.2 1-1 1.8-2 1.2l.7-1.6 1-1.3v1.1z" class="st2"/><path fill="#75d66f" d="M34.8 14c1 .6 1.9.4 2.8.3l1 .9 1.6-1c.3.4 1 .6 1.1 1.3a30 30 0 01-1.2 2c-.2 0-.7 0-1 .2l1.5 1.7c-2 .1-3.5-1.3-5-2.3-1.4.2-2.4 1.7-3.9 1.9-.7-.3-1.3-.7-2-1.2-.2.8-.4 1.6-.8 2.3-.7.4-1.6.4-2.3.6v1c-.7-.7-1.7-1.5-2.9-1 .8 1-.4 1.3-1 1.7-1.1.6-2.4 1.4-2.6 2.9-.3.8 0 2-.8 2.5-1.1.3-2.2.1-3.3 0l.3-1 1.8.6c0-.9-.2-1.7-.1-2.5.6-1.6 2-2.7 2.8-4.1.7-1.4.9-3.2 2.6-3.7.6 1.1.1 2.2-.4 3.3l1.4-1.2c-.5-2 .6-4.4 2.9-4.6l-.7 1.6c1 .6 1.8-.2 2-1.2l1.5 2 .8-1-.7-1.4 3.8 2.1.8-2.6M24.3 30.9l1.7.3c-.7 1.8-1.6 3.6-1.5 5.6C25 38 26 39 26.7 40c-1.2.4-2.8.1-3.6 1.2-.4 2.1 1.5 3.3 2.7 4.6-1.8-.6-3.8-1.6-4.4-3.6.9-1 2-2 3-2.8-1.6-2.5-2.3-6.1-.1-8.5m18.3 4.5l1.3 1 .1 2.2c-.7-1-1.4-2-1.4-3.2m11.3.5c.4-.6 1.2-.6 1.7 0 .9 1.2 1.4 2.5 2 3.9l2.3.1c-1.5.6-3 1.4-3.2 3.2-.6-1 .3-1.7.7-2.6-.9-1.7-3-2.6-3.5-4.6m-21.6 1.2l.4-.3c.1 1.2.7 2.6-.2 3.6-.9 0-1.7-.1-2.6-.3 1.2-.7 2-1.7 2.4-3M44 38.7l2.2 2.2c.8-1 2.7-2.5 3.5-.7-1.3.6-2.9 1.1-3.3 2.6v.2c.2 1.4.7 2.7 1 4-2.9-2-1.1-6-3.4-8.3M60 39c1.2.2 2.5.4 3.5 1.4-1.2-.1-2.4 0-3.5-.5V39M56.7 46l4.6 1.9c1-.4 2.2-2.4 3-1-1.2 1.1-2.8 2.2-4.5 1.8-1.3-.6-2-1.8-3-2.7m-42 .2l1.1.1c1.3 3 1.3 6.4 3 9.1l2.9 5c1 1.8 2.6 3 4.2 4.2 3.3 2.4 8.8 2 11.2-1.6 1.5-3.2-.4-6.6-1.7-9.6-2.2-3.5-8-.8-7.8 3-.7-3.8 4.1-7 7.4-5 2.3 1.4 3 4.2 3.8 6.6 1 2.9-.5 6.3-3.2 7.6-2.1 1.3-4.7.8-7 .8-3.3-.2-5.4-2.8-7.5-4.9-2-2.5-3.4-5.4-5-8.2-.8-2.3-1.3-4.7-1.4-7.1m17.1 9.7l1 1.3c-.9 1.2-2.3 1.1-3.6 1l-1.6-1.8c1.2.8 2.7 2.3 4.3 1.4l-.1-2z" class="st3"/><path fill="#8fe772" d="M31.7 19c1.4-.2 2.4-1.7 3.8-1.9 1.6 1 3 2.4 5 2.3l-1.4-1.7 1-.3 2.8-.6.8 2.7-1.4 1.4 2.9 4.1c2-.5 3.3 1.4 4.2 3-1.8-.1-3.9-.2-5.3-1.5l-2.7-2.4-1.6.5c-.5-1-.8-2.5-2.1-2.8 0 .6.2 1.1.3 1.7-.8.4-1.7.7-2.6.4l1.1-2.3c-1.1 0-1.8.9-2.4 1.7l-.4-1.2-1.2-.2c-.6.1-.9 1-1.5 1-1.1-.1-2.1-.5-3.3-.6-1.3.2-2.5.8-3.8 1.1l-1.3-1c.6-.4 1.9-.7 1-1.6 1.2-.5 2.2.2 3 1l-.1-1c.7-.2 1.6-.3 2.2-.7.5-.7.7-1.5.9-2.2l2 1z" class="st4"/><path fill="#a9f37e" d="M42.3 20.9l1.4-1.4c.4 1.4 1 2.7 2.2 3.6 1.9 1.5 3.9 3 6.2 3.6 2.2.4 4.5.2 6.3-1 1.6-1.4 2.3-3.5 4-5 1.5.9 3.2 1.2 4.7 2 1.5 1 2.3 2.8 3.2 4.3l-3 .6 1.2 2-.8 1.2-1.4-2.4c-1.1.3-2.2.7-3 1.3l.2 1.5c-2.3-1.2-4.8 0-6.9 1.1l-1.9 1.1-4-2-1.9 2.6-.7-2h-1v3l-1.8-.2c.2-1.4.6-2.7.9-4l-1.3.1a8.4 8.4 0 00-1 5.6l-1.3-1c0-1.5.3-2.8.4-4.2-1.4-.6-2 1-2.3 2.1l-2.3-.8c-1.8-.5-3-2.1-4.7-2.8-.9-.4-1.6-1-2.3-1.8l-.2 1.1c.6 1.2.6 2.7-.7 3.4l-1.7-.2c1.4 1.4 3.5 1.7 5.4 2.2l-1 .7c-1.9-.6-3.8-.6-5.5-1.5l-.2-2.1-1.5-.3-1.7-.4c-.4-.5-1-1.3-1.7-.9L21 31.8l-1-1.4c-2.6.3-2.4 3.4-4 4.8-1.1.8-1 2.3-2 3.1-.2-1.2-.3-2.3-.2-3.5.6-2.1 1.5-4 2-6.2l.2-.7c1.1 0 2.2.2 3.3 0 1-.5.6-1.8.9-2.6.2-1.4 1.4-2.3 2.5-2.9l1.3 1c1.3-.4 2.6-1 3.9-1.1 1.1 0 2.1.5 3.2.6.7 0 .9-.9 1.5-1l1.3.2.3 1.2c.7-.8 1.3-1.8 2.5-1.7L35.4 24c1 .3 1.8 0 2.7-.4l-.4-1.7c1.4.3 1.7 1.7 2.1 2.8l1.7-.5 2.6 2.4c1.4 1.3 3.5 1.4 5.3 1.5-.8-1.5-2.2-3.5-4.2-3L42.3 21z" class="st5"/><path fill="#87de71" d="M67.4 27.6l3-.6.8 2c-2.8 2.8-6.8 3.5-10.4 4.4-1.5.4-3-.4-4.2-1 2.1-1.2 4.6-2.4 7-1.2l-.4-1.5c1-.6 2-1 3-1.3l1.5 2.4.8-1.2-1.1-2z" class="st6"/><path fill="none" d="M33 57.1l-1.1-1.3v1.9c-1.5 1-3-.6-4.2-1.4l1.6 1.7c1.3.2 2.7.3 3.6-.9zM20 42c-1-1-2.7-.5-4-.7-1.5 0-3.7-.2-4.3 1.5l7.8.2.4-1zM49.1 38.5c1.5 2.3 4.3 2 6.6 2-1-1-2.1-1.7-3-2.7-.4-.5-.6-1.4-1.4-1.5-1.4.2-2.8.4-4.3.4h-1.6v2.6l1.4.8c.4-1 1.4-1.3 2.3-1.6zM10.8 41.3l-.1-.3-.2.4-.3.3-.2.3c-.6.6-.5 1.5-.6 2.3l.5.8c1.1.7 1-2 0-2 .6-.6 1.1-1.2 1.3-2z" class="st7"/><path fill="none" d="M14.8 46c.1 2.5.6 5 1.4 7.2 1.6 2.8 3 5.7 5 8.3 2.1 2 4.2 4.7 7.4 4.8 2.3 0 5 .6 7-.8A6.3 6.3 0 0039 58c-1-2.3-1.6-5.2-3.9-6.7-3.2-1.9-8 1.3-7.4 5.1-.1-3.8 5.7-6.5 7.9-3 1.3 3 3.1 6.4 1.7 9.6-2.4 3.7-7.9 4-11.2 1.6-1.6-1.2-3.3-2.4-4.3-4.1-1-1.6-1.8-3.4-2.7-5-1.8-2.8-1.8-6.2-3.1-9.1l-1.1-.2zM12.3 44.2l.4.8c2.8.2 5.7 0 8.5 0l-.4-.5c-2.8 0-5.7-.7-8.5-.3zM55.6 35.9c-.5-.6-1.3-.6-1.7 0 .6 2 2.6 2.9 3.5 4.6-.4.8-1.3 1.7-.7 2.6.3-1.7 1.7-2.6 3.2-3.2l-2.3-.1c-.6-1.4-1.1-2.7-2-3.9zM7.5 40.8l-1 2c.3.8.7 1.6 1.3 2.3l.6-.3c-1.2-1.3-.3-2.9.5-4.1H7.5zM63.4 40.4c-1-1-2.2-1.2-3.5-1.3v.8c1 .4 2.3.4 3.5.5zM22.8 39a6.6 6.6 0 01-.8-5.7l-1.5.3c-1 1.9-2.4 3.8-2.1 6.1 1.5 0 3 0 4.4-.7zM6.5 40.2H3.8c-.5 1-1.2 1.8-2.1 2.3-1 .6-.6 2-.4 2.8 1.7.4 3.4.3 5.1.3-.4-1-1-1.9-1.2-2.9-.1-1 1.3-1.5 1.3-2.5zM29.5 38.3l.4-1.9c-1-.9-2.4-.9-3.7-1.2a6 6 0 001 4.7c.8-.6 1.5-1.2 2.3-1.6zM64.5 44c-2.6.5-5.3.2-7.9.6-2.7-.6-5.6-.7-8.4-.5v1c2.9-.1 5.7.2 8.4-.4 2.4.5 4.9.3 7.3.2 1.3-.2 2.4.6 3.6.5.3-1.7-2-1.2-3-1.3zM58.5 42l-.4.7c1.5.5 3.2.2 4.8.4 2 .3 4.3.6 6.2-.4-.7-.4-1.3-1-2-1.2-3-.2-5.8.2-8.6.4zM61.3 47.8l-4.6-2c1 1 1.8 2.2 3 2.8 1.7.4 3.3-.7 4.5-1.7-.7-1.5-2 .5-2.9.9zM50.5 41.8c-.6.2-2 0-1.9 1h5.5c.7.1 1-.3 1-1h-4.6zM71.6 41.4l-.2 1.9-1 .6v1.8c2.1 0 4.1-1 6.3-1.4.3-.7.1-1.4.1-2.2-1.8-.1-3.4-.8-5.2-.7zM32.7 36.9l-.4.2a5.1 5.1 0 01-2.4 3l2.6.3c.9-1 .3-2.4.2-3.5zM43.6 40.7c-.5-1.2-1-2.6-2-3.4h-7l-.8 3.3c3.2.3 6.5.1 9.8.1z" class="st7"/><path fill="none" d="M46.4 42.8c.4-1.5 2-2 3.3-2.6-.8-1.8-2.7-.3-3.5.7a16 16 0 01-1.8-1.8c1.7 2.4.4 6.1 3 7.9-.3-1.3-.8-2.6-1-4zM30 42.9c1.6-.5 3.1.5 4.7.5H44l-.1-1.4c-4.1 0-8.3-.6-12.2.5-1.1 0-2.2-.5-3.2-.7-.8-1-2.7-.3-4-.6L25 43h3c.6.8 1.4 0 2 0zM26.4 44.5l.8 1H30c4.6 0 9.2.2 13.8 0l.3-.6c-4.7-.3-9.4-.3-14-.4h-3.7z" class="st7"/><path fill="#fbfdfc" d="M47.3 21.4v.3c2.3 2.3 5.7 3.7 8.8 2.8 1.3-.7 2.5-1.5 3-2.8 2-4 2.4-9 1-13.3a10 10 0 01-3-3.2c-1.5-2-4-4-6.6-3.1-2.7.3-4.6 2.7-5.3 5.2-1 3.2-1.4 6.8 0 9.9.3 1.6.6 3.5 2.1 4.2zm5.1-7.8c.6 1.7-.3 4.1-2.5 4.2-1-.7-2.2-1.3-2-2.7-.4-2.5 3-2.5 4.5-1.5zM70.2 23.6c1.3-1.3 2.7-2.3 4-3.5 2.3-3.2 4.1-7.5 2.4-11.5-.5-2.5-3.6-3.4-6-3.2-3 .6-6.4 1.7-8 4.6 0 2.9.4 5.7-.1 8.6 3 .8 6.3 2 7.7 5zm2.3-12l1.8-.5c.7 1 .7 2.6.3 3.7-1.2 1.2-3 0-3.5-1.3l1.4-2z" class="st8"/><path fill="#231f20" d="M59.9 39z" class="st0"/><path fill="none" d="M70.2 23.6c1.3-1.3 2.7-2.3 4-3.5 2.3-3.2 4.1-7.5 2.4-11.5-.5-2.5-3.6-3.4-6-3.2-3 .6-6.4 1.7-8 4.6 0 2.9.4 5.7-.1 8.6 3 .8 6.3 2 7.7 5zm2.3-12l1.8-.5c.7 1 .7 2.6.3 3.7-1.2 1.2-3 0-3.5-1.3l1.4-2zM19.5 43l.4-1c-1-1-2.6-.5-4-.7-1 0-2.6-.1-3.6.6v1l7.2.1zM22 33.3l-1.5.3c-1 1.9-2.4 3.8-2.1 6.1 1.5 0 3 0 4.4-.7a6.6 6.6 0 01-.8-5.7z" class="st7"/><path fill="none" d="M23.1 41.2c.8-1.1 2.4-.9 3.6-1.2-.8-1-1.9-2-2.2-3.3 0-1.9.8-3.7 1.5-5.5l1.5.3.2 2.1c1.7 1 3.6 1 5.4 1.6 2.5.8 5.2.5 7.7 0v-1.8c.2-1.1.8-2.7 2.2-2.1l-.4 4c0 1.3.7 2.4 1.5 3.3l-.2-2.1c-.2-2-.1-4 1-5.7h1.3l-1 4 2 .1a13 13 0 007.5-1.5l2-1.1c1.2.7 2.6 1.5 4 1 3.7-.8 7.8-1.5 10.5-4.3l-.7-1.6-.1-.4c-1-1.5-1.7-3.3-3.2-4.3-1.5-.8-3.2-1.2-4.8-2-1.6 1.4-2.4 3.5-4 5a8.5 8.5 0 01-6.2 1c-2.4-.6-4.4-2.1-6.3-3.6a7 7 0 01-2.1-3.6l-.8-2.8c-.3-1.1-.2-2.7-1.6-3.2l-.1-.1c-3-1.4-6.3-2.4-9.6-2.2-3 .9-6.2 1.5-8.4 3.7a27.8 27.8 0 00-7 11.9l-.4 1-.1.7c-.6 2.1-1.5 4-2 6.2-.2 1.2 0 2.4 0 3.5l.1 1H16c1.5-2.6 2.5-5.6 5-7.5l1.6-1.8c.8-.4 1.3.5 1.7 1-2.1 2.3-1.4 6 .2 8.4-1 .9-2.2 1.7-3 2.8.6 2 2.6 3 4.4 3.6-1.3-1.2-3.2-2.4-2.8-4.5z" class="st7"/><path fill="none" d="M41.5 37.3h-6.9l-.9 3.3c3.3.3 6.6.2 10 .1-.6-1.2-1-2.6-2.2-3.4zM33 57.1l-1.1-1.3v1.9c-1.5 1-3-.6-4.2-1.4l1.6 1.7c1.3.2 2.7.3 3.6-.9zM21.2 45l-.4-.5c-2.8 0-5.7-.7-8.5-.3l.4.8c2.8.2 5.7 0 8.5 0z" class="st7"/><path fill="none" d="M14.8 46c.1 2.5.6 5 1.4 7.2 1.6 2.8 3 5.7 5 8.3 2.1 2 4.2 4.7 7.4 4.8 2.3 0 5 .6 7-.8A6.3 6.3 0 0039 58c-1-2.3-1.6-5.2-3.9-6.7-3.2-1.9-8 1.3-7.4 5.1-.1-3.8 5.7-6.5 7.9-3 1.3 3 3.1 6.4 1.7 9.6-2.4 3.7-7.9 4-11.2 1.6-1.6-1.2-3.3-2.4-4.3-4.1-1-1.6-1.8-3.4-2.7-5-1.8-2.8-1.8-6.2-3.1-9.1l-1.1-.2zM50.5 41.8c-.6.2-2 0-1.9 1h5.5c.7.1 1-.3 1-1h-4.6zM52.7 37.8c-.4-.5-.6-1.4-1.4-1.5-1.4.2-2.8.4-4.3.4h-1.6v2.6l1.4.8c.5-1 1.4-1.3 2.4-1.6 1.4 2.3 4.2 2 6.6 2-1-1-2.2-1.7-3-2.7zM47.3 21.4v.3c2.3 2.3 5.7 3.7 8.8 2.8 1.3-.7 2.5-1.5 3-2.8 2-4 2.4-9 1-13.3a10 10 0 01-3-3.2c-1.5-2-4-4-6.6-3.1-2.7.3-4.6 2.7-5.3 5.2-1 3.2-1.4 6.8 0 9.9.3 1.6.6 3.5 2.1 4.2zm5.1-7.8c.6 1.7-.3 4.1-2.5 4.2-1-.7-2.2-1.3-2-2.7-.4-2.5 3-2.5 4.5-1.5zM58.5 42l-.4.7c1.5.5 3.2.2 4.8.4 2 .3 4.3.6 6.2-.4-.7-.4-1.3-1-2-1.2-3-.2-5.8.2-8.6.4zM64.5 44c-2.6.5-5.3.2-7.9.6-2.7-.6-5.6-.7-8.4-.5v1c2.9-.1 5.7.2 8.4-.4 2.4.5 4.9.3 7.3.2 1.3-.2 2.4.6 3.6.5.3-1.7-2-1.2-3-1.3zM61.3 47.8l-4.6-2c1 1 1.8 2.2 3 2.8 1.7.4 3.3-.7 4.5-1.7-.7-1.5-2 .5-2.9.9zM71.6 41.4l-.2 1.9-1 .6v1.8c2.1 0 4.1-1 6.3-1.4.3-.7.1-1.4.1-2.2-1.8-.1-3.4-.8-5.2-.7z" class="st7"/><path fill="none" d="M55.6 35.9c-.5-.6-1.3-.6-1.7 0 .6 2 2.6 2.9 3.5 4.6-.4.8-1.3 1.7-.7 2.6.3-1.7 1.7-2.6 3.2-3.2l-2.3-.1c-.6-1.4-1.1-2.7-2-3.9zM30 42.9c1.6-.5 3.1.5 4.7.5H44l-.1-1.4c-4.1 0-8.3-.6-12.2.5-1.1 0-2.2-.5-3.2-.7-.8-1-2.7-.3-4-.6L25 43h3c.6.8 1.4 0 2 0zM26.4 44.5l.8 1H30c4.6 0 9.2.2 13.8 0l.3-.6c-4.7-.3-9.4-.3-14-.4h-3.7zM27.2 40l2.3-1.7.4-1.8c-1-1-2.5-1-3.7-1.3-.3 1.7 0 3.3 1 4.7zM30 40.1c.8.2 1.6.2 2.5.3.9-1 .3-2.4.2-3.6l-.4.3a5.1 5.1 0 01-2.4 3zM46.4 42.8c.4-1.5 2-2 3.3-2.6-.8-1.8-2.7-.3-3.5.7a16 16 0 01-1.8-1.8c1.7 2.4.4 6.1 3 7.9-.3-1.3-.8-2.6-1-4z" class="st7"/><path fill="#fff" d="M7.5 40.8l-1 2c.3.8.7 1.6 1.3 2.3l.6-.3c-1.2-1.3-.3-2.9.5-4.1H7.5zM10.8 41.3l-.1-.3-.2.4-.3.3-.2.3c-.6.6-.5 1.5-.6 2.3l.5.8c1.1.7 1-2 0-2 .6-.6 1.1-1.2 1.3-2z" class="st9"/><path fill="#231f20" d="M50 17.8c2 0 3-2.5 2.4-4.2-1.5-1-4.9-1-4.5 1.5-.2 1.4 1 2 2 2.7zM74.6 14.8c.4-1.1.4-2.7-.3-3.7l-1.8.5-1.4 1.9c.5 1.3 2.3 2.5 3.5 1.3z" class="st0"/><path fill="#231f20" d="M73.4 40.4c-2.7-.5-5.4 0-8.2 0-1.2-.9-2.4-1.9-3.9-2L60 39c1.2.2 2.5.4 3.5 1.3-1.2 0-2.4 0-3.5-.4-1.5.6-3 1.4-3.2 3.1-.6-.9.3-1.7.7-2.5-.9-1.8-3-2.7-3.5-4.6.4-.6 1.2-.6 1.7 0 .9 1.1 1.4 2.5 2 3.8l2.3.2V39l-1.2.5-1.7-4.4 2.7.7c4.1-.6 8.6-1.5 11.8-4.3.7-.7 1.9-1.3 1.7-2.5a5 5 0 00-.6-1.6l-1.4-2.8 2.7-1.1c3.3-3.2 4.9-7.7 5.2-12.1-.3-2.4-1-5-2.8-6.6-3.3-1.7-7.2-1.2-10.6 0-1.6.6-2.7 1.9-4 2.9-1-.2-1.6-1.4-2.3-2.2A11.9 11.9 0 0053.8.2c-2-.1-4.4-.7-6.2.7-.9.6-1.9 1-2.5 2a22 22 0 00-2.5 8.6l-1.4-.5a26 26 0 00-9.8-1.8c-2.3.4-4.6 1-6.7 2a20 20 0 00-8.9 11.4c-1 2-1.7 4.2-2.1 6.4-.4 2-1.1 3.9-1.2 6v4l-.2.2c-1.4.7-3 .7-4.7 1-1.2 0-2.3-.6-3.5-.3L.2 41.5c-.3 1.8-.6 4.2 1.6 5H13c.6 3.4 1.3 7 3.1 10 2.2 3.5 4.3 7.1 7.5 9.6 3.2 2.1 7.1 2.2 10.7 1.6 1.3-.2 2.3-1.2 3.5-1.7.7-.5 1.8-.6 2.1-1.5 2.4-4 .6-9-1.6-12.5-1.4-2.5-4.5-3-7-3-1.6.3-2.6 1.6-3.8 2.4-1.4.8-2.7 2.6-1.7 4.2 1 1.6 2 3.8 4.2 3.7 1.4-.1 3.3-.5 3.9-2 .2-1.7-1.8-2.5-3.2-2.9l.2 2.6-2.2-1.4c.4-2.4 3-2.3 4.8-3 1.9 2.8 3.8 6.5 2.3 9.8-1.7 2.2-4.8 2-7.2 1.4-3.1-.5-5.2-3.3-6.6-6-2-3.6-4.6-7.5-4.2-11.8h4.4c1.4.3 2.6 1.5 4.1 1 3.3-1 6.6-.4 10-.4 2.5-.2 5.1-.3 7.7-.1 1 .2 1.5 1.4 2.6 1.3 1.2.4 2-.9 2.9-1.4 2-.1 4.2-.2 6.2 0 1 1.7 2.5 3.6 4.6 3.8 2.6.1 4.8-1.7 6.2-3.7 1.8.4 3.7 1 5.5 0 3.8-1.5 8-1.5 12-2.7v-1.1c-3-2-7-1.4-10.6-2.3zm-17.7 0c-2.3.1-5.1.4-6.6-2-.9.4-1.9.7-2.4 1.7l-1.4-.8.1-2.6H47c1.5 0 2.9-.2 4.3-.4.8.1 1 1 1.4 1.5.9 1 2 1.8 3 2.7zM54.1 43h-5.5c-.1-1.2 1.2-1 1.9-1.1h4.6c0 .7-.3 1.1-1 1zM62.5 10c1.7-3 5-4.1 8.2-4.6 2.3-.3 5.3.6 6 3.2 1.6 3.9-.2 8.2-2.5 11.5-1.3 1.2-2.7 2.2-4 3.5-1.4-3-4.7-4.3-7.7-5 .5-3 0-5.8 0-8.6zM45.2 7.3c.7-2.5 2.6-4.9 5.3-5.2 2.7-1 5.1 1.1 6.5 3.1a10 10 0 003.1 3.2c1.4 4.4 1 9.2-1 13.3-.5 1.3-1.8 2.1-3 2.8-3.2 1-6.5-.5-8.8-2.8v-.3c-1.6-.7-1.8-2.7-2.1-4.2-1.4-3.1-1-6.7 0-9.9zm-41 38.3c-1 0-2 0-3-.3 0-.9-.5-2.2.5-2.8a6 6 0 002.1-2.3H6.5c0 1-1.5 1.4-1.3 2.5.3 1 .8 2 1.3 3L4 45.5zm4.2-.7l-.6.2c-.6-.7-1-1.5-1.3-2.3l1-2 1.4-.1c-.8 1.3-1.7 2.8-.5 4.2zm1.4.1l-.4-.8c0-.8-.1-1.7.6-2.2l.2-.3.3-.3.1-.4.1.2.4-.1c-.1.8-.7 1.4-1.2 2 .9 0 1.1 2.6-.1 2zm2-2.2c0-.4.3-.7.5-.9 1-.7 2.6-.5 3.7-.6 1.3.2 3-.3 4 .8l-.5 1-7.2-.3h-.6zm11-3.8c-1.4.7-3 .7-4.4.7-.3-2.3 1-4.2 2.1-6l1.5-.4c-.7 2-.3 4 .8 5.7zM19 55.4c1 1.6 1.8 3.3 2.7 5 1 1.7 2.7 2.9 4.3 4 3.3 2.5 8.8 2.2 11.2-1.5 1.5-3.2-.4-6.6-1.7-9.6-2.2-3.5-8-.8-7.9 3 1.3.8 2.7 2.3 4.3 1.4v-2l1 1.4c-.9 1.2-2.4 1.1-3.6 1l-1.7-1.8c-.6-3.8 4.2-7 7.4-5 2.3 1.4 3 4.2 3.9 6.6 1 3-.5 6.3-3.2 7.6-2.2 1.4-4.8.8-7.1.8-3.2-.1-5.3-2.7-7.4-4.8-2-2.5-3.4-5.5-5-8.3-.8-2.3-1.3-4.7-1.4-7.1l1.1.1c1.3 3 1.3 6.4 3 9.2zM12.7 45l-.4-.8c2.8-.4 5.7.2 8.5.3 0 .2.3.4.4.5-2.8 0-5.7.2-8.5 0zm8.7-2.8c.9-1 2-2 3.1-2.8-1.6-2.5-2.4-6.1-.2-8.5-.4-.5-1-1.4-1.7-1L21 31.9c-2.4 1.9-3.4 4.9-4.9 7.4H14v-1c-.2-1.1-.3-2.3-.2-3.5.6-2 1.5-4 2-6.1l.2-.7.3-1c1.6-4.4 3.6-8.8 7-11.9 2.3-2.2 5.5-2.8 8.5-3.8 3.3-.1 6.6.9 9.6 2.2l.1.1c1.3.5 1.3 2.1 1.6 3.3l.7 2.7c.5 1.4 1 2.7 2.2 3.6 1.9 1.5 3.9 3 6.3 3.6 2 .4 4.4.2 6.2-1 1.6-1.4 2.4-3.5 4-5 1.5.9 3.3 1.2 4.7 2 1.6 1 2.3 2.8 3.2 4.3l.2.4.7 1.7c-2.8 2.7-6.8 3.4-10.4 4.3-1.5.4-3-.4-4.2-1l-2 1a13 13 0 01-7.4 1.6l-2-.2 1-4-1.4.1a8.4 8.4 0 00-.9 5.6l.1 2.2c-.7-1-1.4-2-1.4-3.3 0-1.4.3-2.7.4-4-1.5-.7-2 1-2.3 2v1.8c-2.5.5-5.1.8-7.6 0-1.8-.6-3.8-.6-5.5-1.5l-.1-2.1-1.5-.3c-.7 1.7-1.6 3.5-1.5 5.5.3 1.3 1.4 2.2 2.2 3.3-1.2.3-2.8 0-3.6 1.1-.5 2.1 1.5 3.4 2.7 4.7-1.8-.8-3.8-1.7-4.4-3.7zm22.2-1.5c-3.3 0-6.6.2-9.9-.1l1-3.2 6.8-.1c1.1.8 1.6 2.2 2.1 3.4zm-11-.3c-1 0-1.8-.1-2.7-.3 1.2-.8 2-1.7 2.4-3l.4-.3c.1 1.2.7 2.6-.2 3.6zm-2.7-4l-.4 1.9c-.8.4-1.5 1-2.3 1.6-1-1.4-1.3-3-1-4.7 1.3.4 2.7.3 3.7 1.2zM25 43c0-.5-.2-1.1-.4-1.7 1.2.3 3.1-.4 3.9.6 1 .2 2 .7 3.2.7 4-1.1 8.1-.5 12.2-.5v1.4h-9c-1.6 0-3.1-1-4.7-.5-.7 0-1.5.8-2.1.1h-3zm18.9 2.6c-4.6.2-9.2 0-13.8 0h-2.8l-.8-1H30c4.7 0 9.4.1 14 .4l-.2.6zm.6-6.4a14 14 0 001.8 1.8c.8-1 2.7-2.5 3.5-.7-1.3.6-2.9 1-3.3 2.6v.2c.2 1.3.7 2.6 1 4-2.7-1.8-1.3-5.5-3-7.9zm15.4 9.5c-1.3-.6-2-1.8-3-2.7l4.5 1.9c1-.4 2.2-2.4 3-1-1.2 1.1-2.8 2.2-4.5 1.8zm7.7-3.2c-1.2.1-2.3-.6-3.6-.5-2.4.1-4.9.3-7.3-.2-2.7.6-5.5.3-8.3.5l-.1-1a30 30 0 018.4.4c2.6-.4 5.3 0 7.9-.5 1 0 3.3-.4 3 1.3zM63 43c-1.6-.2-3.3.1-4.8-.4l.4-.8c2.8-.2 5.6-.6 8.5-.4.8.1 1.4.8 2.1 1.2-2 1-4.2.7-6.2.4zm13.8 1.2c-2.2.4-4.2 1.4-6.4 1.4V44l1.1-.6.2-2c1.8 0 3.4.7 5.2.8 0 .7.2 1.5-.1 2.2z" class="st0"/><path fill="#97eb74" d="M31.4 28c.7.7 1.4 1.4 2.3 1.8 1.7.7 2.9 2.2 4.7 2.8l-.5.8c-2.4-.8-5-.2-7.4-1 1.3-.7 1.3-2.2.7-3.3l.2-1z" class="st10"/><path fill="#84cb71" d="M15.8 35.2c1.7-1.4 1.4-4.5 4-4.8l1 1.4c-2.4 1.9-3.3 4.9-4.8 7.4h-2.1l-.1-1c1-.8 1-2.2 2-3z" class="st11"/><path fill="#6cb960" d="M50.7 31.4l4 2a13 13 0 01-7.5 1.6c-.2-1-.2-2 0-3h.9l.7 2 1.9-2.6z" class="st12"/><path fill="#77c66c" d="M28.8 32.2l1.7.3c2.4.7 5 .1 7.4 1l.5-1c.7.4 1.5.6 2.3.9V35c-2.4.6-5.1 1-7.6 0l1-.7c-1.8-.5-3.9-.7-5.3-2.2z" class="st13"/><path fill="#d07b84" d="M3.9 40.2h2.7c-.1 1-1.5 1.4-1.3 2.5.2 1 .8 2 1.2 3-1.7-.1-3.5 0-5.2-.4-.1-.9-.5-2.2.4-2.8 1-.5 1.6-1.4 2.2-2.3z" class="st14"/><path fill="#fefefe" d="M71.6 41.4c1.8-.1 3.4.6 5.2.7 0 .8.2 1.6-.2 2.2-2.1.4-4.1 1.4-6.3 1.4V44l1-.7.3-2z" class="st15"/><path fill="#e1cb86" d="M24.5 41.2c1.2.3 3.1-.4 3.9.6h-.9L28 43h-3l-.5-1.8m-12.2 3c2.8-.4 5.7.2 8.5.3 0 .2.3.4.4.5-2.8 0-5.7.2-8.5 0l-.4-.8z" class="st16"/><path fill="#ddc377" d="M11.7 42.8c.6-1.7 2.8-1.4 4.3-1.5 1.3.2 3-.3 4 .8l-.5 1-7.8-.3M30 44.5c4.7 0 9.4.1 14 .5l-.2.5c-4.6.2-9.2.1-13.8 0v-1z" class="st17"/><path fill="#dcc576" d="M27.5 41.7l.9.1c1 .2 2 .7 3.2.7 4-1.1 8.1-.5 12.2-.5v1.4h-9c-1.6 0-3.1-1-4.7-.5-.7 0-1.5.8-2.1.1l-.5-1.3m-1 2.8H30v1h-2.8l-.8-1z" class="st18"/><path fill="#f5d776" d="M48.6 42.8c-.1-1 1.2-.8 1.9-1h4.6c0 .7-.3 1.1-1 1h-5.5m9.9-.9c2.8-.2 5.6-.6 8.5-.4.8.1 1.4.8 2.1 1.2-2 1-4.1.7-6.2.4-1.6-.2-3.3.1-4.8-.4l.4-.8m-10.3 2.3a30 30 0 018.4.4c2.6-.4 5.3 0 7.9-.5 1 0 3.3-.4 3 1.3-1.2.2-2.3-.6-3.6-.5-2.4.2-4.9.4-7.3-.2-2.7.6-5.5.4-8.3.5l-.1-1z" class="st19"/><path fill="#959d64" d="M46.4 43v-.2z" class="st20"/></svg>