<svg xmlns="http://www.w3.org/2000/svg" viewBox="0 0 9.5 12.4"><defs/><defs><linearGradient id="a" x1="0" x2="1" y1="0" y2="0" gradientTransform="matrix(3.08228 -10.3064 8.72379 3.56577 19.8 42.5)" gradientUnits="userSpaceOnUse"><stop offset="0" stop-color="#ff9700"/><stop offset=".5" stop-color="#f48e00"/><stop offset="1" stop-color="#d06f00"/></linearGradient></defs><g fill-rule="evenodd" stroke-linejoin="round" stroke-miterlimit="1.4" clip-rule="evenodd"><path fill="url(#a)" d="M36 26.6c0-.6-.4-.9-1-.7L1 36.7c-.5.2-.9.7-.9 1.3v11c0 .6.4 1 .9.8l34.2-10.9c.5-.1.9-.7.9-1.3z" transform="matrix(.26458 0 0 .26458 0 -.8)"/><path fill="#ff9800" d="M0 6.1l.2.4 9 2.8c.2 0 .3 0 .3-.2V6.2c0-.1 0-.3-.2-.3L.3 3C0 3 0 3 0 3.2z"/><path fill="#ff9800" d="M9.5.2c0-.1 0-.2-.2-.2L.3 3c-.2 0-.3.2-.3.3v3s.1.2.2.1l9-2.8c.2 0 .3-.2.3-.4z"/></g></svg>