<svg xmlns="http://www.w3.org/2000/svg" viewBox="0 0 283.5 283.5"><defs/><path fill="#e95420" d="M283.5 141.7a141.7 141.7 0 11-283.5 0 141.7 141.7 0 01283.5 0z"/><path fill="#fff" d="M68.2 141.7a18.2 18.2 0 11-36.5 0 18.2 18.2 0 0136.5 0zm103.7 88.6a18.2 18.2 0 1031.5-18.2 18.2 18.2 0 00-31.5 18.2zm31.5-159A18.2 18.2 0 10172 53.2a18.2 18.2 0 0031.5 18.3zm-61.7 18.5a52 52 0 0151.8 47.3l26.4-.4a78 78 0 00-23-50.5 25.6 25.6 0 01-34.6-20 78.3 78.3 0 00-55.3 5.3l12.8 23c6.7-3 14.1-4.7 22-4.7zm-52 52c0-17.6 8.8-33.2 22.2-42.6L98.3 76.6A78.4 78.4 0 0066 121.8a25.6 25.6 0 010 40 78.4 78.4 0 0032.3 45.1l13.6-22.6a52 52 0 01-22.1-42.6zm52 51.9c-7.8 0-15.2-1.7-21.9-4.8l-12.8 23a78 78 0 0055.3 5.4 25.6 25.6 0 0134.6-20 78 78 0 0023-50.6l-26.4-.4a52 52 0 01-51.8 47.4z"/></svg>