<svg xmlns="http://www.w3.org/2000/svg" viewBox="0 0 70 70"><defs/><linearGradient id="a" x1="25.1" x2="43.2" y1="1.5" y2="66.7" gradientUnits="userSpaceOnUse"><stop offset=".3" stop-color="#00cdd7"/><stop offset=".9" stop-color="#2086d7"/></linearGradient><path fill="url(#a)" d="M9.4 63.3L0 7.3 17.5.1l11.1 6.6 10.2-5.5 21.3 8.2-12 60.6z"/><linearGradient id="b" x1="30.7" x2="61.4" y1="9.7" y2="54.7" gradientUnits="userSpaceOnUse"><stop offset=".1" stop-color="#fff045"/><stop offset=".4" stop-color="#00cdd7"/></linearGradient><path fill="url(#b)" d="M70 23.7L61 1.4 44.6 0 19.3 24.3l6.8 31.3 12.7 9L70 46l-7.7-14.3z"/><linearGradient id="c" x1="61.1" x2="65.1" y1="15.3" y2="29.5" gradientUnits="userSpaceOnUse"><stop offset=".3" stop-color="#00cdd7"/><stop offset=".9" stop-color="#2086d7"/></linearGradient><path fill="url(#c)" d="M56 20.4l6.3 11.3 7.7-8-5.6-13.9z"/><g><path d="M13.4 13.4h43.2v43.2H13.4z"/><path fill="#fff" d="M17.5 48.5h16.2v2.7H17.5zM38.7 34.3l2.3-2.8a8.4 8.4 0 005.3 2.2c1.6 0 2.5-.6 2.5-1.7v-.1c0-1-.6-1.5-3.6-2.3-3.6-.9-5.8-1.9-5.8-5.5V24c0-3.3 2.6-5.4 6.2-5.4 2.6 0 4.8.8 6.6 2.3l-2 3a8.4 8.4 0 00-4.6-1.8c-1.5 0-2.3.7-2.3 1.6v.1c0 1.2.8 1.6 3.8 2.4 3.6 1 5.6 2.3 5.6 5.4v.1c0 3.6-2.7 5.6-6.5 5.6-2.7-.1-5.4-1.1-7.5-3M35.2 19l-2.7 10.4-3-10.4h-3l-3.1 10.4L20.7 19h-4.1l5.1 17.9H25l3-10.4 2.9 10.4h3.4L39.4 19z"/></g></svg>