<svg xmlns="http://www.w3.org/2000/svg" xmlns:xlink="http://www.w3.org/1999/xlink" width="100%" height="100%" fill-rule="evenodd" stroke-linejoin="round" clip-rule="evenodd" version="1.1" viewBox="0 0 180 226" xml:space="preserve">
<g id="Group" transform="matrix(1,0,0,1,5.782,-41.586)"><g transform="matrix(1,0,0,1,4,112)"><path id="Shape" fill="#fff" fill-rule="nonzero" stroke="#000" stroke-width="4.79" d="M145.932,115.67C150.717,115.687 155.312,113.799 158.701,110.422C162.091,107.045 163.996,102.457 163.996,97.672C163.998,79.399 163.998,51.162 163.998,32.839C163.998,28.065 162.102,23.487 158.726,20.111C155.35,16.735 150.772,14.839 145.998,14.839L131.16,14.839C128.951,14.839 127.16,13.048 127.16,10.839L127.16,1.409L10.13,1.409C10.13,1.409 10.388,121.948 10.425,139.622C10.428,140.985 11.125,142.254 12.275,142.987C17.487,146.005 34.196,151.737 69.279,151.737C105.104,151.737 121.118,144.063 125.703,140.598C126.614,139.842 127.141,138.72 127.141,137.536C127.16,133.711 127.16,124.848 127.16,119.612C127.16,118.537 127.593,117.507 128.361,116.755C129.129,116.002 130.168,115.591 131.243,115.613C135.644,115.675 140.917,115.684 145.932,115.67ZM127.16,35.864C127.16,34.538 127.687,33.266 128.624,32.328C129.562,31.391 130.834,30.864 132.16,30.864L144.898,30.864C146.224,30.864 147.496,31.391 148.434,32.328C149.371,33.266 149.898,34.538 149.898,35.864L149.898,94.049C149.898,95.375 149.371,96.647 148.434,97.585C147.496,98.522 146.224,99.049 144.898,99.049L132.16,99.049C130.834,99.049 129.562,98.522 128.624,97.585C127.687,96.647 127.16,95.375 127.16,94.049L127.16,35.864Z"/><path id="Path" fill="#FBB040" d="M21.667,0.249L21.667,124.235C21.667,125.666 22.431,126.988 23.67,127.702C28.731,130.114 43.413,135.871 69.154,135.871C95.066,135.871 109.312,128.876 114.082,125.993C115.221,125.259 115.909,123.996 115.909,122.642C115.92,106.201 115.92,0.249 115.92,0.249L21.667,0.249Z"/><g id="Path1"><path fill="none" stroke="#FFDB96" stroke-linecap="round" stroke-linejoin="miter" stroke-width="11.96" d="M35.521,0.249L35.521,113.065" transform="matrix(1,0,0,0.849312,0,21.0375)"/></g></g><g id="Path2"><path fill="#fff" stroke="#000" stroke-linecap="round" stroke-width="4.79" d="M43.739,73.505C46.212,68.507 51.367,65.417 57.313,65.065C64.48,64.641 68.48,69.262 68.48,68.852C68.48,57.84 77.408,48.914 88.421,48.914C99.435,48.914 108.357,57.84 108.357,68.852C108.357,68.965 112.598,63.885 119.322,64.069C127.246,64.286 133.677,70.496 133.677,78.424C133.677,82.527 129.441,89.152 129.441,89.152C131.639,87.912 134.17,87.195 136.873,87.195C140.511,87.195 143.851,88.478 146.463,90.616C149.943,93.393 152.173,97.67 152.171,102.467C152.171,110.133 146.48,116.468 139.092,117.479C137.419,117.716 135.778,118.142 134.201,118.749C129.81,120.404 125.32,121.776 120.784,122.908C120.558,125.144 119.892,127.25 118.875,129.139C117.035,132.591 116.21,136.494 116.495,140.396C116.493,140.632 116.502,141.868 116.502,142.106C116.502,147.062 112.486,150.078 107.526,150.078C102.573,150.078 98.555,146.063 98.555,141.106C98.555,139.106 97.378,136.718 95.445,135.519C94.997,135.248 94.564,134.957 94.145,134.646C91.588,132.783 89.578,130.212 88.399,127.222C62.849,128.068 39.538,123.582 27.787,120.413C24.766,119.557 21.706,118.846 18.616,118.283C15.6,117.685 12.894,116.209 10.786,114.132C7.882,111.371 6.073,107.47 6.073,103.147C6.073,94.902 12.654,88.195 20.854,87.998C14.382,82.58 21.649,69.35 32.391,68.85C37.957,68.591 43.739,73.505 43.739,73.505Z" transform="matrix(1,0,0,1,-5.782,-3.414)"/></g></g></svg>
