<?xml version="1.0" encoding="UTF-8" standalone="no"?>
<svg
   xmlns:dc="http://purl.org/dc/elements/1.1/"
   xmlns:cc="http://creativecommons.org/ns#"
   xmlns:rdf="http://www.w3.org/1999/02/22-rdf-syntax-ns#"
   xmlns:svg="http://www.w3.org/2000/svg"
   xmlns="http://www.w3.org/2000/svg"
   xmlns:sodipodi="http://sodipodi.sourceforge.net/DTD/sodipodi-0.dtd"
   xmlns:inkscape="http://www.inkscape.org/namespaces/inkscape"
   width="223.02699"
   height="223.02699"
   version="1.1"
   viewBox="0 0 223.02699 223.02699"
   xml:space="preserve"
   id="svg40"
   sodipodi:docname="homebrew.svg"
   style="clip-rule:evenodd;fill-rule:evenodd;stroke-linejoin:round"
   inkscape:version="0.92.5 (2060ec1f9f, 2020-04-08)"><metadata
   id="metadata46"><rdf:RDF><cc:Work
       rdf:about=""><dc:format>image/svg+xml</dc:format><dc:type
         rdf:resource="http://purl.org/dc/dcmitype/StillImage" /><dc:title></dc:title></cc:Work></rdf:RDF></metadata><defs
   id="defs44" /><sodipodi:namedview
   pagecolor="#ffffff"
   bordercolor="#666666"
   borderopacity="1"
   objecttolerance="10"
   gridtolerance="10"
   guidetolerance="10"
   inkscape:pageopacity="0"
   inkscape:pageshadow="2"
   inkscape:window-width="1920"
   inkscape:window-height="1009"
   id="namedview42"
   showgrid="false"
   units="px"
   inkscape:zoom="256"
   inkscape:cx="18.363187"
   inkscape:cy="-2.4384442"
   inkscape:window-x="0"
   inkscape:window-y="40"
   inkscape:window-maximized="1"
   inkscape:current-layer="svg40"
   fit-margin-top="0"
   fit-margin-left="25.13722"
   fit-margin-right="25.13722"
   fit-margin-bottom="0" />
<g
   id="Group"
   transform="translate(27.24122,-43.105006)"><g
     transform="translate(4,112)"
     id="g34"><path
       id="Shape"
       d="m 145.932,115.67 c 4.785,0.017 9.38,-1.871 12.769,-5.248 3.39,-3.377 5.295,-7.965 5.295,-12.75 0.002,-18.273 0.002,-46.51 0.002,-64.833 0,-4.774 -1.896,-9.352 -5.272,-12.728 -3.376,-3.376 -7.954,-5.272 -12.728,-5.272 H 131.16 c -2.209,0 -4,-1.791 -4,-4 V 1.409 H 10.13 c 0,0 0.258,120.539 0.295,138.213 0.003,1.363 0.7,2.632 1.85,3.365 5.212,3.018 21.921,8.75 57.004,8.75 35.825,0 51.839,-7.674 56.424,-11.139 0.911,-0.756 1.438,-1.878 1.438,-3.062 0.019,-3.825 0.019,-12.688 0.019,-17.924 0,-1.075 0.433,-2.105 1.201,-2.857 0.768,-0.753 1.807,-1.164 2.882,-1.142 4.401,0.062 9.674,0.071 14.689,0.057 z M 127.16,35.864 c 0,-1.326 0.527,-2.598 1.464,-3.536 0.938,-0.937 2.21,-1.464 3.536,-1.464 h 12.738 c 1.326,0 2.598,0.527 3.536,1.464 0.937,0.938 1.464,2.21 1.464,3.536 v 58.185 c 0,1.326 -0.527,2.598 -1.464,3.536 -0.938,0.937 -2.21,1.464 -3.536,1.464 H 132.16 c -1.326,0 -2.598,-0.527 -3.536,-1.464 -0.937,-0.938 -1.464,-2.21 -1.464,-3.536 z"
       inkscape:connector-curvature="0"
       style="fill:#ffffff;fill-rule:nonzero;stroke:#000000;stroke-width:4.78999996" /><path
       id="Path"
       d="m 21.667,0.249 v 123.986 c 0,1.431 0.764,2.753 2.003,3.467 5.061,2.412 19.743,8.169 45.484,8.169 25.912,0 40.158,-6.995 44.928,-9.878 1.139,-0.734 1.827,-1.997 1.827,-3.351 C 115.92,106.201 115.92,0.249 115.92,0.249 Z"
       inkscape:connector-curvature="0"
       style="fill:#fbb040" /><g
       id="Path1"><path
         d="M 35.521,0.249 V 113.065"
         transform="matrix(1,0,0,0.849312,0,21.0375)"
         id="path31"
         inkscape:connector-curvature="0"
         style="fill:none;stroke:#ffdb96;stroke-width:11.96000004;stroke-linecap:round;stroke-linejoin:miter" /></g></g><g
     id="Path2"><path
       d="m 43.739,73.505 c 2.473,-4.998 7.628,-8.088 13.574,-8.44 7.167,-0.424 11.167,4.197 11.167,3.787 0,-11.012 8.928,-19.938 19.941,-19.938 11.014,0 19.936,8.926 19.936,19.938 0,0.113 4.241,-4.967 10.965,-4.783 7.924,0.217 14.355,6.427 14.355,14.355 0,4.103 -4.236,10.728 -4.236,10.728 2.198,-1.24 4.729,-1.957 7.432,-1.957 3.638,0 6.978,1.283 9.59,3.421 3.48,2.777 5.71,7.054 5.708,11.851 0,7.666 -5.691,14.001 -13.079,15.012 -1.673,0.237 -3.314,0.663 -4.891,1.27 -4.391,1.655 -8.881,3.027 -13.417,4.159 -0.226,2.236 -0.892,4.342 -1.909,6.231 -1.84,3.452 -2.665,7.355 -2.38,11.257 -0.002,0.236 0.007,1.472 0.007,1.71 0,4.956 -4.016,7.972 -8.976,7.972 -4.953,0 -8.971,-4.015 -8.971,-8.972 0,-2 -1.177,-4.388 -3.11,-5.587 -0.448,-0.271 -0.881,-0.562 -1.3,-0.873 -2.557,-1.863 -4.567,-4.434 -5.746,-7.424 -25.55,0.846 -48.861,-3.64 -60.612,-6.809 -3.021,-0.856 -6.081,-1.567 -9.171,-2.13 -3.016,-0.598 -5.722,-2.074 -7.83,-4.151 -2.904,-2.761 -4.713,-6.662 -4.713,-10.985 0,-8.245 6.581,-14.952 14.781,-15.149 -6.472,-5.418 0.795,-18.648 11.537,-19.148 5.566,-0.259 11.348,4.655 11.348,4.655 z"
       transform="translate(-5.782,-3.414)"
       id="path36"
       inkscape:connector-curvature="0"
       style="fill:#ffffff;stroke:#000000;stroke-width:4.78999996;stroke-linecap:round" /></g></g></svg>