<?xml version="1.0" encoding="UTF-8" standalone="no"?>
<svg
   xmlns:dc="http://purl.org/dc/elements/1.1/"
   xmlns:cc="http://creativecommons.org/ns#"
   xmlns:rdf="http://www.w3.org/1999/02/22-rdf-syntax-ns#"
   xmlns:svg="http://www.w3.org/2000/svg"
   xmlns="http://www.w3.org/2000/svg"
   xmlns:xlink="http://www.w3.org/1999/xlink"
   xmlns:sodipodi="http://sodipodi.sourceforge.net/DTD/sodipodi-0.dtd"
   xmlns:inkscape="http://www.inkscape.org/namespaces/inkscape"
   width="1126.752"
   height="874.176"
   viewBox="0 0 696.13 540.09"
   shape-rendering="geometricPrecision"
   image-rendering="optimizeQuality"
   fill-rule="evenodd"
   version="1.1"
   id="svg102"
   sodipodi:docname="dusty-right.svg"
   inkscape:version="0.92.5 (2060ec1f9f, 2020-04-08)">
  <title
     id="title1456">Dusty</title>
  <metadata
     id="metadata106">
    <rdf:RDF>
      <cc:Work
         rdf:about="">
        <dc:format>image/svg+xml</dc:format>
        <dc:type
           rdf:resource="http://purl.org/dc/dcmitype/StillImage" />
        <dc:title>Dusty</dc:title>
        <dc:creator>
          <cc:Agent>
            <dc:title>Jenny &quot;Jennipuff&quot; Wheat</dc:title>
          </cc:Agent>
        </dc:creator>
        <cc:license
           rdf:resource="http://creativecommons.org/licenses/by-nd/4.0/" />
      </cc:Work>
      <cc:License
         rdf:about="http://creativecommons.org/licenses/by-nd/4.0/">
        <cc:permits
           rdf:resource="http://creativecommons.org/ns#Reproduction" />
        <cc:permits
           rdf:resource="http://creativecommons.org/ns#Distribution" />
        <cc:requires
           rdf:resource="http://creativecommons.org/ns#Notice" />
        <cc:requires
           rdf:resource="http://creativecommons.org/ns#Attribution" />
      </cc:License>
    </rdf:RDF>
  </metadata>
  <sodipodi:namedview
     pagecolor="#ffffff"
     bordercolor="#666666"
     borderopacity="1"
     objecttolerance="10"
     gridtolerance="10"
     guidetolerance="10"
     inkscape:pageopacity="0"
     inkscape:pageshadow="2"
     inkscape:window-width="1920"
     inkscape:window-height="1009"
     id="namedview104"
     showgrid="false"
     inkscape:zoom="0.26996851"
     inkscape:cx="563.37598"
     inkscape:cy="437.08801"
     inkscape:window-x="0"
     inkscape:window-y="40"
     inkscape:window-maximized="1"
     inkscape:current-layer="svg102" />
  <path
     d="M151.54 291.77c-12.99 21.01-60.17 20.75-38.44-11.69-25.55 0-24.16-13.75-7.42-26.19 11.25-8.37 23.87-12.97 42.95-13.06.26-.02.47-.03.62-.01l.15.15h7.77c0 .02.13-.11.13-.09h.03c1.82 7.52 1.55 14.43.78 23.1-.05 7.86.99 16.69.59 23.22-.08.11-.79.99-.79 1.01-2.08 1.58-3.68 2.28-6.36 3.57z"
     fill="#bfbab7"
     id="path55" />
  <g
     fill="#4d4039"
     id="g61">
    <use
       xlink:href="#B"
       id="use57" />
    <path
       d="M158.69 287.19c-1.88 2.62-3.61 3.67-7.15 4.58-3.82-20.27-4.54-29.6-2.29-50.97h8.08c1.82 7.52 1.54 14.5.77 23.16-.05 7.86.99 16.69.59 23.22z"
       id="path59" />
  </g>
  <path
     d="M478.68 218.15l.17.88c4.38 5.24 15.33 1.99 20.37 2.39 6.41.51-10.48 4.88-14.89 4.65-2.5-.19-5.68-1.36-2.36 1.96 1.16 1.35 2.53 2.98 4.68 3.87l15.83 7.35c3.82 2.62-7.46.27-7.33 1.09 1.76 4.22 3.63 7.59 5.38 12.02 1.48 3.73 3.43 9.08 4.41 13.22 13.07-17.36 25.78-34.45 49.07-34.56 61.5-.28 1.87 88.16-41.95 88.48-8.65.06-19.7-3.53-19.7-3.53s-.38.07 0 0c-3.16-.27-.7 3.39 2.36 14.87 1.2 4.51-2.39 4.99-6.14 6.53-4.82 1.98-9.48 3.61-14.26 5.82-5.57 2.58-11.44 4.43-17.58 4.84-1.75.12-2.74.46-4.76.46-2.99 0-2.87 1.35-4.78-1.24-.14-.19-.27-.36-.37-.52l-.36.1c-54.46 14.63-138.75 4.49-193.94-1.15-5.08 16.13-21.47 25.8-37.45 30.2-13.27 3.65-30.99 2.01-42.27-6.56-14.2-12.29-7.65-32.21 4.94-41.94l.07-.81-.08.03c-5.9-1.99-15.69-21.93-17.59-27.39-4.62-13.28-3.31-44.92-2.87-58.48.34-10.54 5.88-26.54 5.02-28.61-.68-1.64-.68-2.28-4.6-3.45-7.1-2.11-13.99-1.68-21.22-.88-10.72 1.18-5.94.72-5.5 7.04.79 11.38-20.39 20.38-30.74 16.4-12.77-4.92 1.19-15.4 3.9-19.1-6.5 0-18.6 3.29-24.49 5.04-7.82 2.32-15.35 5.72-22.93 7.48 7.4-11.04 39.93-19.56 50.97-19.71 10.11-.14 5.94 1.6 14.9-1.17 14.02-4.33 30.49-6.46 43.28 2.1 1.11-1.86 3.52-8.63 7.05-14.24 4.31-6.83 22.53-20.79 28.96-23.03 6.85-2.38 11.18.32 17.32-2.82 12.84-6.56 13.34-11.84 28.08-16.45 26.43-8.27 13.91-2.68 50.25-13.45 7.74-6.66 37.3-16.95 40.3-21.38 2.6 2.78 12.37 9.34 15.94 11.78 17.67-9.34 22.57-9.84 45.63-9.84 5.24-9.9 15.44-25.96 26.84-28.61-1.43 6.13-14.54 23.16-18.79 29.51 2.86.67 6.18 1.05 8.98 1.76 16.49 4.17 30.55 14.24 39.84 16.52 19.23 4.73 37.08 29.61 44.84 46.39 6.06 13.09 6.94 26.54-10.45 14.91 1.33 5.72 2.35 14.41-3.42 16.09-3.18 2.06-4.77 4.06-8.57 5.12zm-265.56 150.8c-.2.05-.39.1-.59.14l.59-.14zm-1.81.43l-.67.15c.22-.05.45-.09.67-.15zm-1.76.37l-.72.14a18.27 18.27 0 0 0 .72-.14zm-1.74.32l-.71.12c.24-.04.47-.07.71-.12zm-1.7.26l-.7.09.7-.09zm-1.67.21a15.66 15.66 0 0 1-.68.07l.68-.07zm-1.63.16l-.66.05c.22-.01.44-.03.66-.05zm-1.63.11l-.6.03.6-.03zm-1.68.06c-.15 0-.3.01-.45.01.15 0 .3-.01.45-.01zm-3.4-.07c-.16-.01-.31-.02-.46-.04.15.01.31.03.46.04zm-1.41-.11l-.54-.06.54.06zm-1.38-.16c-.19-.02-.37-.05-.56-.08.19.03.37.06.56.08zm-1.33-.2c-.19-.03-.38-.07-.57-.1.19.04.38.07.57.1zm-1.31-.25l-.55-.12.55.12zm-1.26-.29c-.18-.04-.36-.09-.53-.14l.53.14zm-1.23-.33l-.51-.15.51.15zm-1.2-.38c-.16-.05-.32-.11-.48-.16.16.06.32.11.48.16zm-1.21-.44l-.38-.15.38.15zm-1.45-.61c-.07-.03-.13-.06-.2-.1.07.03.13.07.2.1zm-1.03-.5l-.39-.21.39.21zm-.99-.54c-.14-.08-.28-.16-.41-.25.14.08.27.17.41.25zm-.95-.57l-.42-.27c.14.09.27.18.42.27zm-.9-.61l-.42-.3.42.3zm-.86-.64l-.4-.32a11.2 11.2 0 0 0 .4.32zm-.82-.67l-.39-.34c.13.11.26.23.39.34zm-.77-.7l-.38-.36a13.28 13.28 0 0 0 .38.36zm-.72-.72c-.12-.13-.25-.26-.36-.39l.36.39zm-.68-.75c-.12-.14-.24-.27-.35-.41.11.14.23.27.35.41zm-.6-.74c-.23-.29-.44-.59-.65-.89.21.3.43.6.65.89zm-.9-1.26c-.11-.16-.2-.32-.3-.49l.3.49zm-.52-.84c-.1-.17-.19-.34-.28-.51.09.17.18.34.28.51zm-.48-.87c-.09-.17-.17-.34-.25-.52l.25.52zm-.43-.89c-.08-.18-.16-.35-.23-.53a8.46 8.46 0 0 0 .23.53zm-.38-.91l-.21-.55.21.55zm-.34-.93l-.19-.58c.06.2.12.39.19.58zm-.29-.94c-.06-.2-.11-.41-.17-.62.05.21.11.41.17.62zm-.24-.94l-.15-.67c.04.23.09.45.15.67zm-.18-.86c-.21-1.16-.33-2.36-.34-3.58.01 1.22.13 2.42.34 3.58zm-.35-3.8l.01-.78c-.01.26-.01.52-.01.78zm.02-1.05c.01-.26.03-.51.05-.77l-.05.77zm.07-1.06c.02-.26.05-.51.08-.77l-.08.77zm.12-1.07c.03-.26.07-.51.12-.77l-.12.77zm.17-1.08l.15-.79a10.02 10.02 0 0 0-.15.79zm.21-1.06c.06-.28.13-.55.2-.83l-.2.83zm.25-1.02c.45-1.7 1.07-3.42 1.88-5.15-.81 1.73-1.44 3.45-1.88 5.15zm1.94-5.27a24.53 24.53 0 0 1 .44-.89l-.44.89zm.56-1.14l.46-.84c-.16.28-.31.56-.46.84zm.62-1.13l.48-.82-.48.82zm.66-1.13l.52-.82c-.18.27-.35.55-.52.82zm.71-1.12a20.76 20.76 0 0 1 .57-.84l-.57.84zm.75-1.09l.64-.88c-.22.29-.43.58-.64.88zm.77-1.05l.73-.95h0c-.25.31-.49.63-.73.95zm-54.92-116.24c-7.89-4.17-17.64 2.6-21.47 9.84 10.13 0 17.1-1.51 21.47-9.84z"
     fill="#bfbab7"
     id="path63" />
  <path
     d="M504.69 266.02c11.08-19.16 26.11-38.33 49.94-37.82 65.09 1.39 4.61 94.4-42.81 92.91-8.64-.27-20-4.91-20-4.91s.27-.25.91-.26c4.86-.04 25.95-.09 30.35-2.12 5.96-2.75 14.95-6.97 23.18-13.5 56.12-44.51 22.53-89.26-23.85-51.61-7.62 6.19-16.26 16.54-17.55 17.38-.14.09-.21.06-.17-.08z"
     fill="#4d4039"
     id="path65" />
  <path
     d="M460.25 411.34l-.06.17h0l.06-.17zm-32.21 59.2c-3.44-1.4-3.47-2.22-7.51-5.01l-7.32-5.21c-5.41-3.89-9.9-6.04-11.53-13.93 1.21-2.79-8.96-5.56-4.6-7.07 1.38-.48.42-3.27 1.59-3.68-1.93-2.48 7.74 1.02 8.88-2.31 2.59-7.57 8.95-11.71 15.64-15.41 2.66-1.48 8.06-12 15.52-15.13 1-2.53 9.97-1.18 10.87-3.77 4.15 2.93 7.52 8.27 10.67 12.33 1.24.99 2.08 1.49 2.63 2.68 2.28 1.85 2.22 1.88 4.37 3.96 12.36 12.03 14.47 10.34 33.11 9.24 8.53-.46 14.91-2.05 19.98-3.95l.01-.07c3.04-1.99 10.03-4.65 14.35-7.2 2.06-1.27 2.74-2.4 5.07-1.56 3.83 1.39 3.31 14.16 2.32 17.96-3.53 13.53-25.33 32.36-38.09 37.13-5.24 1.96-16.39 7.06-20.47 8.15 1.29 1.92 8.95 8.23 11.63 8.94-1.01 3.76-15.04 15.86-18.79 21.46-6.6-3.16-35.47-6.06-34.05-10.33a17.16 17.16 0 0 0-.83-1.6c-1.1-1.85-3.59-4.15-4.49-5.95-1.54-3.09-4.52-8.15-5.37-11.46-1.28-2.07-3.73-5.91-3.58-8.21zm43.59 6.25c.1.12.19.24.29.36-.09-.12-.19-.24-.29-.36zm1.44 2.11c.02.05.04.09.06.13-.02-.04-.04-.09-.06-.13zm.06.13a5.92 5.92 0 0 1-.25.12 5.92 5.92 0 0 1 .25-.12zm-4.11 2.53c-.18.13-.37.26-.55.4l.55-.4zm5.56-22.44l.41-.42-.41.42zm.6-.62c.13-.14.26-.27.38-.41-.13.14-.25.28-.38.41zm.58-.63a13.92 13.92 0 0 0 .37-.42l-.37.42zm.55-.63l.38-.45-.38.45zm.44-.53c.3-.36.59-.74.87-1.11-.28.38-.57.75-.87 1.11zm.92-1.18l.35-.48a14.56 14.56 0 0 1-.35.48zm.5-.7c.11-.15.21-.31.32-.46a7.52 7.52 0 0 1-.32.46zm.47-.7c.1-.16.21-.32.31-.48-.1.16-.2.32-.31.48zm.44-.69c.1-.17.21-.33.31-.5a8.38 8.38 0 0 1-.31.5zm.36-.58a41.25 41.25 0 0 0 .64-1.13 25.18 25.18 0 0 1-.64 1.13zm.73-1.3c.09-.16.17-.33.25-.49l-.25.49zm.38-.75l.23-.47c-.07.16-.15.32-.23.47zm.36-.76l.21-.45-.21.45zm.34-.76l.2-.47c-.06.16-.13.31-.2.47zm.29-.7c.12-.3.23-.6.34-.9l-.34.9zm.45-1.23l.15-.45-.15.45zm.25-.78c.04-.14.09-.28.13-.43-.04.14-.08.28-.13.43zm.23-.8c.04-.14.07-.27.11-.41-.03.13-.07.27-.11.41zm.2-.79l.09-.39-.09.39zm.22-1.04a6.13 6.13 0 0 0 .07-.42c-.02.14-.05.28-.07.42zm.15-.85c.02-.13.04-.26.05-.39-.02.13-.03.26-.05.39zm.1-.78c.01-.13.03-.26.04-.39-.01.13-.02.26-.04.39zm.07-.78c.01-.12.02-.24.02-.37-.01.12-.02.24-.02.37zm.04-.79c0-.11.01-.22.01-.34 0 .11-.01.22-.01.34zm.01-1.05c0-.1-.01-.2-.01-.3 0 .1.01.2.01.3zm-.04-.75l-.03-.32.03.32zm-.07-.74c-.01-.11-.03-.22-.04-.32.01.11.03.21.04.32zm-.1-.75c-.02-.1-.03-.2-.05-.3.02.1.03.2.05.3zm-.15-.79c-.02-.07-.03-.15-.05-.22.02.07.03.15.05.22zm-.23-.91c-.02-.07-.04-.14-.07-.21.02.07.05.14.07.21zm-.22-.69l-.09-.26.09.26zm-.26-.68c-.04-.09-.07-.17-.11-.26.04.09.07.17.11.26zm-.3-.67a5.92 5.92 0 0 1-.12-.25 5.92 5.92 0 0 1 .12.25zm-.38-.73c-.03-.05-.05-.09-.08-.14.03.05.05.09.08.14zm-.46-.75c-.04-.05-.08-.11-.11-.16.04.05.08.11.11.16zm-.42-.59c-.05-.07-.11-.14-.16-.21.05.07.11.14.16.21zm-.46-.58l-.18-.21.18.21zm-.52-.57l-.18-.18.18.18zm-.63-.61a.9.9 0 0 0-.1-.09.9.9 0 0 0 .1.09zm-.69-.58c-.06-.04-.12-.09-.18-.13.06.04.12.09.18.13zm-.64-.47c-.08-.05-.16-.11-.23-.16.08.05.16.1.23.16zm-.69-.45a3.65 3.65 0 0 1-.26-.16 3.65 3.65 0 0 1 .26.16zm-.76-.43c-.08-.04-.15-.08-.23-.13.08.04.16.08.23.13zm-1.84-.84c-.08-.03-.17-.06-.26-.1.09.03.17.06.26.1zm-.87-.31c-.11-.04-.22-.07-.33-.11.11.03.22.07.33.11zm-.93-.28c-.12-.03-.23-.07-.35-.1.12.03.24.06.35.1zm-1-.26c-.11-.03-.22-.05-.33-.08.11.02.22.05.33.08zm-2.42-.44c-.11-.01-.23-.03-.34-.04.11.01.23.03.34.04zm-1.13-.13c-.14-.01-.28-.02-.42-.04.14.01.28.02.42.04zm-1.18-.09a6.77 6.77 0 0 0-.45-.02c.15.01.3.01.45.02zm-1.29-.05c-.13 0-.26-.01-.4-.01.13 0 .26.01.4.01z"
     fill="#826552"
     id="path67" />
  <path
     d="M405.49 443.52c-6.74 2.35-11.42 3.5-19.54 4.62-5.21.72-13.43 1.68-18.73 1.87-12.77.45-24.42-3.39-32.01-8.09v-.01a7.84 7.84 0 0 1-1.07-.23c-.2-.06-14.74.08-17.08-.21-7.12-.89-7.43-1.71-13.53-3.68-.47-.15-5.99-.53-6.87-1.16-.78-.55-10.2-1.92-11.33-1.97-10.73-.52-19.42 7.98-19.55 7.97a16.78 16.78 0 0 0-1.24-.05l.01.24c-6.2 2.56-11.34-1.17-15.25-3.58-16.6-6.52-37.4-27.82-40.13-32.35 5.27-7.99 9.55-10.49 14.68-22.35 5.4-12.47.38-33.78-2.64-44.17 19.73 1.69 84.3 4.46 105.16 5.7 42.59 2.54 73.35 3.17 114.44-5.93 18.96-4.2 56.1-52.07 55.23 9.19-1.04 10.08-6.47 17.77-12.53 23.74 5.82 3.89 7.35 5.23 10.74 11.62-4.88-1.14-10.5-5.5-14.32-8.05-13.09 10.18-12.46 9.44-29.53 13.41 0 26.57-21.51 45.31-44.92 53.46z"
     fill="#bfbab7"
     id="path69" />
  <use
     xlink:href="#B"
     fill="#4d4039"
     id="use71" />
  <path
     d="M296.46 516.85l-.21-.16.21.16zm-42-18.87l4.54-13.19c1.25-2.14-.64.09 1.41-1.74-.51-2.69 1.01-8.37 3-10.27.34-4.89.9-8.52.9-14.76-.01-5.04-.29-10.22.25-15.2-.24-7.43-2.77-21.4 1.78-25.68 5.94-3.48 14.72-9.59 21.93-5.59.99.89 1.08.65 1.97 2.51 10.62 1.06 22.08 2.86 30.31 7.45 3.67 2.05 8.87 5.78 10.95 7.81 4.09 4 4.94 5.24 3.71 12.61-.3 3.17-.53 3.89-1.1 6.29l-1.54 5.66c-.05.15-.15.45-.27.65-.47 3.66-.36 2.55-.89 5.29-1.36 23.16-2.39 16 11.37 32.45 4.95 5.92 10 12.45 16.94 16.15l3.48 1.86 3.99 2.65c.89-.07 17.01 1.9 17.89 2.33.79.79 3.44 15.31-11.43 18.97-16.13 3.97-55.45 11.37-67.54-.86-2.53-2.55-4.97-7.09-7.82-9.17 0 8.28 5.71 11.15-10.71 11.65-5.99.18-16.51.7-19.48-4.73l-13.76-28.39c-1.03-2.67-1.48-1.75.11-4.74zm20.13-1.89l1.7 12.91-1.7-12.91h0zm21.24 20.29a3.19 3.19 0 0 0-.23-.16c.08.05.15.11.23.16zm-.61-.44c-.08-.06-.17-.11-.25-.17.08.06.17.11.25.17zm-.6-.41c-.08-.06-.17-.11-.25-.16l.25.16zm-.58-.37c-.08-.05-.17-.1-.25-.15.08.05.16.1.25.15zm-1.14-.67c-.08-.05-.16-.09-.24-.13.08.04.16.09.24.13zm39.31-59.97h0 .07l-.07-.01zm-43.96-42.96a3.55 3.55 0 0 0-.44.35c.15-.12.29-.24.44-.35z"
     fill="#826552"
     id="path73" />
  <path
     d="M463.25 415.1l.68 10.47c30.15-.64 20.39 31.77 2.32 39.22 1.8 4.06 7.22 7.97 11 10.59 6.68-3.37 12.43-7.25 19.54-10.33 11.33-4.9 20.4-9.29 28.13-17.17-2.72-6.07-5.19-17.16-4.58-24.68 3.04-1.99 10.03-4.65 14.35-7.2 2.06-1.27 2.74-2.4 5.07-1.56 3.83 1.39 3.31 14.16 2.32 17.96-3.53 13.53-25.33 32.36-38.09 37.13-5.24 1.96-16.39 7.06-20.47 8.15 1.29 1.92 8.95 8.23 11.63 8.94-1.01 3.76-15.04 15.86-18.79 21.46-6.6-3.16-35.47-6.06-34.05-10.33 0 0 3.81-.33 4.85-.89 12.02-6.5 20.46-15.28 25.97-17.84-1.4-3.17-8.74-9.48-11.98-11.2-7.25 3.62-20.52 9.82-29.53 10.92-1.28-2.07-3.73-5.91-3.58-8.21 1.47-1.79 19.53-7.69 23.87-12.41-5.43-5.82-11.64-9.66-16.71-16.48-5.06-.32-12.62-2.34-9.07-3.41 1.56-.47 6.35 1.15 8.63-2.13 2.12-3.06-.68-6.06-1.74-8.7a65.12 65.12 0 0 0 3.02-2.97c1.93 3.12 2.94 11.79 2.74 15.67 5.42 4.4 11.28 11.57 17.9 15.38 12.39-8.2 26.84-21.16 4.88-25.88-4.5-.97-2.5-14.9-1.3-18.27 1.56 1.25 2.49 1.71 2.99 3.76zm-14.86-174.53c27.26 9.62 16.39 63.05-10.59 53.88-10.98-3.73-17.52-18.33-15.08-33.09 1.93-11.65 11.53-25.78 25.66-20.8zm-109.88 8.85c26.41 8.81 17.14 62.03-10.05 54.14-10.64-3.08-17.87-17.6-15.79-32.41 1.73-12.29 11.48-26.52 25.84-21.73z"
     fill="#4d4039"
     id="path75" />
  <path
     d="M338.51 249.42c-14.36-4.79-24.11 9.44-25.84 21.73-2.08 14.81 5.15 29.33 15.79 32.41 27.2 7.89 36.46-45.33 10.05-54.14zm-2.65-35.4c6.64.81 18.04 15.35 21.94 21.8 18.49 30.57 4.16 73.57-29.52 88.52-34.73 15.42-73.12 2.14-89.83-31.86-4.63-9.42-7.99-26.61-4.1-38.03l15.53-23.64c15.53-20.32 46.18-29.3 71.54-21.23 4.12 1.31 10.26 4.48 14.44 4.43zm112.53 26.55c-14.13-4.99-23.73 9.15-25.66 20.8-2.44 14.75 4.09 29.35 15.08 33.09 26.97 9.17 37.85-44.26 10.59-53.88zm33.28-6.34c1.92 12.53 3.95 18.81.82 32.25-2.17 9.34-7.56 19.36-12.42 24.32-6.25 6.37-10.95 11.18-22.09 14.58-28.94 8.85-57.26-13.13-61.33-45.69-2.43-19.43 6.65-44.39 20.05-51.75l1.9.1c14.19-6.27 25.54-15.1 44.63-6.8 10.81 4.7 18.31 14.9 23.49 24.24 1.87 3.37 3.13 6.49 4.96 8.75z"
     fill="#fff"
     id="path77" />
  <path
     d="M194.52 406.16c-3.84 2.03-7.72 4.34-13.42 4.47 3.15-4.7 6.59-6.28 11.63-8.94-.5-2.13-.94-4.5-1.79-6.26h-30.42c1.27-4.77 6.16-5.71 11.61-6.28 6.09-.64 10.71-.87 17.92-.87-.31-3.71-.89-5.03-.89-10.06 9.81 1.49 18.25 1.87 27.66-.72 9.01-2.48 14.54-7.28 20.74-9.57 7.47 8.69 6.34 29.84-.55 37.77-4.05 4.66-7.95 7.99-13.59 11.45-9.34 11.55-19.59 13.42-28.88-10.98z"
     fill="#bfbab7"
     id="path79" />
  <path
     d="M228.52 449.97h0zm-49.28-123c.6.9-1.15 2.58-1.74 3.35-.45.59-1.13 1.31-1.63 1.91-.83.98-1.6 1.7-2.36 2.79-.8 1.14-1.24 1.57-1.99 2.86-.46.8-1.44 2.6-2.47 2.61-.91.01-.48 1.38-1.3.96-1.66 3.43-3.25 5.83-3.51 10.9-19.53 4.28-81.32 31.66-54.96 54.93 27.07 23.88 98.68 31.8 127.7-1.59 6.89-7.93 6.45-30.24-1.01-38.93 6.16-7.1 11.84-9.56 15.54-21.31 55.19 5.64 140.48 16.01 194.94 1.38 66.15-17.78 100.75-52.6 82.87-121.49-10.34-39.87-22.67-62.94-48.79-95.2-9.1-11.24-25.9-28.46-32.25-40.21-7.06-13.06 3.65-23.56 26.26-23.56-5.12-6.99-14.79-3.04-23.64-1.27l-78.36 15.57-121.89 18.79-8.71-10c-1.26-1.15 8.99-3.23 8.05-4.24 31.82-4.56 64.51-8.93 96.09-14.9l79.77-15.96c40.98-9.02-257.04-80.16-403.4-10.61-76.02 38.36 196.69 48.08 205.89 43.72-1.57 9.69-7.9 2.99-20.49 15.77-55.97 1.41-159.71 2.36-201.48-35.74-10.4-9.49-8.17-25.62 7.2-35.3C35.06 18.66 105.2 6.45 129.33 3.93c96.11-7.49 164.34-5.76 260.04 17.91 15.11 3.74 76.86 25.17 82.45 24.9 16.53-.78 34.19-3.73 51.03-3.63 43.61.25 68.67-.94 112.41 13.76 12.39 4.16 73.29 23.42 58.56 43.54-5.72 7.81-18.89 9.01-26.01 10.67 0 16.44-30.63 8.98-45.76 7.28-50.77-5.69-72.1-5.48-120.63-29.66-5.75-2.87-19.42-3.55-26.87-3.55 10.79 16.11 23.29 30.32 34.61 49.46 30.29 51.22 83.3 147.19 22.66 193.75-25.26 19.39-56.31 29.5-87.09 36.32-41.09 9.11-79.5 14.19-122.09 11.65-20.86-1.25-40.33-5.25-60.06-6.94 3.03 10.39 10.36 23.04 4.96 35.52-5.13 11.85-12.19 16.44-19.93 23.58 2.74 4.53 2.69 4.99 1.67 10.73-2.24 12.26-18.06 35.51-29.72 43.83-21.53 15.35-41.4 16.09-64.82 33.58-5.06 3.78-9.45 6.93-14.11 10.93-8.77 7.53-13.45-1.35-12.94-4.87 2.73-18.74 73.8-41.81 90.29-58.21 3.15-3.14 9.34-10.14 10.51-14.53-4.35 1.16-13.58 10.18-38.85 15.72-31.85 6.99-89.15 11.3-99.62-29.35-2.56-9.94-5.17-3.88-13.14-14.59-10.94-14.69-14.55-36.98-1.18-50.26 15.31-15.22-5.87-7.99 32.24-35.73 12-8.74 64.72-18.61 71.27-8.79zm-33.93 128.37c12.9 0 49.9-1.11 59.95-9.84-10.53 0-31.82 3.58-51.89 3.58-18.77 0-28.16.29-45.63-8.94 2.45 9.17 24.8 15.2 37.58 15.2zm-57.26-44.71c0-7.49 2.06-5.23-1.16-11.33-1.51-2.86-3.47-7-4.2-10.13-5.28 2.96 3.08 17.24 5.37 21.46zM635.62 94.11c1.32 0 2.65-3.31 5.75-4.15 7.11.51 23.7-1.05 25.57 5.94 36.94 0-26.96-28.77-72.27-37.42s-66.16-4.16-90.2-.65c-34.4 5.03 16.99 8.54 23.41 9.83 35.1 7.07 70.08 26.46 107.74 26.46z"
     fill="#a98d6f"
     id="path81" />
  <path
     d="M484.41 226.5c1.8 1.35 1.6 1.12 2.68 4.5-3.02-1.25-3.76-3.07-5.88-5.12l3.2.62z"
     fill="#b3adaa"
     id="path83" />
  <g
     fill="#4d4039"
     id="g89">
    <path
       d="M335.87 214.03c-4.18.05-10.32-3.12-14.44-4.43-25.36-8.07-56.01.9-71.54 21.23l-15.53 23.64c-2.91 1.77-12.79 10.18-19.64 6.85-2.27-1.1 16.51-7.11 18.89-16.64-8.67 1.82-17.45-1.91-17.98-9.65-.24-3.54 8.07 8.78 20.7 2.86-4.05-2.9-11.24-2.88-10.28-11.22.52-4.54 3.75 4.41 12.3 5.44 13.19-17.04 19.4-25.26 41.57-31.2 21.01-5.63 57.09-.84 55.93 13.12zm151.38-1c-2.27 2.89-4.2 4.43-8.21 5.36 4.17 5.69 16.39 1.89 21.47 2.68 6.67 1.04-11.4 6.36-16.11 5.43l-3.2-.62c2.13 2.05 2.86 3.88 5.88 5.12l16.05 8.01c6.56 3.86-6.97 1.5-7.99 1.33-7.24-1.77-15.77-6.43-19.51-13.17-5.18-9.34-11.6-15.83-22.41-20.53-19.09-8.3-30.67-3.41-44.86 2.86l-1.06-.99-.61-.58c6.04-13.07 26.5-15.15 42.88-10.15 7.8 2.38 14.1 6.25 19.15 10.37 2.73 2.23 4.15 5.99 8.29 5.58 5.07-.5 11.31-8.98 10.25-.72zM361.22 315.51c-2.66 1.13-4.32 1.83-7.7 2.07l7.42-7.99c3.42 4.56-1.24 3.36 7.65 5.77 4.23 1.14 7.55 2.05 12.01 2.34 4.4.29 8.81-.05 12.67-1.7 7.09-3.03 8.16-9.12 9.05-6.05 4.7 16.22-32.39 18.43-41.1 5.56zM252.05 86.62l12.26 11.04c3.31 2.26 7.52 6.18 10.85 8.84 3.88 3.09 7.63 6.27 12.02 9.13-4.18 2.82-13.34 1.7-19.83 3.03-12.07 2.46-36.12 11.93-41.54 22.63 81.74 3.2 62.41-26.78 92.74-43.94 9.17-5.18 18.61-3.94 21.36 8.88 1.93 9-5.69 21.67-12.1 27.18-23.51 20.23-38.18 15.68-64.61 23.95-22.32 6.98-40.09 19.83-60.69 26.99-18.32 6.37-17.21 1.61-22.31-1.76-8.72-12.85-20.01-41.04-2.33-47.92 4.43-1.72 7.53-.88 12.17-.36l24.16 4.48c-4.68-6.98-13.56-14.37-15.77-24.5-2-9.18 4.38-16.4 12.19-20.2 4.33-2.11 10.34-4.11 14.64-6.26 5.13-2.08 3.47-7.1 11.29-7.25 4.17-.08 12.33 3.15 15.49 6.02z"
       id="path85" />
    <path
       d="M287.16 115.65c-4.19 2.8-13.33 1.69-19.8 3.01-12.07 2.46-36.12 11.93-41.54 22.63 5.41-10.7 25.88-23.18 37.95-25.64 6.49-1.32 17.59 1.7 21.77-1.12.25.18.82.57 1.62 1.12zm-61.34 25.64c48.38 1.9 61.35-7.84 70.17-19.65 5.82 3.95 11.91 8.11 12.11 8.48 2.41 4.29-26.76 11.51-29.47 12.37-11.87 3.77-23.82 2.81-36.19 3.77-4.4.34-13.62.54-17.85-1.41-2.1-.97-1-2.33.52-3.23-.51-.02 1.21-.31.7-.33zm26.71 204.4c-5.08 16.13-19.74 27.41-35.72 31.81-13.27 3.65-34.7 1.88-45.97-6.68-4.92-3.73-7.94-9.86-7.51-18.31.81-15.85 9.32-23.84 22.81-29.26-28.16 24.37-12.42 56.77 28.82 45.2 14.02-3.94 24.42-11.67 28.73-24.06 8-22.95-19.5-24.27-23.48-27.77 14.04-4.11 38.41 6.87 32.32 29.06zm37.71 68.37c-.04 5.95-1.05 11.43-.94 18.03.09 5.65 1.31 13.86-1.82 17.8-2.63 3.31-2.8.49-4.3 5.42-1.74 5.73-3.77 20.26-3.44 25.71 15.09 5.44 45.15 15.8 30.06-9.59 4.19-4.08 17.76-17.36 22.51-16.9-.47 3.66-.36 2.55-.89 5.29-7.11 4.28-9.72 8.89-14.57 11.35 4.67 8.65 13.36 21.9-2.9 27.55-11.8 4.1-25.19-1.74-35.29-4.83-.67 25.86 4.54 12.12 18.44 23.47 6.3 5.14 4.93 7.52 13.59 11.48 14.78 6.75 25.25 6.67 42.2 3.85l1.21-2.82c1.68-5.33 4.92-15.86 13.1-16.94.89-.07 17.01 1.9 17.89 2.33.79.79 3.44 15.31-11.43 18.97-16.13 3.97-55.45 11.37-67.54-.86-2.53-2.55-4.97-7.09-7.82-9.17 0 8.28 5.71 11.15-10.71 11.65-5.99.18-16.51.7-19.48-4.73l-13.76-28.39c-1.03-2.67-1.48-1.75.11-4.74 6.74 3.67 12.03 8.93 21.83 11.02l-2.29-17.4c-3.18-1.32-12.37-5.74-13.6-8.54-.51-2.69 1.01-8.37 3-10.27l11.56 6.15 4.13-25.78c-3.92-.87-4.9-2.09-5.41-6.31 21.56 15.02 1.45-25.92 14.58-35.27.99.89 1.08.65 1.97 2.51z"
       id="path87" />
  </g>
  <g
     fill="#fff"
     id="g95">
    <ellipse
       cx="341.96"
       cy="268.23"
       rx="4.63"
       ry="7.27"
       id="ellipse91" />
    <ellipse
       cx="452.55"
       cy="258.27"
       rx="4.48"
       ry="7.03"
       id="ellipse93" />
  </g>
  <path
     d="M267.37 118.64c6.48-1.32 15.61-.21 19.8-3.01l8.83 5.99c-8.82 11.82-21.79 21.55-70.18 19.65 5.41-10.7 29.47-20.17 41.54-22.63z"
     fill="#826552"
     id="path97" />
  <defs
     id="defs100">
    <path
       id="B"
       d="M308.1 130.11c2.41 4.29-26.76 11.51-29.47 12.37-11.87 3.77-23.82 2.81-36.19 3.77-4.4.34-13.62.54-17.85-1.41-2.1-.97-1-2.33.52-3.23-.51-.02 1.21-.31.7-.33 5.41-10.7 25.88-23.18 37.95-25.64 6.49-1.32 17.59 1.7 21.77-1.12 1.87 1.36 22.19 14.91 22.57 15.59z" />
  </defs>
</svg>
