<?xml version="1.0" encoding="UTF-8" standalone="no"?>
<svg
   xmlns:dc="http://purl.org/dc/elements/1.1/"
   xmlns:cc="http://creativecommons.org/ns#"
   xmlns:rdf="http://www.w3.org/1999/02/22-rdf-syntax-ns#"
   xmlns:svg="http://www.w3.org/2000/svg"
   xmlns="http://www.w3.org/2000/svg"
   xmlns:xlink="http://www.w3.org/1999/xlink"
   xmlns:sodipodi="http://sodipodi.sourceforge.net/DTD/sodipodi-0.dtd"
   xmlns:inkscape="http://www.inkscape.org/namespaces/inkscape"
   width="1126.7456"
   height="1126.7456"
   viewBox="0 0 792.04554 792.06898"
   version="1.1"
   id="svg49"
   sodipodi:docname="dusty-left.svg"
   inkscape:version="0.92.5 (2060ec1f9f, 2020-04-08)"
   style="fill-rule:evenodd;image-rendering:optimizeQuality;shape-rendering:geometricPrecision">
  <title
     id="title1458">Dusty</title>
  <metadata
     id="metadata53">
    <rdf:RDF>
      <cc:Work
         rdf:about="">
        <dc:format>image/svg+xml</dc:format>
        <dc:type
           rdf:resource="http://purl.org/dc/dcmitype/StillImage" />
        <dc:title>Dusty</dc:title>
        <dc:creator>
          <cc:Agent>
            <dc:title>Jenny &quot;Jennipuff&quot; Wheat</dc:title>
          </cc:Agent>
        </dc:creator>
        <cc:license
           rdf:resource="http://creativecommons.org/licenses/by-nd/4.0/" />
      </cc:Work>
      <cc:License
         rdf:about="http://creativecommons.org/licenses/by-nd/4.0/">
        <cc:permits
           rdf:resource="http://creativecommons.org/ns#Reproduction" />
        <cc:permits
           rdf:resource="http://creativecommons.org/ns#Distribution" />
        <cc:requires
           rdf:resource="http://creativecommons.org/ns#Notice" />
        <cc:requires
           rdf:resource="http://creativecommons.org/ns#Attribution" />
      </cc:License>
    </rdf:RDF>
  </metadata>
  <sodipodi:namedview
     pagecolor="#ffffff"
     bordercolor="#666666"
     borderopacity="1"
     objecttolerance="10"
     gridtolerance="10"
     guidetolerance="10"
     inkscape:pageopacity="0"
     inkscape:pageshadow="2"
     inkscape:window-width="1920"
     inkscape:window-height="1049"
     id="namedview51"
     showgrid="false"
     inkscape:zoom="0.26996851"
     inkscape:cx="559.66575"
     inkscape:cy="563.38171"
     inkscape:window-x="0"
     inkscape:window-y="0"
     inkscape:window-maximized="1"
     inkscape:current-layer="svg49"
     fit-margin-top="126.28796"
     fit-margin-bottom="126.28796"
     fit-margin-left="0"
     fit-margin-right="0" />
  <path
     d="m 619.62576,420.75355 c 14.78,23.9 68.47,23.61 43.73,-13.3 29.07,0 27.49,-15.64 8.45,-29.8 -12.81,-9.52 -27.16,-14.76 -48.87,-14.86 -0.3,-0.02 -0.54,-0.03 -0.7,-0.02 l -0.17,0.17 h -8.84 c 0,0.02 -0.15,-0.13 -0.15,-0.11 h -0.03 c -2.07,8.55 -1.76,16.42 -0.89,26.28 0.05,8.94 -1.13,18.99 -0.67,26.42 0.09,0.12 0.9,1.12 0.89,1.15 2.37,1.79 4.18,2.59 7.24,4.06 z"
     id="path2"
     inkscape:connector-curvature="0"
     style="fill:#bfbab7" />
  <g
     id="g8"
     style="fill:#4d4039"
     transform="translate(-0.0042424,88.77356)">
    <use
       xlink:href="#B"
       id="use4"
       x="0"
       y="0"
       width="100%"
       height="100%" />
    <path
       d="m 611.5,326.77 c 2.14,2.98 4.11,4.18 8.13,5.21 4.35,-23.07 5.17,-33.68 2.61,-57.99 h -9.2 c -2.07,8.55 -1.75,16.5 -0.88,26.36 0.05,8.94 -1.13,18.99 -0.67,26.42 z"
       id="path6"
       inkscape:connector-curvature="0" />
  </g>
  <path
     d="m 247.40576,336.98355 -0.19,1 c -4.99,5.97 -17.45,2.26 -23.17,2.72 -7.29,0.58 11.92,5.55 16.94,5.3 2.85,-0.21 6.46,-1.54 2.69,2.23 -1.32,1.54 -2.88,3.39 -5.33,4.41 l -18.01,8.36 c -4.35,2.98 8.48,0.31 8.34,1.24 -2.01,4.81 -4.13,8.64 -6.12,13.67 -1.68,4.24 -3.9,10.33 -5.02,15.04 -14.88,-19.76 -29.33,-39.2 -55.83,-39.32 -69.970002,-0.32 -2.13,100.31 47.73,100.68 9.84,0.07 22.42,-4.01 22.42,-4.01 0,0 0.43,0.08 0,0 3.59,-0.3 0.8,3.85 -2.68,16.92 -1.37,5.13 2.72,5.68 6.99,7.43 5.49,2.25 10.79,4.11 16.23,6.63 6.33,2.93 13.01,5.05 20,5.51 1.99,0.13 3.12,0.52 5.42,0.52 3.4,0 3.26,1.53 5.43,-1.41 0.16,-0.22 0.3,-0.41 0.42,-0.6 l 0.41,0.11 c 61.96,16.65 157.86,5.11 220.66,-1.31 5.78,18.36 24.42,29.36 42.61,34.36 15.1,4.15 35.26,2.28 48.09,-7.46 16.15,-13.98 8.7,-36.65 -5.63,-47.71 -0.02,-0.32 -0.05,-0.62 -0.08,-0.92 l 0.09,0.04 c 6.71,-2.26 17.85,-24.95 20.01,-31.17 5.25,-15.11 3.76,-51.11 3.26,-66.54 -0.39,-12 -6.69,-30.2 -5.71,-32.56 0.77,-1.86 0.78,-2.6 5.23,-3.93 8.08,-2.4 15.92,-1.91 24.14,-1 12.19,1.34 6.76,0.82 6.26,8.01 -0.9,12.95 23.2,23.19 34.98,18.66 14.53,-5.59 -1.35,-17.52 -4.44,-21.73 7.39,0 21.16,3.74 27.86,5.73 8.89,2.64 17.47,6.5 26.09,8.51 -8.42,-12.56 -45.43,-22.25 -57.99,-22.43 -11.5,-0.16 -6.76,1.82 -16.95,-1.33 -15.95,-4.93 -34.7,-7.35 -49.25,2.39 -1.26,-2.12 -4,-9.82 -8.02,-16.2 -4.9,-7.78 -25.63,-23.65 -32.95,-26.2 -7.8,-2.71 -12.72,0.36 -19.71,-3.21 -14.61,-7.47 -15.18,-13.47 -31.95,-18.72 -30.07,-9.41 -15.83,-3.05 -57.17,-15.3 -8.81,-7.58 -42.45,-19.29 -45.86,-24.32 -2.96,3.16 -14.08,10.62 -18.13,13.4 -20.1,-10.63 -25.68,-11.19 -51.92,-11.19 -5.96,-11.26 -17.57,-29.54 -30.54,-32.56 1.62,6.97 16.54,26.36 21.38,33.57 -3.26,0.76 -7.03,1.2 -10.21,2 -18.76,4.74 -34.76,16.2 -45.33,18.8 -21.88,5.38 -42.19,33.69 -51.02,52.78 -6.89,14.89 -7.89,30.2 11.88,16.96 -1.52,6.5 -2.67,16.39 3.89,18.31 3.62,2.34 5.43,4.61 9.75,5.83 z m 302.16,171.57 c 0.23,0.06 0.45,0.11 0.67,0.16 z m 2.06,0.49 0.76,0.17 a 20.72,20.72 0 0 1 -0.76,-0.17 z m 2,0.42 0.82,0.16 z m 1.98,0.36 c 0.27,0.05 0.54,0.09 0.81,0.13 z m 1.93,0.3 0.8,0.11 c -0.26,-0.03 -0.53,-0.07 -0.8,-0.11 z m 1.9,0.24 0.77,0.08 z m 1.86,0.18 0.75,0.06 z m 1.85,0.12 0.68,0.03 z m 1.91,0.06 c 0.17,0 0.34,0.01 0.51,0.01 -0.17,0 -0.34,-0.01 -0.51,-0.01 z m 3.87,-0.08 c 0.18,-0.01 0.35,-0.03 0.53,-0.04 -0.18,0.01 -0.35,0.03 -0.53,0.04 z m 1.61,-0.13 c 0.21,-0.02 0.41,-0.04 0.61,-0.07 z m 1.57,-0.18 0.63,-0.09 z m 1.52,-0.23 0.65,-0.12 z m 1.49,-0.28 c 0.21,-0.04 0.41,-0.09 0.62,-0.14 z m 1.44,-0.33 c 0.2,-0.05 0.41,-0.1 0.61,-0.16 z m 1.4,-0.38 c 0.19,-0.06 0.39,-0.11 0.58,-0.17 a 12.69,12.69 0 0 1 -0.58,0.17 z m 1.36,-0.43 0.54,-0.18 z m 1.37,-0.5 c 0.14,-0.06 0.29,-0.11 0.43,-0.17 -0.14,0.06 -0.29,0.11 -0.43,0.17 z m 1.65,-0.69 c 0.08,-0.04 0.15,-0.07 0.23,-0.11 -0.08,0.04 -0.15,0.07 -0.23,0.11 z m 1.17,-0.57 0.45,-0.24 z m 1.13,-0.62 c 0.16,-0.09 0.31,-0.19 0.47,-0.28 -0.16,0.09 -0.31,0.19 -0.47,0.28 z m 1.08,-0.65 c 0.16,-0.1 0.32,-0.21 0.47,-0.31 -0.16,0.1 -0.31,0.21 -0.47,0.31 z m 1.03,-0.69 c 0.16,-0.11 0.32,-0.23 0.47,-0.34 -0.16,0.12 -0.31,0.23 -0.47,0.34 z m 0.98,-0.73 c 0.16,-0.12 0.31,-0.24 0.46,-0.37 -0.15,0.12 -0.3,0.25 -0.46,0.37 z m 0.93,-0.77 0.44,-0.39 c -0.14,0.13 -0.29,0.26 -0.44,0.39 z m 0.87,-0.8 c 0.14,-0.14 0.29,-0.27 0.43,-0.41 -0.14,0.14 -0.28,0.28 -0.43,0.41 z m 0.82,-0.82 c 0.14,-0.15 0.28,-0.29 0.41,-0.44 -0.13,0.15 -0.27,0.29 -0.41,0.44 z m 0.77,-0.86 c 0.13,-0.16 0.27,-0.31 0.4,-0.47 -0.13,0.16 -0.26,0.31 -0.4,0.47 z m 0.69,-0.84 a 17.36,17.36 0 0 0 0.74,-1.01 37.39,37.39 0 0 1 -0.74,1.01 z m 1.03,-1.43 c 0.12,-0.18 0.23,-0.37 0.35,-0.55 -0.11,0.19 -0.23,0.37 -0.35,0.55 z m 0.59,-0.96 c 0.11,-0.19 0.22,-0.38 0.32,-0.58 -0.11,0.19 -0.21,0.39 -0.32,0.58 z m 0.55,-0.99 c 0.1,-0.19 0.2,-0.39 0.29,-0.59 -0.09,0.2 -0.19,0.39 -0.29,0.59 z m 0.49,-1.02 c 0.09,-0.2 0.18,-0.4 0.26,-0.61 -0.09,0.2 -0.17,0.41 -0.26,0.61 z m 0.44,-1.04 0.24,-0.63 c -0.08,0.21 -0.15,0.42 -0.24,0.63 z m 0.38,-1.05 c 0.07,-0.22 0.15,-0.44 0.21,-0.66 z m 0.33,-1.07 c 0.07,-0.23 0.13,-0.47 0.19,-0.7 -0.06,0.24 -0.12,0.47 -0.19,0.7 z m 0.27,-1.07 a 20.72,20.72 0 0 0 0.17,-0.76 c -0.05,0.26 -0.11,0.51 -0.17,0.76 z m 0.2,-0.98 a 24.75,24.75 0 0 0 0.39,-4.08 24.96,24.96 0 0 1 -0.39,4.08 z m 0.39,-4.33 a 27.03,27.03 0 0 0 -0.02,-0.89 z m -0.03,-1.19 a 13.46,13.46 0 0 0 -0.06,-0.88 z m -0.08,-1.21 -0.09,-0.88 c 0.04,0.29 0.07,0.58 0.09,0.88 z m -0.14,-1.22 -0.13,-0.88 c 0.05,0.29 0.09,0.59 0.13,0.88 z m -0.19,-1.23 c -0.05,-0.3 -0.11,-0.59 -0.17,-0.89 z m -0.24,-1.21 -0.22,-0.95 c 0.08,0.32 0.15,0.63 0.22,0.95 z m -0.28,-1.16 c -0.51,-1.93 -1.22,-3.89 -2.14,-5.86 0.92,1.97 1.63,3.93 2.14,5.86 z m -2.21,-6 c -0.16,-0.34 -0.33,-0.68 -0.5,-1.02 z m -0.64,-1.29 -0.52,-0.96 a 45.19,45.19 0 0 1 0.52,0.96 z m -0.7,-1.29 -0.55,-0.94 a 28.9,28.9 0 0 1 0.55,0.94 z m -0.76,-1.28 -0.59,-0.94 z m -0.81,-1.27 c -0.21,-0.32 -0.42,-0.64 -0.65,-0.95 z m -0.85,-1.24 -0.72,-1 c 0.25,0.33 0.49,0.67 0.72,1 z m -0.87,-1.2 -0.83,-1.08 v 0 c 0.29,0.36 0.56,0.72 0.83,1.08 z m 62.49,-132.26 c 8.98,-4.75 20.08,2.96 24.43,11.19 -11.53,0 -19.45,-1.72 -24.43,-11.19 z"
     id="path10"
     inkscape:connector-curvature="0"
     style="fill:#bfbab7" />
  <path
     d="m 217.81576,391.44355 c -12.61,-21.8 -29.71,-43.61 -56.82,-43.03 -74.060002,1.58 -5.25,107.4 48.71,105.72 9.84,-0.31 22.75,-5.58 22.75,-5.58 0,0 -0.3,-0.29 -1.04,-0.29 -5.53,-0.05 -29.53,-0.1 -34.53,-2.41 -6.78,-3.13 -17.01,-7.93 -26.37,-15.35 -63.86,-50.64 -25.64,-101.56 27.14,-58.72 8.67,7.04 18.5,18.82 19.97,19.78 0.16,0.1 0.24,0.07 0.19,-0.09 z"
     id="path12"
     inkscape:connector-curvature="0"
     style="fill:#4d4039" />
  <path
     d="m 268.37576,556.79355 0.07,0.19 v 0 c -0.02,-0.07 -0.04,-0.13 -0.07,-0.19 z m 36.65,67.35 c 3.92,-1.59 3.95,-2.53 8.55,-5.7 3.15,-2.17 5.17,-3.65 8.32,-5.92 6.16,-4.42 11.27,-6.87 13.12,-15.85 -1.38,-3.18 10.19,-6.32 5.23,-8.05 -1.57,-0.55 -0.48,-3.72 -1.81,-4.19 2.2,-2.82 -8.81,1.16 -10.11,-2.63 -2.95,-8.62 -10.18,-13.32 -17.79,-17.54 -3.03,-1.68 -9.17,-13.65 -17.65,-17.22 -1.14,-2.88 -11.35,-1.34 -12.37,-4.29 -4.72,3.33 -8.56,9.4 -12.14,14.03 -1.41,1.13 -2.37,1.7 -2.99,3.05 -2.6,2.1 -2.53,2.13 -4.97,4.51 -14.06,13.69 -16.47,11.77 -37.68,10.52 -9.71,-0.53 -16.96,-2.34 -22.74,-4.49 l -0.01,-0.08 c -3.46,-2.27 -11.42,-5.29 -16.32,-8.19 -2.34,-1.44 -3.11,-2.73 -5.76,-1.77 -4.36,1.58 -3.77,16.11 -2.64,20.43 4.01,15.39 28.82,36.81 43.34,42.24 5.96,2.23 18.64,8.04 23.29,9.28 -1.46,2.18 -10.19,9.36 -13.23,10.17 1.14,4.28 17.11,18.05 21.38,24.42 7.5,-3.6 40.36,-6.89 38.74,-11.75 a 18.71,18.71 0 0 1 0.95,-1.82 c 1.25,-2.11 4.08,-4.72 5.1,-6.77 1.76,-3.52 5.14,-9.27 6.11,-13.04 1.46,-2.35 4.24,-6.72 4.08,-9.35 z m -49.6,7.11 -0.33,0.41 a 9.91,9.91 0 0 1 0.33,-0.41 z m -1.63,2.4 c -0.02,0.05 -0.05,0.1 -0.07,0.15 0.02,-0.05 0.05,-0.1 0.07,-0.15 z m -0.07,0.15 c 0.09,0.04 0.19,0.09 0.28,0.13 -0.09,-0.05 -0.19,-0.09 -0.28,-0.13 z m 4.68,2.88 0.63,0.46 c -0.21,-0.16 -0.42,-0.31 -0.63,-0.46 z m -6.32,-25.53 -0.47,-0.48 z m -0.68,-0.7 c -0.15,-0.15 -0.29,-0.31 -0.44,-0.47 0.14,0.16 0.29,0.31 0.44,0.47 z m -0.66,-0.71 -0.42,-0.48 z m -0.62,-0.71 c -0.15,-0.17 -0.29,-0.34 -0.44,-0.52 z m -0.5,-0.6 c -0.34,-0.42 -0.67,-0.84 -0.99,-1.27 0.32,0.43 0.65,0.85 0.99,1.27 z m -1.04,-1.34 -0.39,-0.55 z m -0.57,-0.79 -0.36,-0.53 z m -0.54,-0.8 -0.35,-0.54 z m -0.51,-0.79 -0.35,-0.57 c 0.11,0.19 0.23,0.38 0.35,0.57 z m -0.4,-0.66 c -0.25,-0.42 -0.49,-0.85 -0.73,-1.29 a 28.05,28.05 0 0 0 0.73,1.29 z m -0.83,-1.48 c -0.1,-0.18 -0.19,-0.37 -0.29,-0.56 0.09,0.19 0.19,0.37 0.29,0.56 z m -0.44,-0.85 -0.26,-0.54 a 13.29,13.29 0 0 0 0.26,0.54 z m -0.41,-0.87 c -0.08,-0.17 -0.16,-0.34 -0.23,-0.52 0.08,0.17 0.15,0.35 0.23,0.52 z m -0.38,-0.86 c -0.08,-0.18 -0.15,-0.35 -0.22,-0.53 0.07,0.18 0.15,0.35 0.22,0.53 z m -0.33,-0.8 -0.38,-1.02 c 0.12,0.34 0.25,0.68 0.38,1.02 z m -0.52,-1.39 c -0.06,-0.17 -0.11,-0.34 -0.17,-0.51 0.05,0.17 0.11,0.34 0.17,0.51 z m -0.29,-0.89 c -0.05,-0.16 -0.1,-0.32 -0.14,-0.49 0.05,0.16 0.09,0.32 0.14,0.49 z m -0.26,-0.91 -0.12,-0.46 z m -0.23,-0.9 c -0.04,-0.15 -0.07,-0.3 -0.1,-0.45 0.03,0.15 0.07,0.3 0.1,0.45 z m -0.25,-1.18 c -0.03,-0.16 -0.06,-0.32 -0.08,-0.48 0.03,0.16 0.05,0.32 0.08,0.48 z m -0.17,-0.97 -0.06,-0.44 z m -0.12,-0.88 c -0.02,-0.15 -0.03,-0.29 -0.04,-0.44 0.01,0.15 0.03,0.29 0.04,0.44 z m -0.08,-0.89 -0.03,-0.42 z m -0.05,-0.9 c 0,-0.13 -0.01,-0.26 -0.01,-0.38 0,0.13 0.01,0.25 0.01,0.38 z m -0.01,-1.19 c 0,-0.11 0.01,-0.22 0.01,-0.34 -0.01,0.11 -0.01,0.22 -0.01,0.34 z m 0.04,-0.86 0.03,-0.37 z m 0.08,-0.84 c 0.01,-0.12 0.03,-0.24 0.05,-0.37 -0.02,0.12 -0.03,0.24 -0.05,0.37 z m 0.12,-0.85 0.06,-0.34 z m 0.17,-0.9 c 0.02,-0.08 0.03,-0.17 0.05,-0.25 a 2.21,2.21 0 0 0 -0.05,0.25 z m 0.26,-1.03 a 2.25,2.25 0 0 1 0.08,-0.24 2.25,2.25 0 0 1 -0.08,0.24 z m 0.25,-0.78 a 2.49,2.49 0 0 1 0.11,-0.29 c -0.04,0.1 -0.07,0.19 -0.11,0.29 z m 0.29,-0.77 c 0.04,-0.1 0.08,-0.2 0.13,-0.3 -0.04,0.1 -0.08,0.2 -0.13,0.3 z m 0.34,-0.76 c 0.04,-0.09 0.09,-0.19 0.14,-0.28 -0.05,0.09 -0.09,0.19 -0.14,0.28 z m 0.43,-0.83 c 0.03,-0.05 0.06,-0.11 0.09,-0.16 -0.03,0.05 -0.06,0.11 -0.09,0.16 z m 0.52,-0.85 c 0.04,-0.06 0.09,-0.12 0.13,-0.18 -0.04,0.06 -0.09,0.12 -0.13,0.18 z m 0.48,-0.68 0.18,-0.24 z m 0.53,-0.66 0.21,-0.24 z m 0.59,-0.65 c 0.07,-0.07 0.13,-0.14 0.2,-0.21 -0.07,0.07 -0.13,0.14 -0.2,0.21 z m 0.72,-0.7 c 0.04,-0.03 0.07,-0.07 0.11,-0.1 -0.04,0.03 -0.07,0.07 -0.11,0.1 z m 0.79,-0.66 c 0.07,-0.05 0.13,-0.1 0.2,-0.15 -0.07,0.05 -0.13,0.1 -0.2,0.15 z m 0.73,-0.53 0.27,-0.18 z m 0.78,-0.51 c 0.1,-0.06 0.2,-0.12 0.29,-0.18 -0.1,0.06 -0.2,0.12 -0.29,0.18 z m 0.87,-0.49 c 0.09,-0.05 0.18,-0.1 0.27,-0.14 -0.09,0.05 -0.18,0.09 -0.27,0.14 z m 2.09,-0.96 c 0.1,-0.04 0.2,-0.07 0.29,-0.11 -0.1,0.04 -0.2,0.07 -0.29,0.11 z m 0.99,-0.36 c 0.12,-0.04 0.25,-0.08 0.38,-0.12 z m 1.05,-0.32 c 0.13,-0.04 0.27,-0.07 0.4,-0.11 z m 1.14,-0.29 0.38,-0.09 z m 2.75,-0.5 c 0.13,-0.02 0.26,-0.03 0.39,-0.05 -0.13,0.02 -0.26,0.03 -0.39,0.05 z m 1.28,-0.14 c 0.16,-0.01 0.32,-0.03 0.48,-0.04 -0.16,0.01 -0.32,0.03 -0.48,0.04 z m 1.34,-0.1 0.51,-0.03 z m 1.46,-0.06 c 0.15,0 0.3,-0.01 0.45,-0.01 -0.15,0 -0.3,0.01 -0.45,0.01 z"
     id="path14"
     inkscape:connector-curvature="0"
     style="fill:#826552" />
  <path
     d="m 330.68576,593.41355 c 7.67,2.67 12.99,3.98 22.23,5.26 5.92,0.82 15.28,1.91 21.31,2.13 14.53,0.52 27.79,-3.86 36.42,-9.2 v -0.02 c 0.41,-0.06 0.82,-0.15 1.22,-0.26 0.23,-0.07 16.77,0.09 19.43,-0.24 8.1,-1.01 8.45,-1.95 15.39,-4.19 0.54,-0.17 6.81,-0.61 7.82,-1.32 0.88,-0.63 11.6,-2.18 12.89,-2.24 12.2,-0.59 22.09,9.08 22.24,9.07 0.63,-0.05 1.07,-0.05 1.41,-0.06 l -0.01,0.27 c 7.05,2.91 12.9,-1.34 17.35,-4.07 18.88,-7.41 42.55,-31.65 45.66,-36.81 -6,-9.1 -10.86,-11.94 -16.7,-25.43 -6.15,-14.19 -0.43,-38.43 3.01,-50.25 -22.45,1.92 -95.91,5.07 -119.65,6.49 -48.46,2.89 -83.46,3.61 -130.21,-6.75 -21.57,-4.78 -63.84,-59.24 -62.84,10.46 1.18,11.46 7.36,20.22 14.25,27.01 -6.62,4.43 -8.36,5.95 -12.22,13.23 5.55,-1.29 11.95,-6.25 16.29,-9.16 14.9,11.58 14.18,10.74 33.59,15.26 0,30.23 24.48,51.56 51.11,60.82 z"
     id="path16"
     inkscape:connector-curvature="0"
     style="fill:#bfbab7" />
  <use
     xlink:href="#B"
     id="use18"
     style="fill:#4d4039"
     x="0"
     y="0"
     width="100%"
     height="100%"
     transform="translate(-0.0042424,88.77356)" />
  <path
     d="m 454.73576,676.84355 0.24,-0.18 z m 47.78,-21.47 -5.16,-15.01 c -1.42,-2.44 0.73,0.11 -1.6,-1.98 0.58,-3.06 -1.15,-9.52 -3.42,-11.69 -0.38,-5.56 -1.03,-9.69 -1.02,-16.8 0.01,-5.73 0.33,-11.63 -0.28,-17.3 0.27,-8.45 3.15,-24.35 -2.02,-29.21 -6.76,-3.96 -16.75,-10.91 -24.96,-6.36 -1.13,1.02 -1.23,0.74 -2.25,2.85 -12.09,1.21 -25.12,3.26 -34.49,8.47 -4.18,2.33 -10.09,6.58 -12.46,8.88 -4.66,4.55 -5.62,5.97 -4.22,14.35 0.35,3.61 0.61,4.43 1.25,7.15 l 1.75,6.44 c 0.06,0.17 0.17,0.51 0.31,0.74 0.54,4.17 0.41,2.9 1.02,6.01 1.55,26.35 2.72,18.21 -12.93,36.92 -5.64,6.74 -11.38,14.17 -19.28,18.38 l -3.97,2.11 -4.54,3.02 c -1.01,-0.09 -19.36,2.16 -20.36,2.65 -0.9,0.9 -3.91,17.42 13.01,21.59 18.35,4.52 63.09,12.94 76.84,-0.98 2.87,-2.91 5.65,-8.06 8.9,-10.44 0,9.43 -6.5,12.69 12.18,13.26 6.81,0.21 18.79,0.8 22.17,-5.38 l 15.65,-32.3 c 1.17,-3.04 1.69,-1.99 -0.12,-5.39 z m -22.91,-2.15 -1.93,14.69 z m -24.17,23.08 a 4.28,4.28 0 0 0 0.26,-0.19 4.28,4.28 0 0 0 -0.26,0.19 z m 0.69,-0.5 0.29,-0.2 z m 0.68,-0.46 a 4.79,4.79 0 0 0 0.29,-0.19 4.79,4.79 0 0 0 -0.29,0.19 z m 0.66,-0.43 c 0.09,-0.06 0.19,-0.12 0.28,-0.17 -0.09,0.06 -0.19,0.11 -0.28,0.17 z m 1.3,-0.77 c 0.09,-0.05 0.18,-0.1 0.28,-0.15 -0.09,0.05 -0.18,0.1 -0.28,0.15 z m -44.73,-68.23 v 0 h -0.07 l 0.07,-0.01 z m 50.01,-48.88 a 6.12,6.12 0 0 1 0.5,0.39 c -0.16,-0.13 -0.33,-0.27 -0.5,-0.39 z"
     id="path20"
     inkscape:connector-curvature="0"
     style="fill:#826552" />
  <path
     d="m 264.96576,561.07355 -0.78,11.91 c -34.3,-0.73 -23.2,36.15 -2.64,44.63 -2.04,4.62 -8.22,9.07 -12.52,12.05 -7.6,-3.84 -14.14,-8.25 -22.23,-11.75 -12.89,-5.57 -23.21,-10.57 -32.01,-19.53 3.09,-6.91 5.91,-19.52 5.21,-28.08 -3.46,-2.27 -11.42,-5.29 -16.32,-8.19 -2.34,-1.44 -3.11,-2.73 -5.76,-1.77 -4.36,1.58 -3.77,16.11 -2.64,20.43 4.01,15.39 28.82,36.81 43.34,42.24 5.96,2.23 18.64,8.04 23.29,9.28 -1.46,2.18 -10.19,9.36 -13.23,10.17 1.14,4.28 17.11,18.05 21.38,24.42 7.5,-3.6 40.36,-6.89 38.74,-11.75 0,0 -4.33,-0.37 -5.51,-1.01 -13.68,-7.39 -23.28,-17.39 -29.55,-20.3 1.59,-3.61 9.95,-10.78 13.63,-12.75 8.25,4.12 23.35,11.18 33.59,12.43 1.46,-2.35 4.24,-6.72 4.08,-9.35 -1.68,-2.03 -22.22,-8.75 -27.16,-14.12 6.18,-6.62 13.24,-11 19.01,-18.75 5.76,-0.37 14.36,-2.66 10.32,-3.88 -1.78,-0.53 -7.23,1.31 -9.81,-2.42 -2.41,-3.48 0.78,-6.89 1.98,-9.9 -1.19,-1.09 -2.34,-2.22 -3.44,-3.38 -2.19,3.55 -3.34,13.42 -3.11,17.83 -6.16,5.01 -12.84,13.17 -20.36,17.5 -14.09,-9.33 -30.53,-24.08 -5.55,-29.45 5.12,-1.1 2.84,-16.96 1.48,-20.78 -1.77,1.42 -2.84,1.95 -3.4,4.28 z m 16.91,-198.58 c -31.02,10.95 -18.65,71.74 12.04,61.31 12.5,-4.25 19.94,-20.86 17.16,-37.64 -2.2,-13.25 -13.12,-29.33 -29.2,-23.66 z m 125.02,10.07 c -30.05,10.03 -19.51,70.58 11.44,61.61 12.1,-3.51 20.33,-20.03 17.96,-36.88 -1.97,-13.99 -13.07,-30.18 -29.4,-24.73 z"
     id="path22"
     inkscape:connector-curvature="0"
     style="fill:#4d4039" />
  <path
     d="m 406.89576,372.56355 c 16.33,-5.45 27.43,10.74 29.4,24.73 2.37,16.85 -5.86,33.37 -17.96,36.88 -30.95,8.97 -41.49,-51.58 -11.44,-61.61 z m 3.01,-40.28 c -7.56,0.92 -20.53,17.47 -24.96,24.8 -21.04,34.78 -4.74,83.7 33.58,100.71 39.52,17.54 83.19,2.43 102.21,-36.25 5.27,-10.72 9.09,-30.28 4.67,-43.27 l -17.67,-26.9 c -17.67,-23.12 -52.54,-33.34 -81.4,-24.15 -4.69,1.49 -11.67,5.09 -16.43,5.04 z m -128.03,30.21 c 16.08,-5.67 27,10.41 29.2,23.66 2.78,16.78 -4.66,33.39 -17.16,37.64 -30.69,10.44 -43.06,-50.36 -12.04,-61.31 z m -37.87,-7.22 c -2.18,14.26 -4.49,21.4 -0.93,36.69 2.47,10.63 8.6,22.03 14.13,27.67 7.11,7.25 12.46,12.72 25.14,16.59 32.92,10.07 65.15,-14.94 69.78,-51.99 2.76,-22.1 -7.57,-50.51 -22.81,-58.88 l -2.16,0.11 c -16.15,-7.13 -29.06,-17.18 -50.78,-7.73 -12.3,5.35 -20.83,16.96 -26.73,27.58 -2.13,3.84 -3.56,7.39 -5.64,9.96 z"
     id="path24"
     inkscape:connector-curvature="0"
     style="fill:#ffffff" />
  <path
     d="m 570.72576,550.90355 c 4.37,2.31 8.78,4.94 15.27,5.09 -3.58,-5.35 -7.5,-7.14 -13.23,-10.17 0.57,-2.42 1.07,-5.12 2.04,-7.12 h 34.61 c -1.45,-5.43 -7.01,-6.49 -13.21,-7.15 -6.93,-0.73 -12.19,-0.99 -20.39,-0.99 0.35,-4.22 1.02,-5.72 1.02,-11.45 -11.16,1.69 -20.77,2.12 -31.47,-0.82 -10.26,-2.82 -16.55,-8.29 -23.6,-10.89 -8.49,9.89 -7.21,33.95 0.63,42.97 4.61,5.3 9.05,9.09 15.46,13.02 10.62,13.14 22.29,15.26 32.86,-12.49 z"
     id="path26"
     inkscape:connector-curvature="0"
     style="fill:#bfbab7" />
  <path
     d="m 532.03576,600.75355 z m 56.07,-139.95 c -0.68,1.02 1.3,2.93 1.98,3.81 0.51,0.67 1.28,1.5 1.86,2.18 0.95,1.12 1.82,1.94 2.69,3.17 0.91,1.3 1.41,1.79 2.26,3.26 0.53,0.91 1.64,2.96 2.81,2.97 1.04,0.01 0.54,1.57 1.48,1.09 1.89,3.9 3.7,6.63 3.99,12.4 22.23,4.87 92.53,36.03 62.53,62.5 -30.8,27.18 -112.28,36.18 -145.3,-1.81 -7.84,-9.02 -7.34,-34.41 1.15,-44.29 -7.01,-8.08 -13.48,-10.87 -17.69,-24.24 -62.8,6.42 -159.84,18.22 -221.8,1.57 -75.27,-20.22 -114.63,-59.85 -94.29,-138.23 11.77,-45.36 25.79,-71.61 55.51,-108.32 10.35,-12.79 29.47,-32.39 36.69,-45.75 8.04,-14.86 -4.16,-26.81 -29.88,-26.81 5.83,-7.95 16.83,-3.45 26.89,-1.44 l 89.16,17.72 138.69,21.37 9.91,-11.38 c 1.43,-1.31 -10.23,-3.68 -9.16,-4.82 -36.21,-5.19 -73.4,-10.16 -109.33,-16.95 l -90.76,-18.16 c -46.63,-10.27 292.46,-91.209994 458.98995,-12.07 86.5,43.65 -223.79995,54.71 -234.25995,49.75 1.78,11.02 8.99,3.4 23.31,17.94 63.69,1.61 181.71995,2.69 229.24995,-40.67 11.84,-10.8 9.3,-29.15 -8.2,-40.17 -24.45,-15.4 -104.25995,-29.29999 -131.71995,-32.15999 -109.35,-8.53 -186.99,-6.55 -295.87,20.37999 -17.2,4.25 -87.45,28.64 -93.82,28.34 -18.81,-0.89 -38.9,-4.24 -58.06,-4.14 -49.62,0.28 -78.13,-1.07 -127.900002,15.66 -14.1,4.74 -83.39,26.65 -66.6300004,49.54 6.5,8.88 21.4900004,10.25 29.6000004,12.14 0,18.71 34.85,10.22 52.07,8.29 57.770002,-6.48 82.030002,-6.24 137.260002,-33.75 6.54,-3.26 22.1,-4.04 30.57,-4.04 -12.28,18.32 -26.5,34.5 -39.38,56.28 -34.46,58.28 -94.78,167.48 -25.79,220.45 28.74,22.06 64.06,33.57 99.09,41.33 46.75,10.36 90.45,16.15 138.91,13.25 23.74,-1.42 45.88,-5.98 68.34,-7.9 -3.44,11.82 -11.79,26.22 -5.65,40.41 5.84,13.49 13.87,18.7 22.68,26.83 -3.11,5.16 -3.06,5.67 -1.9,12.21 2.55,13.95 20.55,40.41 33.82,49.87 24.5,17.47 47.11,18.3 73.75,38.21 5.76,4.3 10.75,7.89 16.06,12.44 9.98,8.56 15.31,-1.54 14.72,-5.54 -3.11,-21.32 -83.97,-47.57 -102.73,-66.23 -3.59,-3.57 -10.63,-11.54 -11.96,-16.53 4.95,1.32 15.45,11.58 44.2,17.89 36.24,7.95 101.43,12.85 113.35,-33.39 2.91,-11.31 5.89,-4.42 14.95,-16.6 12.44,-16.71 16.55,-42.08 1.35,-57.19 -17.42,-17.31 6.68,-9.09 -36.69,-40.66 -13.66,-9.94 -73.64,-21.18 -81.09,-10 z m 38.61,146.05 c -14.68,0 -56.77,-1.26 -68.21,-11.19 11.98,0 36.2,4.07 59.05,4.07 21.35,0 32.04,0.34 51.92,-10.17 -2.79,10.43 -28.22,17.3 -42.76,17.3 z m 65.15,-50.87 c 0,-8.52 -2.34,-5.95 1.32,-12.89 1.72,-3.25 3.95,-7.96 4.78,-11.52 6.01,3.37 -3.51,19.62 -6.11,24.42 z m -623.030002,-360.14 c -1.5,0 -3.02,-3.77 -6.54,-4.72 -8.09,0.58 -26.97,-1.19 -29.09,6.75 -42.0300004,0 30.67,-32.73 82.220002,-42.58 51.55,-9.85 75.28,-4.74 102.63,-0.74 39.14,5.72 -19.34,9.71 -26.64,11.18 -39.94,8.04 -79.73,30.1 -122.580002,30.1 z"
     id="path28"
     inkscape:connector-curvature="0"
     style="fill:#a98d6f" />
  <path
     d="m 240.88576,346.48355 c -2.05,1.53 -1.82,1.28 -3.05,5.12 3.44,-1.42 4.28,-3.49 6.7,-5.83 l -3.64,0.71 z"
     id="path30"
     inkscape:connector-curvature="0"
     style="fill:#b3adaa" />
  <g
     id="g36"
     style="fill:#4d4039"
     transform="translate(-0.0042424,88.77356)">
    <path
       d="m 409.91,243.52 c 4.76,0.05 11.74,-3.55 16.43,-5.04 28.86,-9.18 63.73,1.03 81.4,24.15 l 17.67,26.9 c 3.31,2.02 14.55,11.58 22.35,7.79 2.59,-1.26 -18.78,-8.09 -21.5,-18.93 9.87,2.07 19.86,-2.18 20.45,-10.98 0.27,-4.02 -9.19,9.98 -23.55,3.25 4.61,-3.3 12.79,-3.28 11.69,-12.76 -0.6,-5.16 -4.27,5.02 -14,6.19 -15.01,-19.39 -22.07,-28.74 -47.3,-35.5 -23.91,-6.41 -64.96,-0.95 -63.64,14.93 z m -172.25,-1.14 c 2.58,3.29 4.78,5.04 9.34,6.1 -4.75,6.47 -18.65,2.15 -24.43,3.05 -7.59,1.19 12.97,7.24 18.32,6.18 l 3.64,-0.71 c -2.42,2.34 -3.26,4.41 -6.7,5.83 l -18.26,9.12 c -7.47,4.39 7.93,1.71 9.09,1.51 8.23,-2.01 17.95,-7.32 22.2,-14.98 5.9,-10.62 13.19,-18.01 25.5,-23.36 21.72,-9.44 34.9,-3.88 51.05,3.25 l 1.2,-1.13 0.7,-0.65 c -6.87,-14.87 -30.15,-17.24 -48.79,-11.55 -8.88,2.71 -16.05,7.12 -21.79,11.8 -3.1,2.53 -4.72,6.82 -9.43,6.35 -5.77,-0.57 -12.87,-10.22 -11.66,-0.81 z m 143.4,116.6 c 3.03,1.28 4.92,2.08 8.76,2.36 l -8.44,-9.09 c -3.89,5.19 1.41,3.82 -8.7,6.56 -4.81,1.3 -8.59,2.33 -13.67,2.67 -5.01,0.33 -10.02,-0.06 -14.42,-1.94 -8.06,-3.44 -9.29,-10.38 -10.3,-6.88 -5.35,18.45 36.85,20.97 46.77,6.32 z M 505.28,98.56 491.33,111.13 c -3.76,2.57 -8.55,7.03 -12.35,10.06 -4.41,3.52 -8.69,7.13 -13.67,10.39 4.76,3.21 15.17,1.94 22.56,3.44 13.73,2.8 41.1,13.58 47.26,25.74 -93,3.64 -71.01,-30.47 -105.52,-49.99 -10.43,-5.9 -21.18,-4.48 -24.3,10.11 -2.19,10.24 6.47,24.65 13.77,30.93 26.75,23.01 43.44,17.84 73.52,27.25 25.39,7.95 45.61,22.56 69.05,30.71 20.84,7.25 19.58,1.84 25.39,-2 9.92,-14.63 22.77,-46.69 2.65,-54.52 -5.04,-1.96 -8.56,-1 -13.85,-0.41 l -27.49,5.09 c 5.32,-7.94 15.43,-16.35 17.94,-27.88 2.27,-10.45 -4.99,-18.66 -13.87,-22.99 -4.92,-2.4 -11.77,-4.68 -16.66,-7.12 -5.84,-2.37 -3.95,-8.08 -12.85,-8.25 -4.74,-0.09 -14.02,3.58 -17.62,6.85 z"
       id="path32"
       inkscape:connector-curvature="0" />
    <path
       d="m 465.32,131.58 c 4.77,3.19 15.16,1.92 22.53,3.43 13.73,2.8 41.1,13.58 47.26,25.74 -6.16,-12.17 -29.45,-26.37 -43.18,-29.17 -7.39,-1.51 -20.01,1.93 -24.77,-1.28 -0.28,0.2 -0.93,0.65 -1.85,1.28 z m 69.8,29.17 c -55.05,2.16 -69.81,-8.92 -79.84,-22.36 l -13.78,9.65 c -2.75,4.88 30.45,13.1 33.53,14.08 13.5,4.3 27.1,3.2 41.18,4.29 5,0.39 15.5,0.62 20.31,-1.6 2.39,-1.1 1.14,-2.65 -0.59,-3.67 0.58,-0.02 -1.37,-0.36 -0.8,-0.38 z m -30.39,232.57 c 5.78,18.36 22.46,31.19 40.65,36.19 15.1,4.15 39.48,2.14 52.31,-7.6 5.6,-4.25 9.03,-11.22 8.55,-20.83 -0.92,-18.03 -10.6,-27.13 -25.95,-33.29 32.05,27.73 14.13,64.6 -32.79,51.43 -15.96,-4.48 -27.78,-13.28 -32.69,-27.38 -9.1,-26.11 22.19,-27.61 26.71,-31.59 -15.98,-4.68 -43.7,7.82 -36.78,33.07 z m -42.92,77.8 c 0.05,6.77 1.19,13.01 1.07,20.51 -0.1,6.42 -1.49,15.77 2.08,20.25 3,3.77 3.19,0.56 4.89,6.17 1.98,6.52 4.29,23.05 3.92,29.25 -17.16,6.19 -51.38,17.97 -34.2,-10.91 -4.77,-4.64 -20.21,-19.76 -25.62,-19.23 0.54,4.17 0.41,2.9 1.02,6.01 8.09,4.87 11.06,10.11 16.58,12.91 -5.32,9.84 -15.2,24.91 3.3,31.34 13.43,4.67 28.66,-1.98 40.15,-5.49 0.77,29.43 -5.17,13.78 -20.98,26.71 -7.16,5.85 -5.61,8.56 -15.46,13.06 -16.81,7.68 -28.73,7.59 -48.02,4.38 l -1.38,-3.21 c -1.92,-6.06 -5.6,-18.05 -14.91,-19.27 -1.01,-0.09 -19.36,2.16 -20.36,2.65 -0.9,0.9 -3.91,17.42 13.01,21.59 18.35,4.52 63.09,12.94 76.84,-0.98 2.87,-2.91 5.65,-8.06 8.9,-10.44 0,9.43 -6.5,12.69 12.18,13.26 6.81,0.21 18.79,0.8 22.17,-5.38 L 502.64,572 c 1.17,-3.04 1.69,-1.99 -0.12,-5.39 -7.66,4.17 -13.68,10.16 -24.84,12.53 l 2.61,-19.8 c 3.62,-1.5 14.08,-6.54 15.47,-9.72 0.58,-3.06 -1.15,-9.52 -3.42,-11.69 l -13.15,6.99 -4.7,-29.33 c 4.46,-0.99 5.57,-2.37 6.16,-7.18 -24.53,17.09 -1.65,-29.5 -16.59,-40.14 -1.13,1.02 -1.23,0.74 -2.25,2.85 z"
       id="path34"
       inkscape:connector-curvature="0" />
  </g>
  <g
     id="g42"
     style="fill:#ffffff"
     transform="translate(-0.0042424,88.77356)">
    <ellipse
       cx="402.97"
       cy="305.20001"
       rx="5.27"
       ry="8.2700005"
       id="ellipse38" />
    <ellipse
       cx="277.14001"
       cy="293.85999"
       rx="5.0999999"
       ry="8"
       id="ellipse40" />
  </g>
  <path
     d="m 487.83576,223.76355 c -7.37,-1.5 -17.76,-0.24 -22.53,-3.43 l -10.05,6.81 c 10.04,13.44 24.8,24.52 79.85,22.36 -6.16,-12.17 -33.53,-22.94 -47.26,-25.74 z"
     id="path44"
     inkscape:connector-curvature="0"
     style="fill:#826552" />
  <defs
     id="defs47">
    <path
       id="B"
       d="m 441.49,148.04 c -2.75,4.88 30.45,13.1 33.53,14.08 13.5,4.3 27.1,3.2 41.18,4.29 5,0.39 15.5,0.62 20.31,-1.6 2.39,-1.1 1.14,-2.65 -0.59,-3.67 0.58,-0.02 -1.37,-0.36 -0.8,-0.38 -6.16,-12.17 -29.45,-26.37 -43.18,-29.17 -7.39,-1.51 -20.01,1.93 -24.77,-1.28 -2.13,1.54 -25.25,16.97 -25.68,17.73 z"
       inkscape:connector-curvature="0" />
  </defs>
</svg>
