<?xml version="1.0" encoding="UTF-8" standalone="no"?>
<svg
   xmlns:dc="http://purl.org/dc/elements/1.1/"
   xmlns:cc="http://creativecommons.org/ns#"
   xmlns:rdf="http://www.w3.org/1999/02/22-rdf-syntax-ns#"
   xmlns:svg="http://www.w3.org/2000/svg"
   xmlns="http://www.w3.org/2000/svg"
   xmlns:xlink="http://www.w3.org/1999/xlink"
   xmlns:sodipodi="http://sodipodi.sourceforge.net/DTD/sodipodi-0.dtd"
   xmlns:inkscape="http://www.inkscape.org/namespaces/inkscape"
   width="1126.752"
   height="874.176"
   viewBox="0 0 792.05 614.52"
   shape-rendering="geometricPrecision"
   image-rendering="optimizeQuality"
   fill-rule="evenodd"
   version="1.1"
   id="svg49"
   sodipodi:docname="dusty-left.svg"
   inkscape:version="0.92.5 (2060ec1f9f, 2020-04-08)">
  <title
     id="title1458">Dusty</title>
  <metadata
     id="metadata53">
    <rdf:RDF>
      <cc:Work
         rdf:about="">
        <dc:format>image/svg+xml</dc:format>
        <dc:type
           rdf:resource="http://purl.org/dc/dcmitype/StillImage" />
        <dc:title>Dusty</dc:title>
        <dc:creator>
          <cc:Agent>
            <dc:title>Jenny &quot;Jennipuff&quot; Wheat</dc:title>
          </cc:Agent>
        </dc:creator>
        <cc:license
           rdf:resource="http://creativecommons.org/licenses/by-nd/4.0/" />
      </cc:Work>
      <cc:License
         rdf:about="http://creativecommons.org/licenses/by-nd/4.0/">
        <cc:permits
           rdf:resource="http://creativecommons.org/ns#Reproduction" />
        <cc:permits
           rdf:resource="http://creativecommons.org/ns#Distribution" />
        <cc:requires
           rdf:resource="http://creativecommons.org/ns#Notice" />
        <cc:requires
           rdf:resource="http://creativecommons.org/ns#Attribution" />
      </cc:License>
    </rdf:RDF>
  </metadata>
  <sodipodi:namedview
     pagecolor="#ffffff"
     bordercolor="#666666"
     borderopacity="1"
     objecttolerance="10"
     gridtolerance="10"
     guidetolerance="10"
     inkscape:pageopacity="0"
     inkscape:pageshadow="2"
     inkscape:window-width="640"
     inkscape:window-height="480"
     id="namedview51"
     showgrid="false"
     inkscape:zoom="0.26996851"
     inkscape:cx="563.37598"
     inkscape:cy="437.08801"
     inkscape:window-x="0"
     inkscape:window-y="40"
     inkscape:window-maximized="0"
     inkscape:current-layer="svg49" />
  <path
     d="M619.63 331.98c14.78 23.9 68.47 23.61 43.73-13.3 29.07 0 27.49-15.64 8.45-29.8-12.81-9.52-27.16-14.76-48.87-14.86-.3-.02-.54-.03-.7-.02l-.17.17h-8.84c0 .02-.15-.13-.15-.11h-.03c-2.07 8.55-1.76 16.42-.89 26.28.05 8.94-1.13 18.99-.67 26.42.09.12.9 1.12.89 1.15 2.37 1.79 4.18 2.59 7.24 4.06z"
     fill="#bfbab7"
     id="path2" />
  <g
     fill="#4d4039"
     id="g8">
    <use
       xlink:href="#B"
       id="use4" />
    <path
       d="M611.5 326.77c2.14 2.98 4.11 4.18 8.13 5.21 4.35-23.07 5.17-33.68 2.61-57.99h-9.2c-2.07 8.55-1.75 16.5-.88 26.36.05 8.94-1.13 18.99-.67 26.42z"
       id="path6" />
  </g>
  <path
     d="M247.41 248.21l-.19 1c-4.99 5.97-17.45 2.26-23.17 2.72-7.29.58 11.92 5.55 16.94 5.3 2.85-.21 6.46-1.54 2.69 2.23-1.32 1.54-2.88 3.39-5.33 4.41l-18.01 8.36c-4.35 2.98 8.48.31 8.34 1.24-2.01 4.81-4.13 8.64-6.12 13.67-1.68 4.24-3.9 10.33-5.02 15.04-14.88-19.76-29.33-39.2-55.83-39.32-69.97-.32-2.13 100.31 47.73 100.68 9.84.07 22.42-4.01 22.42-4.01s.43.08 0 0c3.59-.3.8 3.85-2.68 16.92-1.37 5.13 2.72 5.68 6.99 7.43 5.49 2.25 10.79 4.11 16.23 6.63 6.33 2.93 13.01 5.05 20 5.51 1.99.13 3.12.52 5.42.52 3.4 0 3.26 1.53 5.43-1.41.16-.22.3-.41.42-.6l.41.11c61.96 16.65 157.86 5.11 220.66-1.31 5.78 18.36 24.42 29.36 42.61 34.36 15.1 4.15 35.26 2.28 48.09-7.46 16.15-13.98 8.7-36.65-5.63-47.71-.02-.32-.05-.62-.08-.92l.09.04c6.71-2.26 17.85-24.95 20.01-31.17 5.25-15.11 3.76-51.11 3.26-66.54-.39-12-6.69-30.2-5.71-32.56.77-1.86.78-2.6 5.23-3.93 8.08-2.4 15.92-1.91 24.14-1 12.19 1.34 6.76.82 6.26 8.01-.9 12.95 23.2 23.19 34.98 18.66 14.53-5.59-1.35-17.52-4.44-21.73 7.39 0 21.16 3.74 27.86 5.73 8.89 2.64 17.47 6.5 26.09 8.51-8.42-12.56-45.43-22.25-57.99-22.43-11.5-.16-6.76 1.82-16.95-1.33-15.95-4.93-34.7-7.35-49.25 2.39-1.26-2.12-4-9.82-8.02-16.2-4.9-7.78-25.63-23.65-32.95-26.2-7.8-2.71-12.72.36-19.71-3.21-14.61-7.47-15.18-13.47-31.95-18.72-30.07-9.41-15.83-3.05-57.17-15.3-8.81-7.58-42.45-19.29-45.86-24.32-2.96 3.16-14.08 10.62-18.13 13.4-20.1-10.63-25.68-11.19-51.92-11.19-5.96-11.26-17.57-29.54-30.54-32.56 1.62 6.97 16.54 26.36 21.38 33.57-3.26.76-7.03 1.2-10.21 2-18.76 4.74-34.76 16.2-45.33 18.8-21.88 5.38-42.19 33.69-51.02 52.78-6.89 14.89-7.89 30.2 11.88 16.96-1.52 6.5-2.67 16.39 3.89 18.31 3.62 2.34 5.43 4.61 9.75 5.83zm302.16 171.57c.23.06.45.11.67.16l-.67-.16zm2.06.49l.76.17a20.72 20.72 0 0 1-.76-.17zm2 .42l.82.16-.82-.16zm1.98.36c.27.05.54.09.81.13l-.81-.13zm1.93.3l.8.11c-.26-.03-.53-.07-.8-.11zm1.9.24l.77.08-.77-.08zm1.86.18l.75.06-.75-.06zm1.85.12l.68.03-.68-.03zm1.91.06c.17 0 .34.01.51.01-.17 0-.34-.01-.51-.01zm3.87-.08c.18-.01.35-.03.53-.04-.18.01-.35.03-.53.04zm1.61-.13c.21-.02.41-.04.61-.07l-.61.07zm1.57-.18l.63-.09-.63.09zm1.52-.23l.65-.12-.65.12zm1.49-.28c.21-.04.41-.09.62-.14l-.62.14zm1.44-.33c.2-.05.41-.1.61-.16l-.61.16zm1.4-.38c.19-.06.39-.11.58-.17a12.69 12.69 0 0 1-.58.17zm1.36-.43l.54-.18-.54.18zm1.37-.5c.14-.06.29-.11.43-.17-.14.06-.29.11-.43.17zm1.65-.69c.08-.04.15-.07.23-.11-.08.04-.15.07-.23.11zm1.17-.57l.45-.24-.45.24zm1.13-.62c.16-.09.31-.19.47-.28-.16.09-.31.19-.47.28zm1.08-.65c.16-.1.32-.21.47-.31-.16.1-.31.21-.47.31zm1.03-.69c.16-.11.32-.23.47-.34-.16.12-.31.23-.47.34zm.98-.73c.16-.12.31-.24.46-.37-.15.12-.3.25-.46.37zm.93-.77l.44-.39c-.14.13-.29.26-.44.39zm.87-.8c.14-.14.29-.27.43-.41-.14.14-.28.28-.43.41zm.82-.82c.14-.15.28-.29.41-.44-.13.15-.27.29-.41.44zm.77-.86c.13-.16.27-.31.4-.47-.13.16-.26.31-.4.47zm.69-.84a17.36 17.36 0 0 0 .74-1.01 37.39 37.39 0 0 1-.74 1.01zm1.03-1.43c.12-.18.23-.37.35-.55-.11.19-.23.37-.35.55zm.59-.96c.11-.19.22-.38.32-.58-.11.19-.21.39-.32.58zm.55-.99c.1-.19.2-.39.29-.59-.09.2-.19.39-.29.59zm.49-1.02c.09-.2.18-.4.26-.61-.09.2-.17.41-.26.61zm.44-1.04l.24-.63c-.08.21-.15.42-.24.63zm.38-1.05c.07-.22.15-.44.21-.66l-.21.66zm.33-1.07c.07-.23.13-.47.19-.7-.06.24-.12.47-.19.7zm.27-1.07a20.72 20.72 0 0 0 .17-.76c-.05.26-.11.51-.17.76zm.2-.98a24.75 24.75 0 0 0 .39-4.08 24.96 24.96 0 0 1-.39 4.08zm.39-4.33a27.03 27.03 0 0 0-.02-.89l.02.89zm-.03-1.19a13.46 13.46 0 0 0-.06-.88l.06.88zm-.08-1.21l-.09-.88c.04.29.07.58.09.88zm-.14-1.22l-.13-.88c.05.29.09.59.13.88zm-.19-1.23c-.05-.3-.11-.59-.17-.89l.17.89zm-.24-1.21l-.22-.95c.08.32.15.63.22.95zm-.28-1.16c-.51-1.93-1.22-3.89-2.14-5.86.92 1.97 1.63 3.93 2.14 5.86zm-2.21-6c-.16-.34-.33-.68-.5-1.02l.5 1.02zm-.64-1.29l-.52-.96a45.19 45.19 0 0 1 .52.96zm-.7-1.29l-.55-.94a28.9 28.9 0 0 1 .55.94zm-.76-1.28l-.59-.94.59.94zm-.81-1.27c-.21-.32-.42-.64-.65-.95l.65.95zm-.85-1.24l-.72-1c.25.33.49.67.72 1zm-.87-1.2l-.83-1.08h0c.29.36.56.72.83 1.08zm62.49-132.26c8.98-4.75 20.08 2.96 24.43 11.19-11.53 0-19.45-1.72-24.43-11.19z"
     fill="#bfbab7"
     id="path10" />
  <path
     d="M217.82 302.67c-12.61-21.8-29.71-43.61-56.82-43.03-74.06 1.58-5.25 107.4 48.71 105.72 9.84-.31 22.75-5.58 22.75-5.58s-.3-.29-1.04-.29c-5.53-.05-29.53-.1-34.53-2.41-6.78-3.13-17.01-7.93-26.37-15.35-63.86-50.64-25.64-101.56 27.14-58.72 8.67 7.04 18.5 18.82 19.97 19.78.16.1.24.07.19-.09z"
     fill="#4d4039"
     id="path12" />
  <path
     d="M268.38 468.02l.07.19h0c-.02-.07-.04-.13-.07-.19zm36.65 67.35c3.92-1.59 3.95-2.53 8.55-5.7 3.15-2.17 5.17-3.65 8.32-5.92 6.16-4.42 11.27-6.87 13.12-15.85-1.38-3.18 10.19-6.32 5.23-8.05-1.57-.55-.48-3.72-1.81-4.19 2.2-2.82-8.81 1.16-10.11-2.63-2.95-8.62-10.18-13.32-17.79-17.54-3.03-1.68-9.17-13.65-17.65-17.22-1.14-2.88-11.35-1.34-12.37-4.29-4.72 3.33-8.56 9.4-12.14 14.03-1.41 1.13-2.37 1.7-2.99 3.05-2.6 2.1-2.53 2.13-4.97 4.51-14.06 13.69-16.47 11.77-37.68 10.52-9.71-.53-16.96-2.34-22.74-4.49l-.01-.08c-3.46-2.27-11.42-5.29-16.32-8.19-2.34-1.44-3.11-2.73-5.76-1.77-4.36 1.58-3.77 16.11-2.64 20.43 4.01 15.39 28.82 36.81 43.34 42.24 5.96 2.23 18.64 8.04 23.29 9.28-1.46 2.18-10.19 9.36-13.23 10.17 1.14 4.28 17.11 18.05 21.38 24.42 7.5-3.6 40.36-6.89 38.74-11.75a18.71 18.71 0 0 1 .95-1.82c1.25-2.11 4.08-4.72 5.1-6.77 1.76-3.52 5.14-9.27 6.11-13.04 1.46-2.35 4.24-6.72 4.08-9.35zm-49.6 7.11l-.33.41a9.91 9.91 0 0 1 .33-.41zm-1.63 2.4c-.02.05-.05.1-.07.15.02-.05.05-.1.07-.15zm-.07.15c.09.04.19.09.28.13-.09-.05-.19-.09-.28-.13zm4.68 2.88l.63.46c-.21-.16-.42-.31-.63-.46zm-6.32-25.53l-.47-.48.47.48zm-.68-.7c-.15-.15-.29-.31-.44-.47.14.16.29.31.44.47zm-.66-.71l-.42-.48.42.48zm-.62-.71c-.15-.17-.29-.34-.44-.52l.44.52zm-.5-.6c-.34-.42-.67-.84-.99-1.27.32.43.65.85.99 1.27zm-1.04-1.34l-.39-.55.39.55zm-.57-.79l-.36-.53.36.53zm-.54-.8l-.35-.54.35.54zm-.51-.79l-.35-.57c.11.19.23.38.35.57zm-.4-.66c-.25-.42-.49-.85-.73-1.29a28.05 28.05 0 0 0 .73 1.29zm-.83-1.48c-.1-.18-.19-.37-.29-.56.09.19.19.37.29.56zm-.44-.85l-.26-.54a13.29 13.29 0 0 0 .26.54zm-.41-.87c-.08-.17-.16-.34-.23-.52.08.17.15.35.23.52zm-.38-.86c-.08-.18-.15-.35-.22-.53.07.18.15.35.22.53zm-.33-.8l-.38-1.02c.12.34.25.68.38 1.02zm-.52-1.39c-.06-.17-.11-.34-.17-.51.05.17.11.34.17.51zm-.29-.89c-.05-.16-.1-.32-.14-.49.05.16.09.32.14.49zm-.26-.91l-.12-.46.12.46zm-.23-.9c-.04-.15-.07-.3-.1-.45.03.15.07.3.1.45zm-.25-1.18c-.03-.16-.06-.32-.08-.48.03.16.05.32.08.48zm-.17-.97l-.06-.44.06.44zm-.12-.88c-.02-.15-.03-.29-.04-.44.01.15.03.29.04.44zm-.08-.89l-.03-.42.03.42zm-.05-.9c0-.13-.01-.26-.01-.38 0 .13.01.25.01.38zm-.01-1.19c0-.11.01-.22.01-.34-.01.11-.01.22-.01.34zm.04-.86l.03-.37-.03.37zm.08-.84c.01-.12.03-.24.05-.37-.02.12-.03.24-.05.37zm.12-.85l.06-.34-.06.34zm.17-.9c.02-.08.03-.17.05-.25a2.21 2.21 0 0 0-.05.25zm.26-1.03a2.25 2.25 0 0 1 .08-.24 2.25 2.25 0 0 1-.08.24zm.25-.78a2.49 2.49 0 0 1 .11-.29c-.04.1-.07.19-.11.29zm.29-.77c.04-.1.08-.2.13-.3-.04.1-.08.2-.13.3zm.34-.76c.04-.09.09-.19.14-.28-.05.09-.09.19-.14.28zm.43-.83c.03-.05.06-.11.09-.16-.03.05-.06.11-.09.16zm.52-.85c.04-.06.09-.12.13-.18-.04.06-.09.12-.13.18zm.48-.68l.18-.24-.18.24zm.53-.66l.21-.24-.21.24zm.59-.65c.07-.07.13-.14.2-.21-.07.07-.13.14-.2.21zm.72-.7c.04-.03.07-.07.11-.1-.04.03-.07.07-.11.1zm.79-.66c.07-.05.13-.1.2-.15-.07.05-.13.1-.2.15zm.73-.53l.27-.18-.27.18zm.78-.51c.1-.06.2-.12.29-.18-.1.06-.2.12-.29.18zm.87-.49c.09-.05.18-.1.27-.14-.09.05-.18.09-.27.14zm2.09-.96c.1-.04.2-.07.29-.11-.1.04-.2.07-.29.11zm.99-.36c.12-.04.25-.08.38-.12l-.38.12zm1.05-.32c.13-.04.27-.07.4-.11l-.4.11zm1.14-.29l.38-.09-.38.09zm2.75-.5c.13-.02.26-.03.39-.05-.13.02-.26.03-.39.05zm1.28-.14c.16-.01.32-.03.48-.04-.16.01-.32.03-.48.04zm1.34-.1l.51-.03-.51.03zm1.46-.06c.15 0 .3-.01.45-.01-.15 0-.3.01-.45.01z"
     fill="#826552"
     id="path14" />
  <path
     d="M330.69 504.64c7.67 2.67 12.99 3.98 22.23 5.26 5.92.82 15.28 1.91 21.31 2.13 14.53.52 27.79-3.86 36.42-9.2v-.02c.41-.06.82-.15 1.22-.26.23-.07 16.77.09 19.43-.24 8.1-1.01 8.45-1.95 15.39-4.19.54-.17 6.81-.61 7.82-1.32.88-.63 11.6-2.18 12.89-2.24 12.2-.59 22.09 9.08 22.24 9.07.63-.05 1.07-.05 1.41-.06l-.01.27c7.05 2.91 12.9-1.34 17.35-4.07 18.88-7.41 42.55-31.65 45.66-36.81-6-9.1-10.86-11.94-16.7-25.43-6.15-14.19-.43-38.43 3.01-50.25-22.45 1.92-95.91 5.07-119.65 6.49-48.46 2.89-83.46 3.61-130.21-6.75-21.57-4.78-63.84-59.24-62.84 10.46 1.18 11.46 7.36 20.22 14.25 27.01-6.62 4.43-8.36 5.95-12.22 13.23 5.55-1.29 11.95-6.25 16.29-9.16 14.9 11.58 14.18 10.74 33.59 15.26 0 30.23 24.48 51.56 51.11 60.82z"
     fill="#bfbab7"
     id="path16" />
  <use
     xlink:href="#B"
     fill="#4d4039"
     id="use18" />
  <path
     d="M454.74 588.07l.24-.18-.24.18zm47.78-21.47l-5.16-15.01c-1.42-2.44.73.11-1.6-1.98.58-3.06-1.15-9.52-3.42-11.69-.38-5.56-1.03-9.69-1.02-16.8.01-5.73.33-11.63-.28-17.3.27-8.45 3.15-24.35-2.02-29.21-6.76-3.96-16.75-10.91-24.96-6.36-1.13 1.02-1.23.74-2.25 2.85-12.09 1.21-25.12 3.26-34.49 8.47-4.18 2.33-10.09 6.58-12.46 8.88-4.66 4.55-5.62 5.97-4.22 14.35.35 3.61.61 4.43 1.25 7.15l1.75 6.44c.06.17.17.51.31.74.54 4.17.41 2.9 1.02 6.01 1.55 26.35 2.72 18.21-12.93 36.92-5.64 6.74-11.38 14.17-19.28 18.38l-3.97 2.11-4.54 3.02c-1.01-.09-19.36 2.16-20.36 2.65-.9.9-3.91 17.42 13.01 21.59 18.35 4.52 63.09 12.94 76.84-.98 2.87-2.91 5.65-8.06 8.9-10.44 0 9.43-6.5 12.69 12.18 13.26 6.81.21 18.79.8 22.17-5.38l15.65-32.3c1.17-3.04 1.69-1.99-.12-5.39zm-22.91-2.15l-1.93 14.69 1.93-14.69h0zm-24.17 23.08a4.28 4.28 0 0 0 .26-.19 4.28 4.28 0 0 0-.26.19zm.69-.5l.29-.2-.29.2zm.68-.46a4.79 4.79 0 0 0 .29-.19 4.79 4.79 0 0 0-.29.19zm.66-.43c.09-.06.19-.12.28-.17-.09.06-.19.11-.28.17zm1.3-.77c.09-.05.18-.1.28-.15-.09.05-.18.1-.28.15zm-44.73-68.23h0-.07l.07-.01zm50.01-48.88a6.12 6.12 0 0 1 .5.39c-.16-.13-.33-.27-.5-.39z"
     fill="#826552"
     id="path20" />
  <path
     d="M264.97 472.3l-.78 11.91c-34.3-.73-23.2 36.15-2.64 44.63-2.04 4.62-8.22 9.07-12.52 12.05-7.6-3.84-14.14-8.25-22.23-11.75-12.89-5.57-23.21-10.57-32.01-19.53 3.09-6.91 5.91-19.52 5.21-28.08-3.46-2.27-11.42-5.29-16.32-8.19-2.34-1.44-3.11-2.73-5.76-1.77-4.36 1.58-3.77 16.11-2.64 20.43 4.01 15.39 28.82 36.81 43.34 42.24 5.96 2.23 18.64 8.04 23.29 9.28-1.46 2.18-10.19 9.36-13.23 10.17 1.14 4.28 17.11 18.05 21.38 24.42 7.5-3.6 40.36-6.89 38.74-11.75 0 0-4.33-.37-5.51-1.01-13.68-7.39-23.28-17.39-29.55-20.3 1.59-3.61 9.95-10.78 13.63-12.75 8.25 4.12 23.35 11.18 33.59 12.43 1.46-2.35 4.24-6.72 4.08-9.35-1.68-2.03-22.22-8.75-27.16-14.12 6.18-6.62 13.24-11 19.01-18.75 5.76-.37 14.36-2.66 10.32-3.88-1.78-.53-7.23 1.31-9.81-2.42-2.41-3.48.78-6.89 1.98-9.9-1.19-1.09-2.34-2.22-3.44-3.38-2.19 3.55-3.34 13.42-3.11 17.83-6.16 5.01-12.84 13.17-20.36 17.5-14.09-9.33-30.53-24.08-5.55-29.45 5.12-1.1 2.84-16.96 1.48-20.78-1.77 1.42-2.84 1.95-3.4 4.28zm16.91-198.58c-31.02 10.95-18.65 71.74 12.04 61.31 12.5-4.25 19.94-20.86 17.16-37.64-2.2-13.25-13.12-29.33-29.2-23.66zm125.02 10.07c-30.05 10.03-19.51 70.58 11.44 61.61 12.1-3.51 20.33-20.03 17.96-36.88-1.97-13.99-13.07-30.18-29.4-24.73z"
     fill="#4d4039"
     id="path22" />
  <path
     d="M406.9 283.79c16.33-5.45 27.43 10.74 29.4 24.73 2.37 16.85-5.86 33.37-17.96 36.88-30.95 8.97-41.49-51.58-11.44-61.61zm3.01-40.28c-7.56.92-20.53 17.47-24.96 24.8-21.04 34.78-4.74 83.7 33.58 100.71 39.52 17.54 83.19 2.43 102.21-36.25 5.27-10.72 9.09-30.28 4.67-43.27l-17.67-26.9c-17.67-23.12-52.54-33.34-81.4-24.15-4.69 1.49-11.67 5.09-16.43 5.04zm-128.03 30.21c16.08-5.67 27 10.41 29.2 23.66 2.78 16.78-4.66 33.39-17.16 37.64-30.69 10.44-43.06-50.36-12.04-61.31zm-37.87-7.22c-2.18 14.26-4.49 21.4-.93 36.69 2.47 10.63 8.6 22.03 14.13 27.67 7.11 7.25 12.46 12.72 25.14 16.59 32.92 10.07 65.15-14.94 69.78-51.99 2.76-22.1-7.57-50.51-22.81-58.88l-2.16.11c-16.15-7.13-29.06-17.18-50.78-7.73-12.3 5.35-20.83 16.96-26.73 27.58-2.13 3.84-3.56 7.39-5.64 9.96z"
     fill="#fff"
     id="path24" />
  <path
     d="M570.73 462.13c4.37 2.31 8.78 4.94 15.27 5.09-3.58-5.35-7.5-7.14-13.23-10.17.57-2.42 1.07-5.12 2.04-7.12h34.61c-1.45-5.43-7.01-6.49-13.21-7.15-6.93-.73-12.19-.99-20.39-.99.35-4.22 1.02-5.72 1.02-11.45-11.16 1.69-20.77 2.12-31.47-.82-10.26-2.82-16.55-8.29-23.6-10.89-8.49 9.89-7.21 33.95.63 42.97 4.61 5.3 9.05 9.09 15.46 13.02 10.62 13.14 22.29 15.26 32.86-12.49z"
     fill="#bfbab7"
     id="path26" />
  <path
     d="M532.04 511.98h0zm56.07-139.95c-.68 1.02 1.3 2.93 1.98 3.81.51.67 1.28 1.5 1.86 2.18.95 1.12 1.82 1.94 2.69 3.17.91 1.3 1.41 1.79 2.26 3.26.53.91 1.64 2.96 2.81 2.97 1.04.01.54 1.57 1.48 1.09 1.89 3.9 3.7 6.63 3.99 12.4 22.23 4.87 92.53 36.03 62.53 62.5-30.8 27.18-112.28 36.18-145.3-1.81-7.84-9.02-7.34-34.41 1.15-44.29-7.01-8.08-13.48-10.87-17.69-24.24-62.8 6.42-159.84 18.22-221.8 1.57-75.27-20.22-114.63-59.85-94.29-138.23 11.77-45.36 25.79-71.61 55.51-108.32 10.35-12.79 29.47-32.39 36.69-45.75 8.04-14.86-4.16-26.81-29.88-26.81 5.83-7.95 16.83-3.45 26.89-1.44l89.16 17.72 138.69 21.37 9.91-11.38c1.43-1.31-10.23-3.68-9.16-4.82-36.21-5.19-73.4-10.16-109.33-16.95L307.5 61.87C260.87 51.6 599.96-29.34 766.49 49.8c86.5 43.65-223.8 54.71-234.26 49.75 1.78 11.02 8.99 3.4 23.31 17.94 63.69 1.61 181.72 2.69 229.25-40.67 11.84-10.8 9.3-29.15-8.2-40.17-24.45-15.4-104.26-29.3-131.72-32.16C535.52-4.04 457.88-2.06 349 24.87c-17.2 4.25-87.45 28.64-93.82 28.34-18.81-.89-38.9-4.24-58.06-4.14-49.62.28-78.13-1.07-127.9 15.66-14.1 4.74-83.39 26.65-66.63 49.54 6.5 8.88 21.49 10.25 29.6 12.14 0 18.71 34.85 10.22 52.07 8.29 57.77-6.48 82.03-6.24 137.26-33.75 6.54-3.26 22.1-4.04 30.57-4.04-12.28 18.32-26.5 34.5-39.38 56.28-34.46 58.28-94.78 167.48-25.79 220.45 28.74 22.06 64.06 33.57 99.09 41.33 46.75 10.36 90.45 16.15 138.91 13.25 23.74-1.42 45.88-5.98 68.34-7.9-3.44 11.82-11.79 26.22-5.65 40.41 5.84 13.49 13.87 18.7 22.68 26.83-3.11 5.16-3.06 5.67-1.9 12.21 2.55 13.95 20.55 40.41 33.82 49.87 24.5 17.47 47.11 18.3 73.75 38.21 5.76 4.3 10.75 7.89 16.06 12.44 9.98 8.56 15.31-1.54 14.72-5.54-3.11-21.32-83.97-47.57-102.73-66.23-3.59-3.57-10.63-11.54-11.96-16.53 4.95 1.32 15.45 11.58 44.2 17.89 36.24 7.95 101.43 12.85 113.35-33.39 2.91-11.31 5.89-4.42 14.95-16.6 12.44-16.71 16.55-42.08 1.35-57.19-17.42-17.31 6.68-9.09-36.69-40.66-13.66-9.94-73.64-21.18-81.09-10zm38.61 146.05c-14.68 0-56.77-1.26-68.21-11.19 11.98 0 36.2 4.07 59.05 4.07 21.35 0 32.04.34 51.92-10.17-2.79 10.43-28.22 17.3-42.76 17.3zm65.15-50.87c0-8.52-2.34-5.95 1.32-12.89 1.72-3.25 3.95-7.96 4.78-11.52 6.01 3.37-3.51 19.62-6.11 24.42zM68.84 107.07c-1.5 0-3.02-3.77-6.54-4.72-8.09.58-26.97-1.19-29.09 6.75-42.03 0 30.67-32.73 82.22-42.58s75.28-4.74 102.63-.74c39.14 5.72-19.34 9.71-26.64 11.18-39.94 8.04-79.73 30.1-122.58 30.1z"
     fill="#a98d6f"
     id="path28" />
  <path
     d="M240.89 257.71c-2.05 1.53-1.82 1.28-3.05 5.12 3.44-1.42 4.28-3.49 6.7-5.83l-3.64.71z"
     fill="#b3adaa"
     id="path30" />
  <g
     fill="#4d4039"
     id="g36">
    <path
       d="M409.91 243.52c4.76.05 11.74-3.55 16.43-5.04 28.86-9.18 63.73 1.03 81.4 24.15l17.67 26.9c3.31 2.02 14.55 11.58 22.35 7.79 2.59-1.26-18.78-8.09-21.5-18.93 9.87 2.07 19.86-2.18 20.45-10.98.27-4.02-9.19 9.98-23.55 3.25 4.61-3.3 12.79-3.28 11.69-12.76-.6-5.16-4.27 5.02-14 6.19-15.01-19.39-22.07-28.74-47.3-35.5-23.91-6.41-64.96-.95-63.64 14.93zm-172.25-1.14c2.58 3.29 4.78 5.04 9.34 6.1-4.75 6.47-18.65 2.15-24.43 3.05-7.59 1.19 12.97 7.24 18.32 6.18l3.64-.71c-2.42 2.34-3.26 4.41-6.7 5.83l-18.26 9.12c-7.47 4.39 7.93 1.71 9.09 1.51 8.23-2.01 17.95-7.32 22.2-14.98 5.9-10.62 13.19-18.01 25.5-23.36 21.72-9.44 34.9-3.88 51.05 3.25l1.2-1.13.7-.65c-6.87-14.87-30.15-17.24-48.79-11.55-8.88 2.71-16.05 7.12-21.79 11.8-3.1 2.53-4.72 6.82-9.43 6.35-5.77-.57-12.87-10.22-11.66-.81zm143.4 116.6c3.03 1.28 4.92 2.08 8.76 2.36l-8.44-9.09c-3.89 5.19 1.41 3.82-8.7 6.56-4.81 1.3-8.59 2.33-13.67 2.67-5.01.33-10.02-.06-14.42-1.94-8.06-3.44-9.29-10.38-10.3-6.88-5.35 18.45 36.85 20.97 46.77 6.32zM505.28 98.56l-13.95 12.57c-3.76 2.57-8.55 7.03-12.35 10.06-4.41 3.52-8.69 7.13-13.67 10.39 4.76 3.21 15.17 1.94 22.56 3.44 13.73 2.8 41.1 13.58 47.26 25.74-93 3.64-71.01-30.47-105.52-49.99-10.43-5.9-21.18-4.48-24.3 10.11-2.19 10.24 6.47 24.65 13.77 30.93 26.75 23.01 43.44 17.84 73.52 27.25 25.39 7.95 45.61 22.56 69.05 30.71 20.84 7.25 19.58 1.84 25.39-2 9.92-14.63 22.77-46.69 2.65-54.52-5.04-1.96-8.56-1-13.85-.41l-27.49 5.09c5.32-7.94 15.43-16.35 17.94-27.88 2.27-10.45-4.99-18.66-13.87-22.99-4.92-2.4-11.77-4.68-16.66-7.12-5.84-2.37-3.95-8.08-12.85-8.25-4.74-.09-14.02 3.58-17.62 6.85z"
       id="path32" />
    <path
       d="M465.32 131.58c4.77 3.19 15.16 1.92 22.53 3.43 13.73 2.8 41.1 13.58 47.26 25.74-6.16-12.17-29.45-26.37-43.18-29.17-7.39-1.51-20.01 1.93-24.77-1.28-.28.2-.93.65-1.85 1.28zm69.8 29.17c-55.05 2.16-69.81-8.92-79.84-22.36l-13.78 9.65c-2.75 4.88 30.45 13.1 33.53 14.08 13.5 4.3 27.1 3.2 41.18 4.29 5 .39 15.5.62 20.31-1.6 2.39-1.1 1.14-2.65-.59-3.67.58-.02-1.37-.36-.8-.38zm-30.39 232.57c5.78 18.36 22.46 31.19 40.65 36.19 15.1 4.15 39.48 2.14 52.31-7.6 5.6-4.25 9.03-11.22 8.55-20.83-.92-18.03-10.6-27.13-25.95-33.29 32.05 27.73 14.13 64.6-32.79 51.43-15.96-4.48-27.78-13.28-32.69-27.38-9.1-26.11 22.19-27.61 26.71-31.59-15.98-4.68-43.7 7.82-36.78 33.07zm-42.92 77.8c.05 6.77 1.19 13.01 1.07 20.51-.1 6.42-1.49 15.77 2.08 20.25 3 3.77 3.19.56 4.89 6.17 1.98 6.52 4.29 23.05 3.92 29.25-17.16 6.19-51.38 17.97-34.2-10.91-4.77-4.64-20.21-19.76-25.62-19.23.54 4.17.41 2.9 1.02 6.01 8.09 4.87 11.06 10.11 16.58 12.91-5.32 9.84-15.2 24.91 3.3 31.34 13.43 4.67 28.66-1.98 40.15-5.49.77 29.43-5.17 13.78-20.98 26.71-7.16 5.85-5.61 8.56-15.46 13.06-16.81 7.68-28.73 7.59-48.02 4.38l-1.38-3.21c-1.92-6.06-5.6-18.05-14.91-19.27-1.01-.09-19.36 2.16-20.36 2.65-.9.9-3.91 17.42 13.01 21.59 18.35 4.52 63.09 12.94 76.84-.98 2.87-2.91 5.65-8.06 8.9-10.44 0 9.43-6.5 12.69 12.18 13.26 6.81.21 18.79.8 22.17-5.38l15.65-32.3c1.17-3.04 1.69-1.99-.12-5.39-7.66 4.17-13.68 10.16-24.84 12.53l2.61-19.8c3.62-1.5 14.08-6.54 15.47-9.72.58-3.06-1.15-9.52-3.42-11.69l-13.15 6.99-4.7-29.33c4.46-.99 5.57-2.37 6.16-7.18-24.53 17.09-1.65-29.5-16.59-40.14-1.13 1.02-1.23.74-2.25 2.85z"
       id="path34" />
  </g>
  <g
     fill="#fff"
     id="g42">
    <ellipse
       cx="402.97"
       cy="305.2"
       rx="5.27"
       ry="8.27"
       id="ellipse38" />
    <ellipse
       cx="277.14"
       cy="293.86"
       rx="5.1"
       ry="8"
       id="ellipse40" />
  </g>
  <path
     d="M487.84 134.99c-7.37-1.5-17.76-.24-22.53-3.43l-10.05 6.81c10.04 13.44 24.8 24.52 79.85 22.36-6.16-12.17-33.53-22.94-47.26-25.74z"
     fill="#826552"
     id="path44" />
  <defs
     id="defs47">
    <path
       id="B"
       d="M441.49 148.04c-2.75 4.88 30.45 13.1 33.53 14.08 13.5 4.3 27.1 3.2 41.18 4.29 5 .39 15.5.62 20.31-1.6 2.39-1.1 1.14-2.65-.59-3.67.58-.02-1.37-.36-.8-.38-6.16-12.17-29.45-26.37-43.18-29.17-7.39-1.51-20.01 1.93-24.77-1.28-2.13 1.54-25.25 16.97-25.68 17.73z" />
  </defs>
</svg>
