<?xml version="1.0" encoding="UTF-8" standalone="no"?>
<svg
   xmlns:dc="http://purl.org/dc/elements/1.1/"
   xmlns:cc="http://creativecommons.org/ns#"
   xmlns:rdf="http://www.w3.org/1999/02/22-rdf-syntax-ns#"
   xmlns:svg="http://www.w3.org/2000/svg"
   xmlns="http://www.w3.org/2000/svg"
   xmlns:xlink="http://www.w3.org/1999/xlink"
   xmlns:sodipodi="http://sodipodi.sourceforge.net/DTD/sodipodi-0.dtd"
   xmlns:inkscape="http://www.inkscape.org/namespaces/inkscape"
   width="1126.752"
   height="1126.752"
   viewBox="0 0 696.13 696.13836"
   version="1.1"
   id="svg102"
   sodipodi:docname="dusty-right.svg"
   inkscape:version="0.92.5 (2060ec1f9f, 2020-04-08)"
   style="fill-rule:evenodd;image-rendering:optimizeQuality;shape-rendering:geometricPrecision">
  <title
     id="title1456">Dusty</title>
  <metadata
     id="metadata106">
    <rdf:RDF>
      <cc:Work
         rdf:about="">
        <dc:format>image/svg+xml</dc:format>
        <dc:type
           rdf:resource="http://purl.org/dc/dcmitype/StillImage" />
        <dc:title>Dusty</dc:title>
        <dc:creator>
          <cc:Agent>
            <dc:title>Jenny &quot;Jennipuff&quot; Wheat</dc:title>
          </cc:Agent>
        </dc:creator>
        <cc:license
           rdf:resource="http://creativecommons.org/licenses/by-sa/4.0/" />
      </cc:Work>
      <cc:License
         rdf:about="http://creativecommons.org/licenses/by-sa/4.0/">
        <cc:permits
           rdf:resource="http://creativecommons.org/ns#Reproduction" />
        <cc:permits
           rdf:resource="http://creativecommons.org/ns#Distribution" />
        <cc:requires
           rdf:resource="http://creativecommons.org/ns#Notice" />
        <cc:requires
           rdf:resource="http://creativecommons.org/ns#Attribution" />
        <cc:permits
           rdf:resource="http://creativecommons.org/ns#DerivativeWorks" />
        <cc:requires
           rdf:resource="http://creativecommons.org/ns#ShareAlike" />
      </cc:License>
    </rdf:RDF>
  </metadata>
  <sodipodi:namedview
     pagecolor="#ffffff"
     bordercolor="#666666"
     borderopacity="1"
     objecttolerance="10"
     gridtolerance="10"
     guidetolerance="10"
     inkscape:pageopacity="0"
     inkscape:pageshadow="2"
     inkscape:window-width="1920"
     inkscape:window-height="1049"
     id="namedview104"
     showgrid="false"
     inkscape:zoom="0.26996851"
     inkscape:cx="-279.31489"
     inkscape:cy="437.08801"
     inkscape:window-x="0"
     inkscape:window-y="0"
     inkscape:window-maximized="1"
     inkscape:current-layer="svg102" />
  <path
     d="m 151.56244,369.79569 c -12.99,21.01 -60.169995,20.75 -38.44,-11.69 -25.549995,0 -24.159995,-13.75 -7.42,-26.19 11.25,-8.37 23.87,-12.97 42.95,-13.06 0.26,-0.02 0.47,-0.03 0.62,-0.01 l 0.15,0.15 h 7.77 c 0,0.02 0.13,-0.11 0.13,-0.09 h 0.03 c 1.82,7.52 1.55,14.43 0.78,23.1 -0.05,7.86 0.99,16.69 0.59,23.22 -0.08,0.11 -0.79,0.99 -0.79,1.01 -2.08,1.58 -3.68,2.28 -6.36,3.57 z"
     id="path55"
     inkscape:connector-curvature="0"
     style="fill:#bfbab7" />
  <g
     id="g61"
     style="fill:#4d4039"
     transform="translate(0.0224446,78.025686)">
    <use
       xlink:href="#B"
       id="use57"
       x="0"
       y="0"
       width="100%"
       height="100%" />
    <path
       d="m 158.69,287.19 c -1.88,2.62 -3.61,3.67 -7.15,4.58 -3.82,-20.27 -4.54,-29.6 -2.29,-50.97 h 8.08 c 1.82,7.52 1.54,14.5 0.77,23.16 -0.05,7.86 0.99,16.69 0.59,23.22 z"
       id="path59"
       inkscape:connector-curvature="0" />
  </g>
  <path
     d="m 478.70244,296.17569 0.17,0.88 c 4.38,5.24 15.33,1.99 20.37,2.39 6.41,0.51 -10.48,4.88 -14.89,4.65 -2.5,-0.19 -5.68,-1.36 -2.36,1.96 1.16,1.35 2.53,2.98 4.68,3.87 l 15.83,7.35 c 3.82,2.62 -7.46,0.27 -7.33,1.09 1.76,4.22 3.63,7.59 5.38,12.02 1.48,3.73 3.43,9.08 4.41,13.22 13.07,-17.36 25.78,-34.45 49.07,-34.56 61.5,-0.28 1.87,88.16 -41.95,88.48 -8.65,0.06 -19.7,-3.53 -19.7,-3.53 0,0 -0.38,0.07 0,0 -3.16,-0.27 -0.7,3.39 2.36,14.87 1.2,4.51 -2.39,4.99 -6.14,6.53 -4.82,1.98 -9.48,3.61 -14.26,5.82 -5.57,2.58 -11.44,4.43 -17.58,4.84 -1.75,0.12 -2.74,0.46 -4.76,0.46 -2.99,0 -2.87,1.35 -4.78,-1.24 -0.14,-0.19 -0.27,-0.36 -0.37,-0.52 l -0.36,0.1 c -54.46,14.63 -138.75,4.49 -193.94,-1.15 -5.08,16.13 -21.47,25.8 -37.45,30.2 -13.27,3.65 -30.99,2.01 -42.27,-6.56 -14.2,-12.29 -7.65,-32.21 4.94,-41.94 l 0.07,-0.81 -0.08,0.03 c -5.9,-1.99 -15.69,-21.93 -17.59,-27.39 -4.62,-13.28 -3.31,-44.92 -2.87,-58.48 0.34,-10.54 5.88,-26.54 5.02,-28.61 -0.68,-1.64 -0.68,-2.28 -4.6,-3.45 -7.1,-2.11 -13.99,-1.68 -21.22,-0.88 -10.72,1.18 -5.94,0.72 -5.5,7.04 0.79,11.38 -20.39,20.38 -30.74,16.4 -12.769995,-4.92 1.19,-15.4 3.9,-19.1 -6.499995,0 -18.599995,3.29 -24.489995,5.04 -7.82,2.32 -15.35,5.72 -22.93,7.48 7.4,-11.04 39.93,-19.56 50.969995,-19.71 10.11,-0.14 5.94,1.6 14.9,-1.17 14.02,-4.33 30.49,-6.46 43.28,2.1 1.11,-1.86 3.52,-8.63 7.05,-14.24 4.31,-6.83 22.53,-20.79 28.96,-23.03 6.85,-2.38 11.18,0.32 17.32,-2.82 12.84,-6.56 13.34,-11.84 28.08,-16.45 26.43,-8.27 13.91,-2.68 50.25,-13.45 7.74,-6.66 37.3,-16.95 40.3,-21.38 2.6,2.78 12.37,9.34 15.94,11.78 17.67,-9.34 22.57,-9.84 45.63,-9.84 5.24,-9.9 15.44,-25.96 26.84,-28.61 -1.43,6.13 -14.54,23.16 -18.79,29.51 2.86,0.67 6.18,1.05 8.98,1.76 16.49,4.17 30.55,14.24 39.84,16.52 19.23,4.73 37.08,29.61 44.84,46.39 6.06,13.09 6.94,26.54 -10.45,14.91 1.33,5.72 2.35,14.41 -3.42,16.09 -3.18,2.06 -4.77,4.06 -8.57,5.12 z m -265.56,150.8 c -0.2,0.05 -0.39,0.1 -0.59,0.14 z m -1.81,0.43 -0.67,0.15 c 0.22,-0.05 0.45,-0.09 0.67,-0.15 z m -1.76,0.37 -0.72,0.14 a 18.27,18.27 0 0 0 0.72,-0.14 z m -1.74,0.32 -0.71,0.12 c 0.24,-0.04 0.47,-0.07 0.71,-0.12 z m -1.7,0.26 -0.7,0.09 z m -1.67,0.21 a 15.66,15.66 0 0 1 -0.68,0.07 z m -1.63,0.16 -0.66,0.05 c 0.22,-0.01 0.44,-0.03 0.66,-0.05 z m -1.63,0.11 -0.6,0.03 z m -1.68,0.06 c -0.15,0 -0.3,0.01 -0.45,0.01 0.15,0 0.3,-0.01 0.45,-0.01 z m -3.4,-0.07 c -0.16,-0.01 -0.31,-0.02 -0.46,-0.04 0.15,0.01 0.31,0.03 0.46,0.04 z m -1.41,-0.11 -0.54,-0.06 z m -1.38,-0.16 c -0.19,-0.02 -0.37,-0.05 -0.56,-0.08 0.19,0.03 0.37,0.06 0.56,0.08 z m -1.33,-0.2 c -0.19,-0.03 -0.38,-0.07 -0.57,-0.1 0.19,0.04 0.38,0.07 0.57,0.1 z m -1.31,-0.25 -0.55,-0.12 z m -1.26,-0.29 c -0.18,-0.04 -0.36,-0.09 -0.53,-0.14 z m -1.23,-0.33 -0.51,-0.15 z m -1.2,-0.38 c -0.16,-0.05 -0.32,-0.11 -0.48,-0.16 0.16,0.06 0.32,0.11 0.48,0.16 z m -1.21,-0.44 -0.38,-0.15 z m -1.45,-0.61 c -0.07,-0.03 -0.13,-0.06 -0.2,-0.1 0.07,0.03 0.13,0.07 0.2,0.1 z m -1.03,-0.5 -0.39,-0.21 z m -0.99,-0.54 c -0.14,-0.08 -0.28,-0.16 -0.41,-0.25 0.14,0.08 0.27,0.17 0.41,0.25 z m -0.95,-0.57 -0.42,-0.27 c 0.14,0.09 0.27,0.18 0.42,0.27 z m -0.9,-0.61 -0.42,-0.3 z m -0.86,-0.64 -0.4,-0.32 a 11.2,11.2 0 0 0 0.4,0.32 z m -0.82,-0.67 -0.39,-0.34 c 0.13,0.11 0.26,0.23 0.39,0.34 z m -0.77,-0.7 -0.38,-0.36 a 13.28,13.28 0 0 0 0.38,0.36 z m -0.72,-0.72 c -0.12,-0.13 -0.25,-0.26 -0.36,-0.39 z m -0.68,-0.75 c -0.12,-0.14 -0.24,-0.27 -0.35,-0.41 0.11,0.14 0.23,0.27 0.35,0.41 z m -0.6,-0.74 c -0.23,-0.29 -0.44,-0.59 -0.65,-0.89 0.21,0.3 0.43,0.6 0.65,0.89 z m -0.9,-1.26 c -0.11,-0.16 -0.2,-0.32 -0.3,-0.49 z m -0.52,-0.84 c -0.1,-0.17 -0.19,-0.34 -0.28,-0.51 0.09,0.17 0.18,0.34 0.28,0.51 z m -0.48,-0.87 c -0.09,-0.17 -0.17,-0.34 -0.25,-0.52 z m -0.43,-0.89 c -0.08,-0.18 -0.16,-0.35 -0.23,-0.53 a 8.46,8.46 0 0 0 0.23,0.53 z m -0.38,-0.91 -0.21,-0.55 z m -0.34,-0.93 -0.19,-0.58 c 0.06,0.2 0.12,0.39 0.19,0.58 z m -0.29,-0.94 c -0.06,-0.2 -0.11,-0.41 -0.17,-0.62 0.05,0.21 0.11,0.41 0.17,0.62 z m -0.24,-0.94 -0.15,-0.67 c 0.04,0.23 0.09,0.45 0.15,0.67 z m -0.18,-0.86 c -0.21,-1.16 -0.33,-2.36 -0.34,-3.58 0.01,1.22 0.13,2.42 0.34,3.58 z m -0.35,-3.8 0.01,-0.78 c -0.01,0.26 -0.01,0.52 -0.01,0.78 z m 0.02,-1.05 c 0.01,-0.26 0.03,-0.51 0.05,-0.77 z m 0.07,-1.06 c 0.02,-0.26 0.05,-0.51 0.08,-0.77 z m 0.12,-1.07 c 0.03,-0.26 0.07,-0.51 0.12,-0.77 z m 0.17,-1.08 0.15,-0.79 a 10.02,10.02 0 0 0 -0.15,0.79 z m 0.21,-1.06 c 0.06,-0.28 0.13,-0.55 0.2,-0.83 z m 0.25,-1.02 c 0.45,-1.7 1.07,-3.42 1.88,-5.15 -0.81,1.73 -1.44,3.45 -1.88,5.15 z m 1.94,-5.27 a 24.53,24.53 0 0 1 0.44,-0.89 z m 0.56,-1.14 0.46,-0.84 c -0.16,0.28 -0.31,0.56 -0.46,0.84 z m 0.62,-1.13 0.48,-0.82 z m 0.66,-1.13 0.52,-0.82 c -0.18,0.27 -0.35,0.55 -0.52,0.82 z m 0.71,-1.12 a 20.76,20.76 0 0 1 0.57,-0.84 z m 0.75,-1.09 0.64,-0.88 c -0.22,0.29 -0.43,0.58 -0.64,0.88 z m 0.77,-1.05 0.73,-0.95 v 0 c -0.25,0.31 -0.49,0.63 -0.73,0.95 z m -54.92,-116.24 c -7.89,-4.17 -17.64,2.6 -21.47,9.84 10.13,0 17.1,-1.51 21.47,-9.84 z"
     id="path63"
     inkscape:connector-curvature="0"
     style="fill:#bfbab7" />
  <path
     d="m 504.71244,344.04569 c 11.08,-19.16 26.11,-38.33 49.94,-37.82 65.09,1.39 4.61,94.4 -42.81,92.91 -8.64,-0.27 -20,-4.91 -20,-4.91 0,0 0.27,-0.25 0.91,-0.26 4.86,-0.04 25.95,-0.09 30.35,-2.12 5.96,-2.75 14.95,-6.97 23.18,-13.5 56.12,-44.51 22.53,-89.26 -23.85,-51.61 -7.62,6.19 -16.26,16.54 -17.55,17.38 -0.14,0.09 -0.21,0.06 -0.17,-0.08 z"
     id="path65"
     inkscape:connector-curvature="0"
     style="fill:#4d4039" />
  <path
     d="m 460.27244,489.36569 -0.06,0.17 v 0 z m -32.21,59.2 c -3.44,-1.4 -3.47,-2.22 -7.51,-5.01 l -7.32,-5.21 c -5.41,-3.89 -9.9,-6.04 -11.53,-13.93 1.21,-2.79 -8.96,-5.56 -4.6,-7.07 1.38,-0.48 0.42,-3.27 1.59,-3.68 -1.93,-2.48 7.74,1.02 8.88,-2.31 2.59,-7.57 8.95,-11.71 15.64,-15.41 2.66,-1.48 8.06,-12 15.52,-15.13 1,-2.53 9.97,-1.18 10.87,-3.77 4.15,2.93 7.52,8.27 10.67,12.33 1.24,0.99 2.08,1.49 2.63,2.68 2.28,1.85 2.22,1.88 4.37,3.96 12.36,12.03 14.47,10.34 33.11,9.24 8.53,-0.46 14.91,-2.05 19.98,-3.95 l 0.01,-0.07 c 3.04,-1.99 10.03,-4.65 14.35,-7.2 2.06,-1.27 2.74,-2.4 5.07,-1.56 3.83,1.39 3.31,14.16 2.32,17.96 -3.53,13.53 -25.33,32.36 -38.09,37.13 -5.24,1.96 -16.39,7.06 -20.47,8.15 1.29,1.92 8.95,8.23 11.63,8.94 -1.01,3.76 -15.04,15.86 -18.79,21.46 -6.6,-3.16 -35.47,-6.06 -34.05,-10.33 a 17.16,17.16 0 0 0 -0.83,-1.6 c -1.1,-1.85 -3.59,-4.15 -4.49,-5.95 -1.54,-3.09 -4.52,-8.15 -5.37,-11.46 -1.28,-2.07 -3.73,-5.91 -3.58,-8.21 z m 43.59,6.25 c 0.1,0.12 0.19,0.24 0.29,0.36 -0.09,-0.12 -0.19,-0.24 -0.29,-0.36 z m 1.44,2.11 c 0.02,0.05 0.04,0.09 0.06,0.13 -0.02,-0.04 -0.04,-0.09 -0.06,-0.13 z m 0.06,0.13 a 5.92,5.92 0 0 1 -0.25,0.12 5.92,5.92 0 0 1 0.25,-0.12 z m -4.11,2.53 c -0.18,0.13 -0.37,0.26 -0.55,0.4 z m 5.56,-22.44 0.41,-0.42 z m 0.6,-0.62 c 0.13,-0.14 0.26,-0.27 0.38,-0.41 -0.13,0.14 -0.25,0.28 -0.38,0.41 z m 0.58,-0.63 a 13.92,13.92 0 0 0 0.37,-0.42 z m 0.55,-0.63 0.38,-0.45 z m 0.44,-0.53 c 0.3,-0.36 0.59,-0.74 0.87,-1.11 -0.28,0.38 -0.57,0.75 -0.87,1.11 z m 0.92,-1.18 0.35,-0.48 a 14.56,14.56 0 0 1 -0.35,0.48 z m 0.5,-0.7 c 0.11,-0.15 0.21,-0.31 0.32,-0.46 a 7.52,7.52 0 0 1 -0.32,0.46 z m 0.47,-0.7 c 0.1,-0.16 0.21,-0.32 0.31,-0.48 -0.1,0.16 -0.2,0.32 -0.31,0.48 z m 0.44,-0.69 c 0.1,-0.17 0.21,-0.33 0.31,-0.5 a 8.38,8.38 0 0 1 -0.31,0.5 z m 0.36,-0.58 a 41.25,41.25 0 0 0 0.64,-1.13 25.18,25.18 0 0 1 -0.64,1.13 z m 0.73,-1.3 c 0.09,-0.16 0.17,-0.33 0.25,-0.49 z m 0.38,-0.75 0.23,-0.47 c -0.07,0.16 -0.15,0.32 -0.23,0.47 z m 0.36,-0.76 0.21,-0.45 z m 0.34,-0.76 0.2,-0.47 c -0.06,0.16 -0.13,0.31 -0.2,0.47 z m 0.29,-0.7 c 0.12,-0.3 0.23,-0.6 0.34,-0.9 z m 0.45,-1.23 0.15,-0.45 z m 0.25,-0.78 c 0.04,-0.14 0.09,-0.28 0.13,-0.43 -0.04,0.14 -0.08,0.28 -0.13,0.43 z m 0.23,-0.8 c 0.04,-0.14 0.07,-0.27 0.11,-0.41 -0.03,0.13 -0.07,0.27 -0.11,0.41 z m 0.2,-0.79 0.09,-0.39 z m 0.22,-1.04 a 6.13,6.13 0 0 0 0.07,-0.42 c -0.02,0.14 -0.05,0.28 -0.07,0.42 z m 0.15,-0.85 c 0.02,-0.13 0.04,-0.26 0.05,-0.39 -0.02,0.13 -0.03,0.26 -0.05,0.39 z m 0.1,-0.78 c 0.01,-0.13 0.03,-0.26 0.04,-0.39 -0.01,0.13 -0.02,0.26 -0.04,0.39 z m 0.07,-0.78 c 0.01,-0.12 0.02,-0.24 0.02,-0.37 -0.01,0.12 -0.02,0.24 -0.02,0.37 z m 0.04,-0.79 c 0,-0.11 0.01,-0.22 0.01,-0.34 0,0.11 -0.01,0.22 -0.01,0.34 z m 0.01,-1.05 c 0,-0.1 -0.01,-0.2 -0.01,-0.3 0,0.1 0.01,0.2 0.01,0.3 z m -0.04,-0.75 -0.03,-0.32 z m -0.07,-0.74 c -0.01,-0.11 -0.03,-0.22 -0.04,-0.32 0.01,0.11 0.03,0.21 0.04,0.32 z m -0.1,-0.75 c -0.02,-0.1 -0.03,-0.2 -0.05,-0.3 0.02,0.1 0.03,0.2 0.05,0.3 z m -0.15,-0.79 c -0.02,-0.07 -0.03,-0.15 -0.05,-0.22 0.02,0.07 0.03,0.15 0.05,0.22 z m -0.23,-0.91 c -0.02,-0.07 -0.04,-0.14 -0.07,-0.21 0.02,0.07 0.05,0.14 0.07,0.21 z m -0.22,-0.69 -0.09,-0.26 z m -0.26,-0.68 c -0.04,-0.09 -0.07,-0.17 -0.11,-0.26 0.04,0.09 0.07,0.17 0.11,0.26 z m -0.3,-0.67 a 5.92,5.92 0 0 1 -0.12,-0.25 5.92,5.92 0 0 1 0.12,0.25 z m -0.38,-0.73 c -0.03,-0.05 -0.05,-0.09 -0.08,-0.14 0.03,0.05 0.05,0.09 0.08,0.14 z m -0.46,-0.75 c -0.04,-0.05 -0.08,-0.11 -0.11,-0.16 0.04,0.05 0.08,0.11 0.11,0.16 z m -0.42,-0.59 c -0.05,-0.07 -0.11,-0.14 -0.16,-0.21 0.05,0.07 0.11,0.14 0.16,0.21 z m -0.46,-0.58 -0.18,-0.21 z m -0.52,-0.57 -0.18,-0.18 z m -0.63,-0.61 a 0.9,0.9 0 0 0 -0.1,-0.09 0.9,0.9 0 0 0 0.1,0.09 z m -0.69,-0.58 c -0.06,-0.04 -0.12,-0.09 -0.18,-0.13 0.06,0.04 0.12,0.09 0.18,0.13 z m -0.64,-0.47 c -0.08,-0.05 -0.16,-0.11 -0.23,-0.16 0.08,0.05 0.16,0.1 0.23,0.16 z m -0.69,-0.45 a 3.65,3.65 0 0 1 -0.26,-0.16 3.65,3.65 0 0 1 0.26,0.16 z m -0.76,-0.43 c -0.08,-0.04 -0.15,-0.08 -0.23,-0.13 0.08,0.04 0.16,0.08 0.23,0.13 z m -1.84,-0.84 c -0.08,-0.03 -0.17,-0.06 -0.26,-0.1 0.09,0.03 0.17,0.06 0.26,0.1 z m -0.87,-0.31 c -0.11,-0.04 -0.22,-0.07 -0.33,-0.11 0.11,0.03 0.22,0.07 0.33,0.11 z m -0.93,-0.28 c -0.12,-0.03 -0.23,-0.07 -0.35,-0.1 0.12,0.03 0.24,0.06 0.35,0.1 z m -1,-0.26 c -0.11,-0.03 -0.22,-0.05 -0.33,-0.08 0.11,0.02 0.22,0.05 0.33,0.08 z m -2.42,-0.44 c -0.11,-0.01 -0.23,-0.03 -0.34,-0.04 0.11,0.01 0.23,0.03 0.34,0.04 z m -1.13,-0.13 c -0.14,-0.01 -0.28,-0.02 -0.42,-0.04 0.14,0.01 0.28,0.02 0.42,0.04 z m -1.18,-0.09 a 6.77,6.77 0 0 0 -0.45,-0.02 c 0.15,0.01 0.3,0.01 0.45,0.02 z m -1.29,-0.05 c -0.13,0 -0.26,-0.01 -0.4,-0.01 0.13,0 0.26,0.01 0.4,0.01 z"
     id="path67"
     inkscape:connector-curvature="0"
     style="fill:#826552" />
  <path
     d="m 405.51244,521.54569 c -6.74,2.35 -11.42,3.5 -19.54,4.62 -5.21,0.72 -13.43,1.68 -18.73,1.87 -12.77,0.45 -24.42,-3.39 -32.01,-8.09 v -0.01 a 7.84,7.84 0 0 1 -1.07,-0.23 c -0.2,-0.06 -14.74,0.08 -17.08,-0.21 -7.12,-0.89 -7.43,-1.71 -13.53,-3.68 -0.47,-0.15 -5.99,-0.53 -6.87,-1.16 -0.78,-0.55 -10.2,-1.92 -11.33,-1.97 -10.73,-0.52 -19.42,7.98 -19.55,7.97 a 16.78,16.78 0 0 0 -1.24,-0.05 l 0.01,0.24 c -6.2,2.56 -11.34,-1.17 -15.25,-3.58 -16.6,-6.52 -37.4,-27.82 -40.13,-32.35 5.27,-7.99 9.55,-10.49 14.68,-22.35 5.4,-12.47 0.38,-33.78 -2.64,-44.17 19.73,1.69 84.3,4.46 105.16,5.7 42.59,2.54 73.35,3.17 114.44,-5.93 18.96,-4.2 56.1,-52.07 55.23,9.19 -1.04,10.08 -6.47,17.77 -12.53,23.74 5.82,3.89 7.35,5.23 10.74,11.62 -4.88,-1.14 -10.5,-5.5 -14.32,-8.05 -13.09,10.18 -12.46,9.44 -29.53,13.41 0,26.57 -21.51,45.31 -44.92,53.46 z"
     id="path69"
     inkscape:connector-curvature="0"
     style="fill:#bfbab7" />
  <use
     xlink:href="#B"
     id="use71"
     style="fill:#4d4039"
     x="0"
     y="0"
     width="100%"
     height="100%"
     transform="translate(0.0224446,78.025686)" />
  <path
     d="m 296.48244,594.87569 -0.21,-0.16 z m -42,-18.87 4.54,-13.19 c 1.25,-2.14 -0.64,0.09 1.41,-1.74 -0.51,-2.69 1.01,-8.37 3,-10.27 0.34,-4.89 0.9,-8.52 0.9,-14.76 -0.01,-5.04 -0.29,-10.22 0.25,-15.2 -0.24,-7.43 -2.77,-21.4 1.78,-25.68 5.94,-3.48 14.72,-9.59 21.93,-5.59 0.99,0.89 1.08,0.65 1.97,2.51 10.62,1.06 22.08,2.86 30.31,7.45 3.67,2.05 8.87,5.78 10.95,7.81 4.09,4 4.94,5.24 3.71,12.61 -0.3,3.17 -0.53,3.89 -1.1,6.29 l -1.54,5.66 c -0.05,0.15 -0.15,0.45 -0.27,0.65 -0.47,3.66 -0.36,2.55 -0.89,5.29 -1.36,23.16 -2.39,16 11.37,32.45 4.95,5.92 10,12.45 16.94,16.15 l 3.48,1.86 3.99,2.65 c 0.89,-0.07 17.01,1.9 17.89,2.33 0.79,0.79 3.44,15.31 -11.43,18.97 -16.13,3.97 -55.45,11.37 -67.54,-0.86 -2.53,-2.55 -4.97,-7.09 -7.82,-9.17 0,8.28 5.71,11.15 -10.71,11.65 -5.99,0.18 -16.51,0.7 -19.48,-4.73 l -13.76,-28.39 c -1.03,-2.67 -1.48,-1.75 0.11,-4.74 z m 20.13,-1.89 1.7,12.91 z m 21.24,20.29 a 3.19,3.19 0 0 0 -0.23,-0.16 c 0.08,0.05 0.15,0.11 0.23,0.16 z m -0.61,-0.44 c -0.08,-0.06 -0.17,-0.11 -0.25,-0.17 0.08,0.06 0.17,0.11 0.25,0.17 z m -0.6,-0.41 c -0.08,-0.06 -0.17,-0.11 -0.25,-0.16 z m -0.58,-0.37 c -0.08,-0.05 -0.17,-0.1 -0.25,-0.15 0.08,0.05 0.16,0.1 0.25,0.15 z m -1.14,-0.67 c -0.08,-0.05 -0.16,-0.09 -0.24,-0.13 0.08,0.04 0.16,0.09 0.24,0.13 z m 39.31,-59.97 v 0 h 0.07 l -0.07,-0.01 z m -43.96,-42.96 a 3.55,3.55 0 0 0 -0.44,0.35 c 0.15,-0.12 0.29,-0.24 0.44,-0.35 z"
     id="path73"
     inkscape:connector-curvature="0"
     style="fill:#826552" />
  <path
     d="m 463.27244,493.12569 0.68,10.47 c 30.15,-0.64 20.39,31.77 2.32,39.22 1.8,4.06 7.22,7.97 11,10.59 6.68,-3.37 12.43,-7.25 19.54,-10.33 11.33,-4.9 20.4,-9.29 28.13,-17.17 -2.72,-6.07 -5.19,-17.16 -4.58,-24.68 3.04,-1.99 10.03,-4.65 14.35,-7.2 2.06,-1.27 2.74,-2.4 5.07,-1.56 3.83,1.39 3.31,14.16 2.32,17.96 -3.53,13.53 -25.33,32.36 -38.09,37.13 -5.24,1.96 -16.39,7.06 -20.47,8.15 1.29,1.92 8.95,8.23 11.63,8.94 -1.01,3.76 -15.04,15.86 -18.79,21.46 -6.6,-3.16 -35.47,-6.06 -34.05,-10.33 0,0 3.81,-0.33 4.85,-0.89 12.02,-6.5 20.46,-15.28 25.97,-17.84 -1.4,-3.17 -8.74,-9.48 -11.98,-11.2 -7.25,3.62 -20.52,9.82 -29.53,10.92 -1.28,-2.07 -3.73,-5.91 -3.58,-8.21 1.47,-1.79 19.53,-7.69 23.87,-12.41 -5.43,-5.82 -11.64,-9.66 -16.71,-16.48 -5.06,-0.32 -12.62,-2.34 -9.07,-3.41 1.56,-0.47 6.35,1.15 8.63,-2.13 2.12,-3.06 -0.68,-6.06 -1.74,-8.7 a 65.12,65.12 0 0 0 3.02,-2.97 c 1.93,3.12 2.94,11.79 2.74,15.67 5.42,4.4 11.28,11.57 17.9,15.38 12.39,-8.2 26.84,-21.16 4.88,-25.88 -4.5,-0.97 -2.5,-14.9 -1.3,-18.27 1.56,1.25 2.49,1.71 2.99,3.76 z m -14.86,-174.53 c 27.26,9.62 16.39,63.05 -10.59,53.88 -10.98,-3.73 -17.52,-18.33 -15.08,-33.09 1.93,-11.65 11.53,-25.78 25.66,-20.8 z m -109.88,8.85 c 26.41,8.81 17.14,62.03 -10.05,54.14 -10.64,-3.08 -17.87,-17.6 -15.79,-32.41 1.73,-12.29 11.48,-26.52 25.84,-21.73 z"
     id="path75"
     inkscape:connector-curvature="0"
     style="fill:#4d4039" />
  <path
     d="m 338.53244,327.44569 c -14.36,-4.79 -24.11,9.44 -25.84,21.73 -2.08,14.81 5.15,29.33 15.79,32.41 27.2,7.89 36.46,-45.33 10.05,-54.14 z m -2.65,-35.4 c 6.64,0.81 18.04,15.35 21.94,21.8 18.49,30.57 4.16,73.57 -29.52,88.52 -34.73,15.42 -73.12,2.14 -89.83,-31.86 -4.63,-9.42 -7.99,-26.61 -4.1,-38.03 l 15.53,-23.64 c 15.53,-20.32 46.18,-29.3 71.54,-21.23 4.12,1.31 10.26,4.48 14.44,4.43 z m 112.53,26.55 c -14.13,-4.99 -23.73,9.15 -25.66,20.8 -2.44,14.75 4.09,29.35 15.08,33.09 26.97,9.17 37.85,-44.26 10.59,-53.88 z m 33.28,-6.34 c 1.92,12.53 3.95,18.81 0.82,32.25 -2.17,9.34 -7.56,19.36 -12.42,24.32 -6.25,6.37 -10.95,11.18 -22.09,14.58 -28.94,8.85 -57.26,-13.13 -61.33,-45.69 -2.43,-19.43 6.65,-44.39 20.05,-51.75 l 1.9,0.1 c 14.19,-6.27 25.54,-15.1 44.63,-6.8 10.81,4.7 18.31,14.9 23.49,24.24 1.87,3.37 3.13,6.49 4.96,8.75 z"
     id="path77"
     inkscape:connector-curvature="0"
     style="fill:#ffffff" />
  <path
     d="m 194.54244,484.18569 c -3.84,2.03 -7.72,4.34 -13.42,4.47 3.15,-4.7 6.59,-6.28 11.63,-8.94 -0.5,-2.13 -0.94,-4.5 -1.79,-6.26 h -30.42 c 1.27,-4.77 6.16,-5.71 11.61,-6.28 6.09,-0.64 10.71,-0.87 17.92,-0.87 -0.31,-3.71 -0.89,-5.03 -0.89,-10.06 9.81,1.49 18.25,1.87 27.66,-0.72 9.01,-2.48 14.54,-7.28 20.74,-9.57 7.47,8.69 6.34,29.84 -0.55,37.77 -4.05,4.66 -7.95,7.99 -13.59,11.45 -9.34,11.55 -19.59,13.42 -28.88,-10.98 z"
     id="path79"
     inkscape:connector-curvature="0"
     style="fill:#bfbab7" />
  <path
     d="m 228.54244,527.99569 z m -49.28,-123 c 0.6,0.9 -1.15,2.58 -1.74,3.35 -0.45,0.59 -1.13,1.31 -1.63,1.91 -0.83,0.98 -1.6,1.7 -2.36,2.79 -0.8,1.14 -1.24,1.57 -1.99,2.86 -0.46,0.8 -1.44,2.6 -2.47,2.61 -0.91,0.01 -0.48,1.38 -1.3,0.96 -1.66,3.43 -3.25,5.83 -3.51,10.9 -19.53,4.28 -81.319995,31.66 -54.96,54.93 27.07,23.88 98.68,31.8 127.7,-1.59 6.89,-7.93 6.45,-30.24 -1.01,-38.93 6.16,-7.1 11.84,-9.56 15.54,-21.31 55.19,5.64 140.48,16.01 194.94,1.38 66.15,-17.78 100.75,-52.6 82.87,-121.49 -10.34,-39.87 -22.67,-62.94 -48.79,-95.2 -9.1,-11.24 -25.9,-28.46 -32.25,-40.21 -7.06,-13.06 3.65,-23.56 26.26,-23.56 -5.12,-6.99 -14.79,-3.04 -23.64,-1.27 l -78.36,15.57 -121.89,18.79 -8.71,-10 c -1.26,-1.15 8.99,-3.23 8.05,-4.24 31.82,-4.56 64.51,-8.93 96.09,-14.9 l 79.77,-15.96 c 40.98,-9.02 -257.04,-80.160004 -403.399995,-10.61 -76.02,38.36 196.689995,48.08 205.889995,43.72 -1.57,9.69 -7.9,2.99 -20.49,15.77 -55.97,1.41 -159.709995,2.36 -201.4799954,-35.74 -10.4,-9.49 -8.17,-25.62 7.2000004,-35.3 21.49,-13.540004 91.629995,-25.750004 115.759995,-28.270004 96.11,-7.49 164.34,-5.76 260.04,17.91 15.11,3.740004 76.86,25.170004 82.45,24.900004 16.53,-0.78 34.19,-3.73 51.03,-3.63 43.61,0.25 68.67,-0.94 112.41,13.76 12.39,4.16 73.29,23.42 58.56,43.54 -5.72,7.81 -18.89,9.01 -26.01,10.67 0,16.44 -30.63,8.98 -45.76,7.28 -50.77,-5.69 -72.1,-5.48 -120.63,-29.66 -5.75,-2.87 -19.42,-3.55 -26.87,-3.55 10.79,16.11 23.29,30.32 34.61,49.46 30.29,51.22 83.3,147.19 22.66,193.75 -25.26,19.39 -56.31,29.5 -87.09,36.32 -41.09,9.11 -79.5,14.19 -122.09,11.65 -20.86,-1.25 -40.33,-5.25 -60.06,-6.94 3.03,10.39 10.36,23.04 4.96,35.52 -5.13,11.85 -12.19,16.44 -19.93,23.58 2.74,4.53 2.69,4.99 1.67,10.73 -2.24,12.26 -18.06,35.51 -29.72,43.83 -21.53,15.35 -41.4,16.09 -64.82,33.58 -5.06,3.78 -9.45,6.93 -14.11,10.93 -8.77,7.53 -13.45,-1.35 -12.94,-4.87 2.73,-18.74 73.8,-41.81 90.29,-58.21 3.15,-3.14 9.34,-10.14 10.51,-14.53 -4.35,1.16 -13.58,10.18 -38.85,15.72 -31.85,6.99 -89.15,11.3 -99.619995,-29.35 -2.56,-9.94 -5.17,-3.88 -13.14,-14.59 -10.94,-14.69 -14.55,-36.98 -1.18,-50.26 15.31,-15.22 -5.87,-7.99 32.239995,-35.73 12,-8.74 64.72,-18.61 71.27,-8.79 z m -33.93,128.37 c 12.9,0 49.9,-1.11 59.95,-9.84 -10.53,0 -31.82,3.58 -51.89,3.58 -18.77,0 -28.16,0.29 -45.63,-8.94 2.45,9.17 24.8,15.2 37.58,15.2 z m -57.259995,-44.71 c 0,-7.49 2.06,-5.23 -1.16,-11.33 -1.51,-2.86 -3.47,-7 -4.2,-10.13 -5.28,2.96 3.08,17.24 5.37,21.46 z m 547.569995,-316.52 c 1.32,0 2.65,-3.31 5.75,-4.15 7.11,0.51 23.7,-1.05 25.57,5.94 36.94,0 -26.96,-28.77 -72.27,-37.42 -45.31,-8.65 -66.16,-4.16 -90.2,-0.65 -34.4,5.03 16.99,8.54 23.41,9.83 35.1,7.07 70.08,26.46 107.74,26.46 z"
     id="path81"
     inkscape:connector-curvature="0"
     style="fill:#a98d6f" />
  <path
     d="m 484.43244,304.52569 c 1.8,1.35 1.6,1.12 2.68,4.5 -3.02,-1.25 -3.76,-3.07 -5.88,-5.12 z"
     id="path83"
     inkscape:connector-curvature="0"
     style="fill:#b3adaa" />
  <g
     id="g89"
     style="fill:#4d4039"
     transform="translate(0.0224446,78.025686)">
    <path
       d="m 335.87,214.03 c -4.18,0.05 -10.32,-3.12 -14.44,-4.43 -25.36,-8.07 -56.01,0.9 -71.54,21.23 l -15.53,23.64 c -2.91,1.77 -12.79,10.18 -19.64,6.85 -2.27,-1.1 16.51,-7.11 18.89,-16.64 -8.67,1.82 -17.45,-1.91 -17.98,-9.65 -0.24,-3.54 8.07,8.78 20.7,2.86 -4.05,-2.9 -11.24,-2.88 -10.28,-11.22 0.52,-4.54 3.75,4.41 12.3,5.44 13.19,-17.04 19.4,-25.26 41.57,-31.2 21.01,-5.63 57.09,-0.84 55.93,13.12 z m 151.38,-1 c -2.27,2.89 -4.2,4.43 -8.21,5.36 4.17,5.69 16.39,1.89 21.47,2.68 6.67,1.04 -11.4,6.36 -16.11,5.43 l -3.2,-0.62 c 2.13,2.05 2.86,3.88 5.88,5.12 l 16.05,8.01 c 6.56,3.86 -6.97,1.5 -7.99,1.33 -7.24,-1.77 -15.77,-6.43 -19.51,-13.17 -5.18,-9.34 -11.6,-15.83 -22.41,-20.53 -19.09,-8.3 -30.67,-3.41 -44.86,2.86 l -1.06,-0.99 -0.61,-0.58 c 6.04,-13.07 26.5,-15.15 42.88,-10.15 7.8,2.38 14.1,6.25 19.15,10.37 2.73,2.23 4.15,5.99 8.29,5.58 5.07,-0.5 11.31,-8.98 10.25,-0.72 z M 361.22,315.51 c -2.66,1.13 -4.32,1.83 -7.7,2.07 l 7.42,-7.99 c 3.42,4.56 -1.24,3.36 7.65,5.77 4.23,1.14 7.55,2.05 12.01,2.34 4.4,0.29 8.81,-0.05 12.67,-1.7 7.09,-3.03 8.16,-9.12 9.05,-6.05 4.7,16.22 -32.39,18.43 -41.1,5.56 z M 252.05,86.62 264.31,97.66 c 3.31,2.26 7.52,6.18 10.85,8.84 3.88,3.09 7.63,6.27 12.02,9.13 -4.18,2.82 -13.34,1.7 -19.83,3.03 -12.07,2.46 -36.12,11.93 -41.54,22.63 81.74,3.2 62.41,-26.78 92.74,-43.94 9.17,-5.18 18.61,-3.94 21.36,8.88 1.93,9 -5.69,21.67 -12.1,27.18 -23.51,20.23 -38.18,15.68 -64.61,23.95 -22.32,6.98 -40.09,19.83 -60.69,26.99 -18.32,6.37 -17.21,1.61 -22.31,-1.76 -8.72,-12.85 -20.01,-41.04 -2.33,-47.92 4.43,-1.72 7.53,-0.88 12.17,-0.36 l 24.16,4.48 c -4.68,-6.98 -13.56,-14.37 -15.77,-24.5 -2,-9.18 4.38,-16.4 12.19,-20.2 4.33,-2.11 10.34,-4.11 14.64,-6.26 5.13,-2.08 3.47,-7.1 11.29,-7.25 4.17,-0.08 12.33,3.15 15.49,6.02 z"
       id="path85"
       inkscape:connector-curvature="0" />
    <path
       d="m 287.16,115.65 c -4.19,2.8 -13.33,1.69 -19.8,3.01 -12.07,2.46 -36.12,11.93 -41.54,22.63 5.41,-10.7 25.88,-23.18 37.95,-25.64 6.49,-1.32 17.59,1.7 21.77,-1.12 0.25,0.18 0.82,0.57 1.62,1.12 z m -61.34,25.64 c 48.38,1.9 61.35,-7.84 70.17,-19.65 5.82,3.95 11.91,8.11 12.11,8.48 2.41,4.29 -26.76,11.51 -29.47,12.37 -11.87,3.77 -23.82,2.81 -36.19,3.77 -4.4,0.34 -13.62,0.54 -17.85,-1.41 -2.1,-0.97 -1,-2.33 0.52,-3.23 -0.51,-0.02 1.21,-0.31 0.7,-0.33 z m 26.71,204.4 c -5.08,16.13 -19.74,27.41 -35.72,31.81 -13.27,3.65 -34.7,1.88 -45.97,-6.68 -4.92,-3.73 -7.94,-9.86 -7.51,-18.31 0.81,-15.85 9.32,-23.84 22.81,-29.26 -28.16,24.37 -12.42,56.77 28.82,45.2 14.02,-3.94 24.42,-11.67 28.73,-24.06 8,-22.95 -19.5,-24.27 -23.48,-27.77 14.04,-4.11 38.41,6.87 32.32,29.06 z m 37.71,68.37 c -0.04,5.95 -1.05,11.43 -0.94,18.03 0.09,5.65 1.31,13.86 -1.82,17.8 -2.63,3.31 -2.8,0.49 -4.3,5.42 -1.74,5.73 -3.77,20.26 -3.44,25.71 15.09,5.44 45.15,15.8 30.06,-9.59 4.19,-4.08 17.76,-17.36 22.51,-16.9 -0.47,3.66 -0.36,2.55 -0.89,5.29 -7.11,4.28 -9.72,8.89 -14.57,11.35 4.67,8.65 13.36,21.9 -2.9,27.55 -11.8,4.1 -25.19,-1.74 -35.29,-4.83 -0.67,25.86 4.54,12.12 18.44,23.47 6.3,5.14 4.93,7.52 13.59,11.48 14.78,6.75 25.25,6.67 42.2,3.85 l 1.21,-2.82 c 1.68,-5.33 4.92,-15.86 13.1,-16.94 0.89,-0.07 17.01,1.9 17.89,2.33 0.79,0.79 3.44,15.31 -11.43,18.97 -16.13,3.97 -55.45,11.37 -67.54,-0.86 -2.53,-2.55 -4.97,-7.09 -7.82,-9.17 0,8.28 5.71,11.15 -10.71,11.65 -5.99,0.18 -16.51,0.7 -19.48,-4.73 l -13.76,-28.39 c -1.03,-2.67 -1.48,-1.75 0.11,-4.74 6.74,3.67 12.03,8.93 21.83,11.02 L 274,491.61 c -3.18,-1.32 -12.37,-5.74 -13.6,-8.54 -0.51,-2.69 1.01,-8.37 3,-10.27 l 11.56,6.15 4.13,-25.78 c -3.92,-0.87 -4.9,-2.09 -5.41,-6.31 21.56,15.02 1.45,-25.92 14.58,-35.27 0.99,0.89 1.08,0.65 1.97,2.51 z"
       id="path87"
       inkscape:connector-curvature="0" />
  </g>
  <g
     id="g95"
     style="fill:#ffffff"
     transform="translate(0.0224446,78.025686)">
    <ellipse
       cx="341.95999"
       cy="268.23001"
       rx="4.6300001"
       ry="7.27"
       id="ellipse91" />
    <ellipse
       cx="452.54999"
       cy="258.26999"
       rx="4.48"
       ry="7.0300002"
       id="ellipse93" />
  </g>
  <path
     d="m 267.39244,196.66569 c 6.48,-1.32 15.61,-0.21 19.8,-3.01 l 8.83,5.99 c -8.82,11.82 -21.79,21.55 -70.18,19.65 5.41,-10.7 29.47,-20.17 41.54,-22.63 z"
     id="path97"
     inkscape:connector-curvature="0"
     style="fill:#826552" />
  <defs
     id="defs100">
    <path
       id="B"
       d="m 308.1,130.11 c 2.41,4.29 -26.76,11.51 -29.47,12.37 -11.87,3.77 -23.82,2.81 -36.19,3.77 -4.4,0.34 -13.62,0.54 -17.85,-1.41 -2.1,-0.97 -1,-2.33 0.52,-3.23 -0.51,-0.02 1.21,-0.31 0.7,-0.33 5.41,-10.7 25.88,-23.18 37.95,-25.64 6.49,-1.32 17.59,1.7 21.77,-1.12 1.87,1.36 22.19,14.91 22.57,15.59 z"
       inkscape:connector-curvature="0" />
  </defs>
</svg>
